<?xml version="1.0" encoding="utf-8"?>
<!-- Generator: Adobe Illustrator 14.0.0, SVG Export Plug-In . SVG Version: 6.00 Build 43363)  -->
<!DOCTYPE svg PUBLIC "-//W3C//DTD SVG 1.1//EN" "http://www.w3.org/Graphics/SVG/1.1/DTD/svg11.dtd">
<svg version="1.1" id="Ebene_1" xmlns="http://www.w3.org/2000/svg" xmlns:xlink="http://www.w3.org/1999/xlink" x="0px" y="0px"
	 width="100px" height="100px" viewBox="0 0 100 100" enable-background="new 0 0 100 100" xml:space="preserve">
<circle fill="#B2B2B2" cx="50" cy="50" r="50"/>
<g>
	<g>
		<path fill-rule="evenodd" clip-rule="evenodd" d="M72.468,19.089c2.116,2.954,2.91,7.251,3.525,11.987
			c0.171,1.31,0.14,2.293,1.058,2.821l-0.47,0.353l-0.353,0.47c-1.605-1.143-5.792-0.705-8.932-0.705
			c-17.331,0-32.354-3.318-45.01-8.109c-1.131,0.947-6.552-0.261-5.406,2.585l-0.47,0.353l-0.353,0.47
			c-2.413-2.763,1.614-4.637,4.936-4.231c0.958-2.607,1.965-5.165,3.526-7.168l0.353,0.47l0.47,0.353
			c0.033,0.19-0.111,0.203-0.117,0.353c14.108,5.4,30.137,8.881,49.124,9.402c-0.375-3.386-1.638-5.884-2.703-8.579l0.47-0.353
			L72.468,19.089z"/>
		<path fill-rule="evenodd" clip-rule="evenodd" d="M78.227,35.777l0.353-0.47c3.133,2.834-1.866,5.007-5.406,4.113l-0.646-0.486
			l-0.646,0.486c-0.618,0.07-1.009-0.087-1.527-0.118c0,0.196,0,0.392,0,0.587h-0.588l-0.47,0.353
			c-0.356-1.093-1.061-1.838-1.646-2.703l0.471-0.353l0.353-0.47c0.59,0.113,0.658,1.006,1.41,1.292
			c0.99,0.378,4.88,0.43,6.346,0.235c1.29-0.171,2.753-0.955,1.528-2.116L78.227,35.777z"/>
		<path fill-rule="evenodd" clip-rule="evenodd" d="M71.88,45.179h0.588c-0.363,1.517-0.821,2.939-1.646,3.996l-0.47-0.353h-0.588
			c0.506-1.375,1.012-2.749,1.646-3.996L71.88,45.179z"/>
		<path fill-rule="evenodd" clip-rule="evenodd" d="M53.782,61.515l0.353,0.47c-4.035,1.268-10.656,1.271-14.69,0l0.353-0.47v-0.588
			c1.876-0.467,4.094-2.932,5.641-4.348c5.008-4.585,8.963-10.477,10.695-17.981c-11.984-0.865-23.064-2.634-33.259-5.289
			c-1.55,3.656-1.529,9.99,0,13.632h-0.587l-0.47,0.353c-1.821,0.216-3.415,0.66-5.171,0.94c0.979,2.551,3.936,4.675,7.286,3.408
			c0-0.078,0-0.156,0-0.234l0.47-0.353l0.353-0.471c0.91,1.089,1.771,2.225,2.703,3.291l-0.47,0.353l-0.353,0.47
			c-0.612,0.211-1.088,0.558-1.646,0.823c0.947,3.754,1.61,7.792,2.351,11.752c0.243,0.306,0.933,0.164,1.175,0.47l-0.353,0.471
			v0.587c-2.325-0.753-4.345,0.293-5.289,1.646l-0.372-0.45l-0.568-0.138c0.983-0.97,0.542-2.459,0.235-4.466
			c-0.449-2.94-1.036-6.549-1.293-9.519c-5.449-0.779-8.49-3.967-9.049-9.637c2.183-1.578,5.29-2.231,8.932-2.35
			c-1.111-3.567,0.04-7.818,0.822-10.93c-0.855-0.633-2.487-0.49-3.173-1.293l0.47-0.353l0.353-0.47
			c12.054,3.85,26.012,5.798,40.897,6.816c0.47-0.197,0.304-1.028,0.94-1.058l0.353,0.47l0.47,0.353
			c-1.045,1.484-0.677,4.151,0.235,5.523l-0.47,0.353l-0.353,0.47c-0.648-0.371-0.761-1.277-1.176-1.88
			c-0.355,1.407-1.021,2.503-1.527,3.761c-2.966,5.539-7.079,10.262-11.282,14.69c-0.355,0.374-0.996,0.809-0.94,1.41
			c2.715-0.027,5.057-0.428,7.404-0.823V61.515z M22.756,60.927c0.476,2.228,0.732,4.675,1.175,6.935
			c0.647-0.255,1.329-0.474,2.115-0.588c-0.406-2.219-0.994-4.256-1.292-6.581C23.966,60.648,23.518,60.944,22.756,60.927z"/>
		<path fill-rule="evenodd" clip-rule="evenodd" d="M29.338,75.265l0.353,0.47c0,0.039,0,0.079,0,0.118
			c2.518-0.011,5.07-0.056,6.816,0.705c0.917-2.531,1.638-5.257,3.056-7.286l0.353,0.47l0.47,0.353
			c-0.207,0.527-0.604,1.161,0.117,1.41c0.654-1.03,1.282-2.087,1.763-3.29c0.181-0.063,0.007-0.123-0.118-0.118l-0.353-0.47
			l-0.47-0.353c1.784-1.648,4.463-3.2,7.639-1.528c2.941,1.549,4.68,6.022,5.993,10.107c0.744,2.313,1.949,5.471,0.588,7.756
			l-0.47-0.353h-0.588c0.94-5.183-1.533-8.851-2.82-12.574c-2.113,0.864-3.869,2.086-6.229,2.703
			c-1.132-0.67-0.975-2.629-1.292-4.113c-0.859,5.129-2.665,12.585-0.588,17.745c3.846,0.271,7.449-0.691,9.872-2.232l0.353,0.47
			l0.47,0.353c-1.896,1.744-6.652,3.036-11.047,2.703c-3.375-0.256-6.385-2.176-7.874-3.996l-0.353-0.47l-0.47-0.353
			c1.353-1.193,0.961-4.131,1.763-5.876c-2.19-0.474-4.792-0.535-7.521-0.471c-1.04-1.033-2.354,0.007-3.525,0.471
			c-1.522,0.602-3.875,1.444-4.936,2.351l-0.353-0.471l-0.47-0.353c1.108-1.478,3.455-1.716,5.054-2.703l0.353-0.47v-0.588
			c1.453,0.448,3.179,0.142,4.113-0.587L29.338,75.265z M45.908,71.856c1.875-0.554,3.303-1.555,5.054-2.232
			c-1.226-1.714-2.428-3.448-5.524-3.291C45.417,68.353,45.376,70.391,45.908,71.856z M39.444,72.326
			c-1.201,3.578-2.898,6.661-2.703,11.635c1.308,1.277,3.192,2.605,5.288,2.703c-1.519-4.704-0.128-11.424,0.353-15.865
			C41.937,72.165,40.629,74.358,39.444,72.326z"/>
		<path fill-rule="evenodd" clip-rule="evenodd" d="M29.455,38.01c1.507-0.571,0.883,2.161,0.823,3.291
			c-0.06,1.12,0.26,3.652-0.94,3.643c-1.266-0.01-0.643-2.264-0.588-3.291C28.833,40.11,28.382,38.417,29.455,38.01z"/>
		<path fill-rule="evenodd" clip-rule="evenodd" d="M41.442,39.421c0.314,1.565,0.522,4.855-0.118,6.229c-0.313,0-0.626,0-0.94,0
			c-0.541-1.511-0.626-4.55-0.235-6.229C40.461,39.124,41.131,39.124,41.442,39.421z"/>
		<path fill-rule="evenodd" clip-rule="evenodd" d="M33.804,49.292c-0.557-0.619-0.833-1.518-0.94-2.585
			C34.166,44.426,36.163,49.377,33.804,49.292z"/>
		<path fill-rule="evenodd" clip-rule="evenodd" d="M77.639,51.408c0.427-1.021,2.071-3.242,3.056-1.528l-0.47,0.353l-0.353,0.471
			c-0.688,0.291-0.717,1.242-1.41,1.527l-0.353-0.47L77.639,51.408z"/>
		<path fill-rule="evenodd" clip-rule="evenodd" d="M82.104,53.053l0.353-0.47c2.127,3.201,3.526,7.129,4.113,11.87
			c1.739,0.298,3.603,0.471,5.171,0.939c-0.219,0.957-0.831,1.52-1.293,2.233l-0.353-0.471l-0.47-0.353
			c-0.019-0.292,0.185-0.363,0.235-0.587c-1.163-0.091-2.138-0.37-3.291-0.471c0.097,1.507-0.171,2.649-0.235,3.996
			c-2.567,2.163-8.298,2.209-11.986,1.058c0.016,0.533,0.287,0.81,0.353,1.293c3.389,0.332,6.854,0.589,10.576,0.588
			c0.423-0.4,0.572-1.074,1.176-1.293l0.353,0.47l0.353,0.47c-0.28,0.699-0.824,1.135-1.293,1.646
			c-3.693-0.066-7.334-0.187-10.694-0.587c0.354,2.23,1.073,4.098,1.293,6.463c1.243,0.206,2.559,0.34,3.761,0.588
			c-0.813,3.105-2.064,5.771-3.526,8.227c-4.946,0.357-10.118-0.096-14.808-0.47c-2.017-0.161-4.008-0.102-5.758-0.705
			c0.651-3.188,2.269-5.41,3.643-7.874c0.388-0.161,0.94-0.157,1.41-0.235c0.857-2.904,1.344-6.178,2.703-8.579l0.471,0.353h0.587
			c-0.905,3.051-1.969,5.943-2.703,9.167l-0.792-0.174l-0.618,0.526c-0.078,0-0.156,0-0.234,0c-0.993,1.945-2.113,3.763-2.938,5.876
			c5.758,0.627,11.719,1.052,18.216,0.94c1.135-1.765,1.952-3.846,2.586-6.111c-0.661-0.006-1.208-0.124-1.764-0.235
			c-0.159,0.78-0.134,1.747-0.822,1.998l-0.353-0.47l-0.47-0.353c0.163-7.107-2.559-13.34-5.523-18.099l-0.353-0.47l-0.471-0.354
			c1.06-1.348,2.25,0.119,2.703,1.059c1.134-2.588,2.059-5.385,3.408-7.757l0.47,0.353h0.588c-1.091,3.179-2.644,5.896-3.644,9.167
			c0.474,0.976,0.999,1.899,1.293,3.056c3.231,1.177,8.534,1.54,11.518-0.118c0.801-6.738-1.254-11.579-3.408-15.748L82.104,53.053z
			"/>
		<path fill-rule="evenodd" clip-rule="evenodd" d="M44.733,79.613c-1.037-0.939-1.195-3.618-0.587-5.171
			c2.06-0.655,5.464-0.627,7.403,0.117c0.264,1.604,0.085,3.761-0.939,4.466l-0.353-0.47l-0.47-0.353
			c0.299-0.76,0.553-1.563,0.47-2.703c-1.452-0.372-3.427-0.227-5.053-0.118c-0.299,1.126-0.092,2.646,0.353,3.408l-0.47,0.353
			L44.733,79.613z"/>
		<g>
			<path fill-rule="evenodd" clip-rule="evenodd" fill="none" stroke="#000000" stroke-width="1.1702" stroke-linecap="round" d="
				M39.797,61.515c-4.794-1.257-9.439-3.619-12.81-7.286"/>
			<path fill-rule="evenodd" clip-rule="evenodd" fill="none" stroke="#000000" stroke-width="1.2034" stroke-linecap="round" d="
				M39.915,69.741c0.573-0.755,1.159-1.487,1.88-2.115"/>
			<path fill-rule="evenodd" clip-rule="evenodd" fill="none" stroke="#000000" stroke-width="1.1832" stroke-linecap="round" d="
				M34.979,83.844c-1.457,1.374-3.182,2.497-5.013,3.317c-2.186-0.487-5.863-2.899-8.18-4.477c-0.935-0.636-3-1.786-1.849-3.189"/>
			<path fill-rule="evenodd" clip-rule="evenodd" fill="none" stroke="#000000" stroke-width="1.1828" stroke-linecap="round" d="
				M24.872,75.97c-2.414-0.727-3.822-3.79-2.37-5.974"/>
			<path fill-rule="evenodd" clip-rule="evenodd" fill="none" stroke="#000000" stroke-width="1.1925" stroke-linecap="round" d="
				M18.878,31.312c-0.906-0.726-1.841-1.469-2.468-2.468"/>
			<path fill-rule="evenodd" clip-rule="evenodd" fill="none" stroke="#000000" stroke-width="1.2002" stroke-linecap="round" d="
				M24.872,18.384c4.005-5.902,10.717-9.144,18.466-10.174c11.168-1.485,23.068,1.196,28.777,11.35"/>
			<path fill-rule="evenodd" clip-rule="evenodd" fill="none" stroke="#000000" stroke-width="1.1674" stroke-linecap="round" d="
				M61.421,37.07c1.504-2.332,5.057-1.774,6.699,0.118"/>
			<path fill-rule="evenodd" clip-rule="evenodd" fill="none" stroke="#000000" stroke-width="1.1688" stroke-linecap="round" d="
				M78.227,35.777c-0.545-0.514-1.022-1.111-1.646-1.527"/>
			<path fill-rule="evenodd" clip-rule="evenodd" fill="none" stroke="#000000" stroke-width="1.1853" stroke-linecap="round" d="
				M69.765,39.891c2.31,5.333-5.71,8.421-8.108,3.408"/>
			<path fill-rule="evenodd" clip-rule="evenodd" fill="none" stroke="#000000" stroke-width="1.1726" stroke-linecap="round" d="
				M53.782,61.515c6.891-1.789,13.525-6.089,16.57-12.692"/>
			<path fill-rule="evenodd" clip-rule="evenodd" fill="none" stroke="#000000" stroke-width="1.2396" stroke-linecap="round" d="
				M71.88,45.179c0.618-2.021,0.704-4.133,0.646-6.245"/>
			<path fill-rule="evenodd" clip-rule="evenodd" fill="none" stroke="#000000" stroke-width="1.1945" stroke-linecap="round" d="
				M24.402,51.056c-0.821-1.312-1.512-2.691-2.115-4.114"/>
			<path fill-rule="evenodd" clip-rule="evenodd" fill="none" stroke="#000000" stroke-width="1.2212" stroke-linecap="round" d="
				M29.338,75.265c2.624-1.792,1.812-6.154-1.175-7.051"/>
			<path fill-rule="evenodd" clip-rule="evenodd" fill="none" stroke="#000000" stroke-width="1.1657" stroke-linecap="round" d="
				M53.782,85.254c0.613-0.527,1.048-1.229,1.293-1.998"/>
			<path fill-rule="evenodd" clip-rule="evenodd" fill="none" stroke="#000000" stroke-width="1.1992" stroke-linecap="round" d="
				M64.359,71.151c1.056-2.744,2.365-5.661,4.818-7.403"/>
			<path fill-rule="evenodd" clip-rule="evenodd" fill="none" stroke="#000000" stroke-width="1.2027" stroke-linecap="round" d="
				M75.288,57.049c0.839-1.813,1.762-3.588,2.821-5.288"/>
			<path fill-rule="evenodd" clip-rule="evenodd" fill="none" stroke="#000000" stroke-width="1.2077" stroke-linecap="round" d="
				M82.104,53.053c-0.627-0.934-1.216-1.9-1.88-2.82"/>
			<path fill-rule="evenodd" clip-rule="evenodd" fill="none" stroke="#000000" stroke-width="1.1929" stroke-linecap="round" d="
				M86.806,71.856c1.095-1.561,2.271-3.085,3.29-4.701"/>
			<path fill-rule="evenodd" clip-rule="evenodd" fill="none" stroke="#000000" stroke-width="1.2287" stroke-linecap="round" d="
				M75.523,82.669c-1.084,1.601-3.78,2.218-6.083,2.518c-2.776,0.361-7.639-0.013-8.018-3.155c-0.074-0.618,0.324-1.389,0.028-1.887
				"/>
			<path fill-rule="evenodd" clip-rule="evenodd" fill="none" stroke="#000000" stroke-width="1.2005" stroke-linecap="round" d="
				M50.256,78.556c-1.071,1.738-3.885,2.582-5.171,0.587"/>
		</g>
	</g>
</g>
</svg>
