<?xml version="1.0" encoding="utf-8"?>
<!-- Generator: Adobe Illustrator 14.0.0, SVG Export Plug-In . SVG Version: 6.00 Build 43363)  -->
<!DOCTYPE svg PUBLIC "-//W3C//DTD SVG 1.1//EN" "http://www.w3.org/Graphics/SVG/1.1/DTD/svg11.dtd">
<svg version="1.1" id="Ebene_1" xmlns="http://www.w3.org/2000/svg" xmlns:xlink="http://www.w3.org/1999/xlink" x="0px" y="0px"
	 width="100px" height="100px" viewBox="0 0 100 100" enable-background="new 0 0 100 100" xml:space="preserve">
<circle fill="#B2B2B2" cx="50" cy="50" r="50"/>
<g>
	<g>
		<path fill-rule="evenodd" clip-rule="evenodd" d="M59.847,60.113c-0.168,0.18-0.452,0.243-0.812,0.232
			c8.51,0.271,17.522,0.038,26.227,0.115c0,2.282,0,4.565,0,6.848c-1.444-0.258-3.355-0.049-4.99-0.116
			c-0.272,5.458-0.035,12.025-0.116,17.291c-2.32,0-4.642,0-6.963,0c0-5.726,0-11.45,0-17.175c-1.359-0.266-3.206-0.043-4.758-0.116
			c-0.271,5.531-0.039,11.565-0.116,17.291c-2.282,0-4.564,0-6.847,0c0-5.764,0-11.527,0-17.291c-2.012,0-4.023,0-6.034,0
			c1.647,3.425,4.887,8.399,4.409,13.229c-0.508,5.147-7.922,6.696-13.925,6.267c-2.799-0.2-4.618-1.552-8.356-1.045
			c0-0.928,0-1.856,0-2.785c-0.726,0.463-1.68,1.072-2.785,1.741c-0.94,0.568-2.122,1.562-3.133,1.625
			c-1.418,0.088-2.562-1.057-3.946-1.509c-0.268,0.313-0.042,1.119-0.116,1.624c-2.398,0-4.796,0-7.195,0
			c-0.29-1.956,0.387-4.056,0-5.802c-0.147-0.663-0.677-0.999-0.696-1.625c-0.023-0.745,0.291-1.161,0.696-1.625
			c0-3.365,0-6.73,0-10.096c-1.199,0-2.398,0-3.598,0c0-2.244,0-4.487,0-6.731c1.896,0,3.791,0,5.687,0
			c-0.207-1.998-0.523-3.887-0.813-5.802c-5.671-0.751-9.067-3.776-9.748-9.516c2.426-1.559,5.766-2.203,9.632-2.321
			c-0.817-3.646-0.046-7.875,0.929-10.792c-0.744-0.533-1.921-0.459-2.785-0.812c-1.72-0.703-4.146-2.954-4.062-4.526
			c0.116-2.171,3.564-2.361,6.267-2.438c2.781-8.234,8.899-13.55,17.523-16.015c4.166-1.19,8.772-1.398,14.274-1.625
			c5.864-0.241,12.593,2.055,16.595,4.526c6.899,4.259,10.856,10.829,11.373,21.005c1.099,1.349,4.042,2.089,3.714,4.294
			c-0.319,2.142-4.14,2.125-6.847,1.973c-0.557,10.353-6.043,15.774-13.229,19.496v-0.58l-0.349-0.464
			c6.292-3.882,11.832-8.516,12.069-18.452c-0.641,0.061-1.095-0.066-1.625-0.116c0.653,2.342,0.266,5.149-1.509,6.035l-0.348-0.464
			l-0.465-0.348c0.077-0.31,0.35-0.425,0.581-0.58c0.92-1.79,0.848-3.506-0.116-5.106c-2.063-3.423-8.014-3.812-8.239,1.044
			c0.35,1.932,1.214,3.35,2.437,4.41l-0.464,0.348l-0.349,0.464c-1.329-0.644-1.88-2.065-2.669-3.25
			c-3.361,8.244-9.352,13.858-15.202,19.612c3.932-0.014,7.314-0.576,10.444-1.393v0.581L59.847,60.113z M51.26,7.891
			C40.326,8.4,31.222,11.183,26.541,18.336c15.374,5.437,32.86,8.763,53.15,9.284C77.71,14.935,66.528,7.181,51.26,7.891z
			 M72.845,35.163c0.909,0.62,1.204,1.593,1.973,1.857c1.042,0.358,5.2,0.425,6.847,0.232c0.813-0.095,2.093-0.472,2.205-1.044
			c0.221-1.125-2.951-3.022-3.481-3.133c-2.27-0.476-5.571,0-8.123,0c-18.799,0-35.516-3.282-48.973-8.007
			c-0.518,0.777-5.842,0.016-6.15,1.625c-0.224,1.167,2.126,2.84,3.017,3.249c1.325,0.608,3.155,0.963,4.874,1.393
			c11.696,2.921,26.281,4.542,39.341,5.338C65.403,33.451,70.479,33.552,72.845,35.163z M40.467,59.185
			c2.148,1.019,3.554-0.211,5.222-1.509C51.936,52.817,57.93,46.271,59.847,37.6c-12.821-0.873-24.832-2.555-35.859-5.222
			c-0.813,2.004-1.763,5.346-1.393,8.588c0.654,5.72,4.871,10.689,7.892,13.229l-0.464,0.349l-0.348,0.464
			c-0.798-0.323-1.227-1.017-1.857-1.509c-0.48,0.41-1.355,0.424-1.625,1.045c0.628,1.809,1.008,3.866,1.393,5.918
			c2.508,0,6.491,0,9.748,0c0.679,0,3.805,0.147,2.785-0.231l0.348-0.465V59.185z M22.711,46.188
			c-1.954,0.212-3.672,0.66-5.57,0.928c1.135,2.586,4.348,4.614,7.891,3.366C24.267,49.042,23.299,47.804,22.711,46.188z
			 M23.872,59.649c0.263,2.405,0.716,4.621,1.16,6.847c0.752-0.216,1.431-0.504,2.321-0.58c-0.554-2.077-0.962-4.3-1.393-6.499
			C25.152,59.382,24.608,59.611,23.872,59.649z M48.822,70.441c2.021-0.533,3.602-1.505,5.454-2.205
			c-1.226-1.83-2.733-3.377-5.918-3.249C48.27,67.049,48.402,68.889,48.822,70.441z M43.484,68.236
			c-0.555,0.282-1.369,1.486-0.464,1.857c0.721-1.097,1.348-2.288,2.089-3.366C44.32,66.983,43.869,67.577,43.484,68.236z
			 M30.951,68.236c-3.229-3.023-9.529,0.59-6.731,4.41C27.063,76.525,35.092,72.115,30.951,68.236z M32.808,72.879
			c-0.38,0.637-1.374,1.043-1.276,1.508c2.164-0.036,4.241,0.015,6.034,0.349c0-2.515,0-5.029,0-7.543
			c-1.896,0.077-4.1-0.154-5.802,0.116C33.243,68.401,33.915,71.025,32.808,72.879z M46.27,85.412
			c3.573,0.046,8.012-0.327,10.328-1.857c4.322-2.854-0.016-10.78-1.509-14.273c-2.213,0.881-4.214,1.975-6.614,2.669
			c-1.365-0.492-1.196-2.519-1.509-4.062C45.895,72.766,44.269,80.334,46.27,85.412z M43.136,71.834
			c-0.617,0.018-0.649-0.653-1.277-0.929c-1.329,3.507-3.112,6.56-2.901,11.605c1.539,1.13,3.458,2.498,5.686,2.553
			c-1.71-4.604-0.165-11.354,0.464-15.666C44.438,69.994,44.136,71.807,43.136,71.834z M30.255,75.664
			c-0.353-0.171-0.718-0.435-1.161-0.465c-0.861-0.058-1.192,0.476-1.625,0.696c-2.094,1.07-5.689,1.154-6.499,3.018
			c2.958,2.573,6.58,4.483,10.561,6.034c2.198-1.051,4.184-2.315,5.918-3.829c0.021-1.951,0.507-3.439,0.928-4.99
			C36.012,75.632,33.165,75.615,30.255,75.664z"/>
		<path fill-rule="evenodd" clip-rule="evenodd" d="M32.111,37.251c0.134,1.903-0.141,4.326-0.348,6.267
			c-0.412,0.13-0.583,0.5-1.276,0.348c-0.792-1.505-0.25-5.129,0.232-6.847C31.261,36.839,31.771,36.938,32.111,37.251z"/>
		<path fill-rule="evenodd" clip-rule="evenodd" d="M44.181,38.528c0.251,1.683,0.053,3.815,0.116,5.686
			c-0.35,0.231-0.711,0.449-1.393,0.348c-0.534-1.492-0.618-4.493-0.232-6.15C43.123,37.974,43.765,38.292,44.181,38.528z"/>
		<path fill-rule="evenodd" clip-rule="evenodd" d="M36.289,45.143c0.364,0.678,0.969,2.317,0.232,3.017
			C34.543,48.642,34.029,44.261,36.289,45.143z"/>
		<path fill-rule="evenodd" clip-rule="evenodd" d="M54.973,73.11c0.287,1.773-0.024,3.532-0.928,4.643
			c-1.613,1.98-5.161,2.426-6.731,0.231c-0.885-1.237-1.146-3.369-0.348-4.99C49.221,72.349,52.836,72.373,54.973,73.11z
			 M48.126,73.923c-0.467,2.129,0.266,4.096,1.856,4.294c1.986,0.247,3.896-1.668,3.598-4.178
			C52.004,73.681,49.869,73.801,48.126,73.923z"/>
		<g>
			<path fill-rule="evenodd" clip-rule="evenodd" fill="none" stroke="#000000" stroke-width="1.1606" stroke-linecap="round" d="
				M65.302,57.328c-1.846,0.979-3.809,1.708-5.803,2.321"/>
			<path fill-rule="evenodd" clip-rule="evenodd" fill="none" stroke="#000000" stroke-width="1.1816" stroke-linecap="round" d="
				M73.541,43.866c-1.772,1.546-4.503,1.09-6.267-0.232"/>
			<path fill-rule="evenodd" clip-rule="evenodd" fill="none" stroke="#000000" stroke-width="1.172" stroke-linecap="round" d="
				M40.467,59.765c-3.775-1.064-7.355-2.823-10.444-5.222"/>
		</g>
	</g>
</g>
</svg>
