<?xml version="1.0" encoding="utf-8"?>
<!-- Generator: Adobe Illustrator 14.0.0, SVG Export Plug-In . SVG Version: 6.00 Build 43363)  -->
<!DOCTYPE svg PUBLIC "-//W3C//DTD SVG 1.1//EN" "http://www.w3.org/Graphics/SVG/1.1/DTD/svg11.dtd">
<svg version="1.1" id="Ebene_1" xmlns="http://www.w3.org/2000/svg" xmlns:xlink="http://www.w3.org/1999/xlink" x="0px" y="0px"
	 width="100px" height="100px" viewBox="0 0 100 100" enable-background="new 0 0 100 100" xml:space="preserve">
<circle fill="#B2B2B2" cx="50" cy="50" r="50"/>
<g>
	<g>
		<path fill-rule="evenodd" clip-rule="evenodd" d="M25.597,73.922c-4.303,1.334-8.462,2.811-12.875,4.035
			c-1.599-8.302-3.174-16.855-4.74-25.428c-0.21-1.148-0.735-2.738-0.577-3.715c0.103-0.637,1.055-1.438,1.602-2.05
			c1.201-1.346,2.106-2.473,3.331-3.907c0.487-0.571,1.47-1.313,1.666-1.921c0.174-0.543,0.13-1.312,0.192-1.922
			c0.692-6.834,2.888-12.172,6.021-16.653c3.288-4.703,7.777-8.824,13.194-11.593c3.774-1.929,7.771-3.215,13.003-3.458
			C52.932,7.005,58.846,9,63.066,11.151c12.479,6.359,16.053,21.162,16.846,39.2c0.073,1.664-0.277,3.448,0,5.06
			c0.15,0.873,0.841,1.743,1.346,2.434c0.558,0.764,1.265,1.396,2.049,1.666c1.237,0.426,3.024-0.101,3.651-0.641
			c1.773-1.528,4.018-3.519,3.907-7.046c-0.084-2.685-1.071-4.275-1.985-6.277c-0.186-0.405-0.484-1.55,0.448-1.729
			c0.806-0.155,1.411,1.233,1.857,1.985c1.459,2.46,2.682,5.27,3.074,8.647c0.602,5.165-1.144,9.451-3.01,12.362
			c-4.203,6.555-10.137,10.586-16.59,14.731c-7.617,2.485-17.521,5.098-27.927,3.459C37.491,83.548,30.81,79.221,25.597,73.922z
			 M90.545,57.845c-1.544,2.007-4.97,4.791-8.327,3.139c-1.354-0.666-2.274-1.941-3.01-3.267c-0.364-0.655-0.901-1.414-0.961-2.05
			c-0.136-1.439,0.066-2.892,0-4.291c-0.069-1.457-0.043-2.91-0.128-4.292c-0.858-13.99-3.956-25.806-12.298-32.154
			c-4.212-3.205-10.133-5.296-17.102-5.893c-1.017-0.087-2.024-0.103-3.075,0c-0.106,0.011-0.044,0.139-0.192,0.128
			c-2.156-0.155-4.875,0.628-6.854,1.345c-4.224,1.531-7.548,3.443-10.569,5.893c-1.541,1.25-2.846,2.665-4.163,4.099
			c-5.236,5.704-8.753,13.915-8.135,24.596c5.112-2.024,10.587-4.216,15.885-6.213c0.706-0.266,1.717-0.941,2.434-0.769
			c0.765,0.184,0.76,1.847,0.897,2.754c0.498,3.312,1.036,6.458,1.473,9.607c6.389-1.231,12.122,1.054,16.013,3.395
			c0.528,0.318,1.468,0.712,1.28,1.602c-0.224,1.064-1.349,0.447-1.985,0.063c-2.886-1.739-5.961-3.016-9.864-3.587
			c-2.935-0.43-5.58,0.37-7.878,1.089c2.022,6.225,6.688,10.496,12.811,12.49c0.581,0.189,1.462,0.438,2.242,0.641
			c1.114,0.288,2.605,0.029,2.562,1.217c-0.055,1.511-2.451,0.565-3.523,0.32c-3.709-0.849-6.683-2.356-9.095-4.355
			c-0.22-0.183-0.395-0.521-0.705-0.448c0.301,2.24,0.698,4.384,0.961,6.661c-3.881,1.243-7.748,2.501-11.658,3.715
			c3.763,4.09,8.874,7.125,14.924,9.031c1.095,0.346,2.467,0.624,3.779,0.833c1.313,0.21,2.774,0.441,4.1,0.513
			c8.385,0.448,15.744-1.322,21.97-3.267c2.213-0.691,3.417-1.607,5.188-2.818c3.385-2.313,6.67-4.896,9.288-7.814
			c3.361-3.746,7.063-9.2,5.572-16.461C92.175,55.155,91.519,56.58,90.545,57.845z M33.219,40.231
			c-0.014-0.05-0.054-0.075-0.128-0.064c-7.935,3.189-16.021,6.226-23.956,9.416c1.575,8.758,3.194,17.473,4.804,26.197
			c7.819-2.535,15.748-4.962,23.507-7.558c-0.325-1.92-0.613-3.809-0.897-5.637c-0.102-0.658-0.033-1.466-0.256-1.985
			c-0.146-0.343-0.616-0.767-0.896-1.153c-0.908-1.252-1.601-2.685-2.306-3.971c-0.469,0.33-1.133,0.512-1.729,0.704
			c-1.435,0.462-2.928,0.847-4.42,0.576c-0.165-0.176-0.438-0.245-0.704-0.32c-0.153,0.573-0.216,1.236-0.641,1.538
			c-0.279-0.191-0.559-0.381-0.769-0.641c-0.035,0.396,0.198,0.527,0.128,0.961c-0.499,0.013-0.738,0.286-1.281,0.256
			c-0.404-1.582-0.734-3.236-1.217-4.74c-0.015,0.284-0.046,0.552-0.32,0.577c-0.189-0.401-0.731-0.826-0.769-1.409
			c-0.019-0.286,0.199-0.713,0.256-1.089c0.22-1.443,0.145-3.046,0-4.356c0.429-0.126,0.749-0.362,1.281-0.384
			c0.146,0.046-0.059,0.443,0.192,0.384c0.678-0.111,1.119-0.461,1.857-0.512c0.1,0.626,0.384,1.067,0.32,1.857
			c0.702-0.152,1.256-0.452,1.985-0.577c0.035-0.248-0.114-0.313-0.064-0.576c-0.656,0.027-1,0.366-1.601,0.448
			c-0.119-0.33-0.193-0.704-0.256-1.089c0.442-0.241,1.047-0.319,1.537-0.512c-0.029-0.227-0.142-0.37-0.128-0.641
			c0.409-0.167,0.876-0.277,1.345-0.384c0.198,0.101,0.055,0.542,0.32,0.576c0.568-0.221,1.122-0.458,1.857-0.512
			c0.14,0.521,0.272,1.051,0.384,1.601c0.235,0.021,0.439-0.183,0.576-0.064c0.094,0.375,0.225,0.715,0.256,1.153
			c-0.156,0.057-0.278,0.149-0.512,0.128c0.114,0.59,0.324,1.085,0.384,1.729c-0.595,0.281-1.481,0.27-1.922,0.705
			c0.095,0.118,0.123,0.305,0.128,0.513c0.643-0.254,1.321-0.473,2.114-0.576c0.116,0.311,0.208,0.646,0.256,1.024
			c-0.627,0.27-1.322,0.471-2.049,0.641c0.054,0.181,0.074,0.396,0.128,0.576c0.848-0.069,1.359-0.477,2.178-0.576
			c0.284-1.104,1.571-1.205,2.626-1.537C34.311,47.338,33.78,43.769,33.219,40.231z M11.249,46.828
			c0.921-0.381,1.852-0.753,2.818-1.089c-0.199-0.549,0.122-1.616-0.192-2.05C13.067,44.803,12.032,45.69,11.249,46.828z
			 M28.607,47.212c-0.027,0.263,0.06,0.411,0.128,0.577c0.316,0.038,0.389-0.167,0.705-0.128c0.005-0.283-0.004-0.551-0.192-0.641
			C29.096,47.147,28.843,47.171,28.607,47.212z M23.163,48.942c-0.136,1.972,0.335,3.337,0.769,4.74
			c0.225-0.224,0.23-0.666,0.577-0.769c0.381,0.217,0.456,0.74,0.833,0.961c-0.007-0.612-0.09-1.148-0.192-1.665
			c-0.415,0.098-0.796,0.229-1.217,0.32c-0.641-1.147,0.026-2.528,0.192-3.779C23.714,48.725,23.537,48.932,23.163,48.942z
			 M29.055,49.07c0.036,0.2,0.052,0.417,0.128,0.577c0.24-0.059,0.453-0.145,0.705-0.192c0.044-0.257-0.062-0.365-0.064-0.576
			C29.509,48.883,29.309,49.003,29.055,49.07z M24.892,50.863c0.493,0.045,0.638-0.258,1.089-0.256
			c0.356,1.309,0.624,2.707,0.512,4.483c0.195-0.003,0.249,0.136,0.384,0.192c-0.083-0.365-0.18-0.717-0.256-1.089
			c0.535-0.362,1.374-0.419,1.985-0.705c-0.101-0.112-0.085-0.341-0.128-0.512c-0.607,0.076-1.135,0.231-1.602,0.448
			c-0.149-0.32-0.24-0.699-0.32-1.089c0.496-0.23,1.054-0.398,1.602-0.577c-0.016-0.218-0.162-0.308-0.128-0.576
			c-0.521,0.119-0.936,0.346-1.473,0.448c-0.11-0.337-0.217-0.679-0.256-1.089c0.402-0.217,0.979-0.258,1.409-0.448
			c-0.026-0.23-0.017-0.496-0.192-0.576c-0.661,0.215-1.351,0.399-1.985,0.64c-0.195-0.232-0.166-0.688-0.32-0.96
			C25.088,49.735,25.063,50.372,24.892,50.863z M32.45,53.682c-0.79,0.129-1.37,0.467-2.114,0.641
			c0.045,0.211,0.103,0.409,0.128,0.641c0.825-0.157,1.533-0.432,2.242-0.705C32.542,54.145,32.563,53.847,32.45,53.682z
			 M24.636,56.885c0.343-0.256,0.362-0.834,0.513-1.281c-0.346-0.444-0.718-0.862-1.089-1.281
			C24.204,55.225,24.518,55.956,24.636,56.885z M28.799,54.771c-0.528,0.283-1.394,0.229-1.793,0.641
			c0.587,0.142,1.479,0.203,2.049,0C28.983,55.185,29.016,54.854,28.799,54.771z"/>
		<path fill-rule="evenodd" clip-rule="evenodd" d="M33.539,25.691c1.331,1.211,2.34,2.624,2.498,4.676
			c0.319,4.146-3.575,8.327-8.007,6.341c-2.087-0.936-3.788-3.466-3.586-6.277c0.199-2.787,2.178-5.489,5.316-5.765
			C31.456,24.517,32.439,25.118,33.539,25.691z M26.301,30.495c-0.248,2.875,2.475,5.782,5.572,4.292
			c1.813-0.873,2.918-3.518,1.986-5.701c-0.646-1.511-2.119-2.565-4.164-2.306C27.746,27.027,26.479,28.424,26.301,30.495z"/>
		<path fill-rule="evenodd" clip-rule="evenodd" d="M43.595,30.495c3.681,0.038,7.22,0.795,8.583,3.139
			c1.6,2.751-1.105,5.076-2.946,5.829c-2.606,1.065-6.775,1.105-9.479,0c-1.747-0.714-3.888-2.299-3.331-4.868
			c0.378-1.744,2.327-2.934,4.035-3.523C41.434,30.735,42.698,30.781,43.595,30.495z"/>
		<path fill-rule="evenodd" clip-rule="evenodd" d="M21.689,38.629c0.553-0.223,1.429,0.363,1.537,1.025
			c0.303,1.854-2.182,1.067-1.985-0.384C21.273,39.035,21.425,38.736,21.689,38.629z"/>
		<path fill-rule="evenodd" clip-rule="evenodd" d="M19.063,48.558c0.366,0.528,0.532,1.349,0.705,2.05
			c0.175,0.711,0.337,1.498,0.448,2.241c-0.814,0.211-1.547,0.504-2.37,0.705c-0.003,0.302,0.113,0.485,0.128,0.769
			c1.049-0.168,1.761-0.673,2.882-0.769c0.124,0.396,0.333,0.876,0.256,1.281c-0.733,0.142-1.405,0.346-2.049,0.576
			c0.789,0.812,1.875,1.328,3.01,1.794c-0.025,0.529-0.121,0.989-0.256,1.408c-1.374-0.313-2.159-1.214-3.203-1.857
			c0.206,1.076,0.576,1.987,0.705,3.139c-0.416,0.183-0.817,0.378-1.345,0.448c-0.363-0.961-0.538-2.109-0.833-3.138
			c-0.532,1.196-1.046,2.412-1.793,3.395c-0.466-0.217-0.67-0.696-1.025-1.025c0.653-1.055,1.373-2.043,1.858-3.267
			c-0.808,0.09-1.308,0.485-2.114,0.577c-0.186-0.327-0.247-0.778-0.32-1.218c0.891-0.305,1.769-0.622,2.754-0.832
			c0.057-0.356-0.123-0.475-0.128-0.769c-0.744,0.237-1.657,0.307-2.242,0.704c-0.608-1.188-0.928-2.996-1.153-4.355
			C15.027,49.817,17.05,49.192,19.063,48.558z M14.708,51.376c0.015,0.413,0.236,1.173,0.384,1.665
			c1.156-0.338,2.375-0.613,3.395-1.089c0.045-0.451-0.289-1.076-0.32-1.665C16.98,50.617,15.765,50.917,14.708,51.376z"/>
		<path fill-rule="evenodd" clip-rule="evenodd" d="M12.594,50.607c0.231,1.212-0.109,2.363,0,3.395
			c0.136,1.286,0.655,2.504,0.96,3.715c0.309,1.224,0.608,2.453,0.833,3.779c-0.473,0.082-0.833,0.277-1.345,0.32
			c-0.424-1.604-0.819-3.237-1.217-4.868c-0.206,0.199-0.111,0.7-0.384,0.833c-0.558-0.211-0.575-0.962-0.896-1.409
			c0.642-1.515,0.622-3.691,0.705-5.765C11.764,50.643,12.072,50.431,12.594,50.607z"/>
		<path fill-rule="evenodd" clip-rule="evenodd" d="M33.603,57.653c0.127,0.364,0.244,0.737,0.256,1.217
			c-0.502,0.224-1.157,0.295-1.666,0.513c0.03,0.297,0.457,0.342,0.705,0.512c0.492,0.339,1.006,0.784,1.409,1.153
			c-0.122,0.326-0.355,0.541-0.641,0.704c0.42,1.993,1.145,3.682,1.281,5.957c-0.588,0.821-1.913,0.906-3.011,1.217
			c-0.164-0.327-0.252-0.729-0.32-1.152c0.565-0.204,1.135-0.402,1.729-0.577c0.05-0.284-0.085-0.384-0.064-0.64
			c-1.69,0.486-3.275,1.08-5.06,1.473c-0.047,0.579,0.306,1.26,0.384,1.922c-0.428,0.212-0.847,0.434-1.473,0.448
			c-0.468-2.073-1.064-4.018-1.473-6.149c2.363-0.86,4.95-1.498,7.366-2.306c0.081-0.253-0.559-0.336-0.64-0.641
			c-2.365,1.009-4.742,2.005-7.43,2.69c-0.076-0.372-0.266-0.631-0.256-1.089c0.615-0.154,1.051-0.486,1.729-0.576
			c0.119-0.415,0.229-0.839,0.32-1.281c-1.016,0.116-1.641,0.623-2.69,0.704c-0.112-0.295-0.32-0.831-0.256-1.089
			c1.177-0.659,2.845-0.826,4.099-1.409c-0.033-0.308-0.136-0.546-0.192-0.832c0.43-0.168,0.94-0.256,1.345-0.448
			c0.309,0.118,0.216,0.638,0.384,0.896C30.786,58.423,32.111,57.955,33.603,57.653z M28.223,60.6
			c0.06,0.445-0.313,0.795-0.128,1.152c0.962-0.488,2.181-0.723,3.074-1.28C30.378,59.599,29.27,60.345,28.223,60.6z M27.39,64.955
			c0.045,0.21,0.03,0.481,0.256,0.512c1.574-0.582,3.314-0.998,4.932-1.537c-0.026-0.251-0.025-0.53-0.256-0.576
			C30.814,64.023,28.956,64.343,27.39,64.955z M32.898,65.019c-1.733,0.509-3.516,0.968-5.124,1.602
			c0.116,0.076,0.05,0.334,0.128,0.448c1.73-0.447,3.282-1.074,5.06-1.473C33.007,65.338,32.901,65.229,32.898,65.019z"/>
		<path fill-rule="evenodd" clip-rule="evenodd" d="M19.512,61.176c0.315,0.453,0.381,1.156,0.512,1.793
			c1.124-0.199,1.946-0.701,3.139-0.832c0.123,0.415,0.355,0.902,0.256,1.345c-0.803,0.158-1.57,0.352-2.242,0.641
			c0.824,1.461,2.37,2.754,3.715,3.907c-0.097,0.565-0.212,1.111-0.384,1.602c-0.521-0.163-0.772-0.595-1.153-0.896
			c0.023,0.318,0.18,0.504,0.192,0.832c-0.564,0.184-1.197,0.298-1.729,0.513c0.167,0.623,0.346,1.233,0.448,1.922
			c-0.45,0.146-0.81,0.386-1.409,0.384c-0.11-0.658-0.299-1.238-0.449-1.857c-0.694,0.075-1.114,0.423-1.793,0.513
			c-0.092-0.207-0.123-0.476-0.192-0.705c-0.229,0.39-0.333,0.906-0.513,1.346c-0.545,0.055-0.568-0.414-0.96-0.513
			c0.077,0.777,0.497,1.553,0.448,2.242c-0.221,0.333-0.824,0.286-1.217,0.448c-0.5-1.593-0.86-3.325-1.281-4.996
			c-0.238,0.253-0.152,0.83-0.448,1.024c-1.553-1.062-0.362-2.843-0.256-5.124c0.039-0.834-0.146-1.458,0.064-2.113
			c0.482,0.034,0.784-0.114,1.281-0.064c0.099,0.521,0.006,1.232,0.128,1.729c1.009-0.251,1.883-0.636,2.946-0.833
			c-0.032-0.736-0.343-1.194-0.384-1.921C18.602,61.418,19.125,61.089,19.512,61.176z M16.821,70.399
			c0.632-1.653,1.274-3.295,1.474-5.381c-0.941,0.084-1.499,0.552-2.434,0.641c-0.057-0.349-0.118-0.693-0.256-0.961
			C15.637,66.972,16.31,68.604,16.821,70.399z M21.562,68.862c0.329-0.29,0.912-0.327,1.409-0.448
			c-0.744-0.857-1.466-1.736-2.178-2.627C21.011,66.85,21.253,67.889,21.562,68.862z M18.615,69.694
			c0.562-0.078,0.927-0.354,1.473-0.448c-0.25-1.009-0.47-2.049-0.769-3.01C19.124,67.429,18.886,68.578,18.615,69.694z"/>
		<g>
		</g>
	</g>
</g>
</svg>
