<?xml version="1.0" encoding="utf-8"?>
<!-- Generator: Adobe Illustrator 14.0.0, SVG Export Plug-In . SVG Version: 6.00 Build 43363)  -->
<!DOCTYPE svg PUBLIC "-//W3C//DTD SVG 1.1//EN" "http://www.w3.org/Graphics/SVG/1.1/DTD/svg11.dtd">
<svg version="1.1" id="Ebene_1" xmlns="http://www.w3.org/2000/svg" xmlns:xlink="http://www.w3.org/1999/xlink" x="0px" y="0px"
	 width="100px" height="100px" viewBox="0 0 100 100" enable-background="new 0 0 100 100" xml:space="preserve">
<circle fill="#B2B2B2" cx="50" cy="50" r="50"/>
<g>
	<g>
		<path fill-rule="evenodd" clip-rule="evenodd" d="M63.963,80.984c-0.45,0.601-1.352,0.75-1.455,1.697c-14.266,0-28.53,0-42.795,0
			c-0.509-8.544-1.583-16.521-2.667-24.489c-1.782-0.371-3.745,0.773-5.698,0.364c-0.893-0.188-1.697-1.484-2.303-2.183
			c-0.655-0.755-1.893-1.697-1.94-2.425c-0.061-0.952,2.563-3.875,3.152-4.606c6.969-8.662,14.313-16.149,22.913-23.277
			c1.576-1.306,2.931-3.001,4.243-3.395c1.853-0.555,4.664-0.325,7.032-0.485c7.589-0.512,15.954-0.956,23.397-1.333
			c4.811,5.607,10.044,11.042,15.033,16.609c1.624,1.813,3.345,3.574,4.606,5.577c-1.192,0.545-2.349,1.127-3.637,1.576
			c0.232,7.688,0.916,14.925,1.576,22.185c-0.374,0.233-0.609,0.604-1.213,0.606l-0.465-0.384l-0.384-0.465
			c0.182-0.142,0.297-0.351,0.606-0.363c-0.807-6.63-1.04-13.831-1.455-20.853c-0.08,0-0.161,0-0.242,0
			c-6.468,3.11-13.534,5.621-19.64,9.093c-0.24,8.432-0.104,17.24,0,25.701c0.029,0.313,0.209-0.167,0.485,0l0.363,0.484
			L63.963,80.984z M56.446,52.494C49.826,45.185,43,37.117,36.685,30.309c-6.458,7.08-12.991,14.084-19.276,21.337
			c1.663,9.49,2.745,19.562,3.637,29.822c13.417,0,26.833,0,40.249,0c0-8.81,0-17.618,0-26.428
			C59.083,56.489,57.758,53.942,56.446,52.494z"/>
		<path fill-rule="evenodd" clip-rule="evenodd" d="M76.449,51.404c1.139-0.486,2.371-1.5,3.88-1.213
			c0.731,3.714,0.557,8.334,0.849,12.486c-4.591,2.118-9.904,4.159-14.791,5.577c-0.94-0.848-0.615-2.451-0.727-3.758
			c-0.233-2.719-0.786-5.63-0.728-8.123c2.719-1.807,6.246-2.806,9.456-4.122v0.606l0.363,0.485
			c-0.491,0.438-1.304,0.554-1.939,0.849c0.079,1.376,0.458,2.45,0.485,3.879c2.119-0.79,4.328-1.49,6.183-2.546
			c-0.345-1.109,0.118-3.027-0.485-3.879c-0.651,0.358-1.385,0.635-2.182,0.848v-0.605L76.449,51.404z M71.236,54.798
			c-1.556,0.789-3.237,1.45-4.971,2.062c0.157,1.257,0.174,2.654,0.364,3.879c1.921-0.584,3.546-1.464,5.455-2.061
			C71.868,57.318,71.97,55.641,71.236,54.798z M79.237,57.102c-1.79,0.877-3.737,1.596-5.697,2.304
			c0.533,1.284,0.5,3.137,0.849,4.606c1.865-0.56,3.542-1.308,5.334-1.939C79.554,60.423,79.883,58.275,79.237,57.102z
			 M72.085,60.011c-1.759,0.707-3.431,1.5-5.334,2.062c0.119,1.618,0.1,3.375,0.484,4.728c1.913-0.754,3.827-1.507,5.819-2.182
			C72.6,63.215,72.864,61.091,72.085,60.011z"/>
		<path fill-rule="evenodd" clip-rule="evenodd" d="M53.779,58.678c2.189-0.234,6.825,0.108,6.546,3.03
			c-0.176,1.847-2.84,2.611-5.213,2.667c-2.151,0.051-5.682-0.821-5.698-2.909C49.4,59.642,51.411,58.931,53.779,58.678z"/>
		<path fill-rule="evenodd" clip-rule="evenodd" d="M37.534,61.83c0.417,0.957,0.617,2.475,0.243,3.272
			C35.837,65.501,35.378,61.064,37.534,61.83z"/>
		<g>
			<path fill-rule="evenodd" clip-rule="evenodd" fill="none" stroke="#000000" stroke-width="1.2174" stroke-linecap="round" d="
				M63.478,80.62c6.303-5.12,13.272-9.435,20.266-13.598"/>
			<path fill-rule="evenodd" clip-rule="evenodd" fill="none" stroke="#000000" stroke-width="1.2116" stroke-linecap="round" d="
				M74.389,52.858c0.81-0.324,1.604-0.667,2.425-0.97"/>
			<path fill-rule="evenodd" clip-rule="evenodd" fill="none" stroke="#000000" stroke-width="1.1198" stroke-linecap="round" d="
				M44.99,58.011c1.763,1.975,4.809,1.589,5.913-0.506c2.406-4.57-6.709-6.596-6.64-1.331C44.271,56.826,44.552,57.307,44.99,58.011
				"/>
			<path fill-rule="evenodd" clip-rule="evenodd" fill="none" stroke="#000000" stroke-width="1.1484" stroke-linecap="round" d="
				M23.41,58.799c0.927,1.714,4.087,1.911,5.416,0.257c2.756-3.432-2.762-6.835-5.253-3.816
				C22.994,55.94,22.381,57.166,23.41,58.799"/>
		</g>
	</g>
</g>
</svg>
