<?xml version="1.0" encoding="utf-8"?>
<!-- Generator: Adobe Illustrator 14.0.0, SVG Export Plug-In . SVG Version: 6.00 Build 43363)  -->
<!DOCTYPE svg PUBLIC "-//W3C//DTD SVG 1.1//EN" "http://www.w3.org/Graphics/SVG/1.1/DTD/svg11.dtd">
<svg version="1.1" id="Ebene_1" xmlns="http://www.w3.org/2000/svg" xmlns:xlink="http://www.w3.org/1999/xlink" x="0px" y="0px"
	 width="100px" height="100px" viewBox="0 0 100 100" enable-background="new 0 0 100 100" xml:space="preserve">
<circle fill="#B2B2B2" cx="50" cy="50" r="50"/>
<g>
	<g>
		<g>
			<path fill-rule="evenodd" clip-rule="evenodd" d="M30.609,87.089c-0.731-0.388-0.93-1.308-1.678-1.679
				c-0.327,3.311-5.275,7.088-7.486,3.485c-1.82-2.966,0.362-8.072,4.259-7.357c1.103,0.202,1.628,1.189,2.582,1.808
				c1.18-2.004,2.227-4.141,5.808-3.743c0.4-3.085,0.423-6.547,1.033-9.422c-0.339-0.608-0.946-0.948-1.42-1.42
				c-3.972,2.427-9.845,1.111-9.938-3.743c-0.044-2.325,1.075-3.658,2.065-5.292c-3.215-6.528,0.205-14.013,5.292-16.392
				c-3.222-4.048-6.473-9.173-5.937-17.167c0.437-6.52,3.647-12.005,7.744-15.488c4.204-3.575,9.216-5.812,15.876-6.325
				c9.966-0.768,18.32,4.396,22.716,10.455c2.296,3.164,4.014,7.81,4.131,12.649c0.186,7.685-3.526,14.1-8.647,18.07
				c1.582,1.076,3.232,1.819,4.517,3.614c2.344,3.275,2.102,9.519,0,12.907c1.363,3.261,0.396,7.701-2.968,8.132
				c0.332,1.054,1.65,2.214,1.936,3.742c1.41-0.771,2.791-3.411,5.292-3.613c1.421-0.115,2.782,0.322,3.227,1.42
				c1.865,4.607-4.599,6.005-8.776,5.937c-0.723,0.827-1.045,2.053-1.549,3.098c3.752-1.565,9.3,1.665,7.356,5.809
				c-1.498,3.195-7.865,0.883-9.034-1.678c-0.011,0.204,0.062,0.492-0.13,0.516l-0.516-0.387h-0.646
				c-1.532,0.719-3.949,1.909-5.809,0.774c-1.121,2.923-1.997,6.091-2.969,9.164c-2.141,1.262-7.23,1.329-8.776-0.517
				c0.158-3.371,0.427-7.314,0.387-10.454c-0.245-0.487-1.07-0.393-1.807-0.388c0.091,3.144,0.86,7.392,0.387,11.101
				c-2.474,1.61-7.317,1.066-9.809-0.13c-1.214-2.486-2.104-5.296-2.582-8.519c-0.773,0.399-3.392-0.143-3.098,0.517l-0.474,0.344
				L30.609,87.089z M61.716,44.366c0.896,0.065,2.452,0.864,3.613,0.645c0.68-0.128,1.487-1.274,1.937-1.678
				c0.842-0.758,1.617-1.418,1.936-1.807c4.612-5.631,6.627-16.443,2.323-23.749C67.408,10.787,59.059,5.049,48.55,5.774
				c-6.729,0.464-13.127,3.87-16.908,8.519c-3.493,4.295-6.729,11.927-4.389,19.231c1.153,3.598,3.024,6.406,5.421,8.906
				c8.362-2.411,13.514,3.244,16.392,8.389C50.715,46.281,55.766,43.933,61.716,44.366z M37.45,46.818
				c-4.901-1.012-8.88,2.679-9.293,6.712c-0.117,1.14-0.057,2.768,0.903,2.71c1.448-0.086,0.396-3.552,1.291-4.518
				c1.365-1.818,3.463-3.957,6.712-3.227c1.115,0.251,2.161,2.127,3.227,0.774C39.872,47.817,38.561,47.048,37.45,46.818z
				 M41.193,51.465c-0.045,0.957,0.79,1.376,2.065,1.291C45.285,50.943,41.292,49.338,41.193,51.465z M25.446,64.372
				c-0.162,1.715,0.393,3.079,1.678,3.743c3.73,1.927,8.559-2.295,9.422-5.292c1.053-3.657-1.601-5.404-4.776-4.904
				C28.649,58.41,25.783,60.808,25.446,64.372z M60.941,60.887c-0.592,4.339,3.642,8.442,6.97,8.003
				c3.877-0.512,2.67-6.397,0.774-8.519c-1.219-1.364-3.43-2.407-5.034-2.194C61.975,58.399,61.121,59.563,60.941,60.887z
				 M38.483,93.413c1.911,0.76,4.965,1.074,7.228,0.387c0.04-4.127-0.116-8.058-0.903-11.357c0.52-0.169,1.041-0.337,1.807-0.259
				c-2.663-3.748-6.445-7.494-10.067-10.713C34.962,78.785,35.958,87.909,38.483,93.413z M50.099,83.087
				c0.012,3.712-0.216,7.185-0.387,10.713c1.41,0.673,3.956,0.623,5.679,0.259c2.275-6.115,4.521-12.947,4.776-20.651
				C56.732,76.556,53.322,79.728,50.099,83.087z M61.199,79.603c2.348-0.735,5.068-0.012,5.809,1.678
				c0.394-1.326,1.084-2.357,1.549-3.614c-3.279-0.076-4.833-1.879-6.841-3.227C61.737,76.354,61.29,77.8,61.199,79.603z"/>
			<path fill-rule="evenodd" clip-rule="evenodd" d="M32.804,90.444l0.387-0.517c0.676,0.819,0.994,4.306-0.387,4.002
				c-1.082-0.238-0.188-2.384-0.646-3.485H32.804z"/>
			<path fill-rule="evenodd" clip-rule="evenodd" d="M56.424,33.266c-0.657-0.668-1.058-2.164-0.774-3.356
				c1.474-0.987,1.259,1.565,1.678,2.452l-0.517,0.387L56.424,33.266z"/>
			<path fill-rule="evenodd" clip-rule="evenodd" d="M65.459,31.975c2.479-0.407,6.549,0.632,6.582,2.969
				c0.051,3.633-9.497,3.638-9.81,0.129C62.077,33.339,63.437,32.307,65.459,31.975z"/>
			<g>
				<path fill-rule="evenodd" clip-rule="evenodd" fill="none" stroke="#000000" stroke-width="1.2031" stroke-linecap="round" d="
					M64.555,94.123c0.307-3.092,1.03-6.096,1.808-9.1"/>
				<path fill-rule="evenodd" clip-rule="evenodd" fill="none" stroke="#000000" stroke-width="1.1507" stroke-linecap="round" d="
					M32.804,90.444c-0.375-1.242-0.897-2.449-1.635-3.528"/>
				<path fill-rule="evenodd" clip-rule="evenodd" fill="none" stroke="#000000" stroke-width="1.185" stroke-linecap="round" d="
					M43.474,29.867c-0.389,4.349-7.091,4.132-7.336-0.194"/>
				<path fill-rule="evenodd" clip-rule="evenodd" fill="none" stroke="#000000" stroke-width="1.1924" stroke-linecap="round" d="
					M61.521,30.534c0.477,2.565-3.249,4.846-4.711,2.215"/>
				<path fill-rule="evenodd" clip-rule="evenodd" fill="none" stroke="#000000" stroke-width="1.1976" stroke-linecap="round" d="
					M52.745,36.041c0.245,3.902-5.313,3.765-5.278,0"/>
			</g>
		</g>
	</g>
	<g>
		<g>
			<path fill="none" stroke="#000000" stroke-width="0.5" d="M30.609,87.089c-0.731-0.388-0.93-1.308-1.678-1.679
				c-0.327,3.311-5.275,7.088-7.486,3.485c-1.82-2.966,0.362-8.072,4.259-7.357c1.103,0.202,1.628,1.189,2.582,1.808
				c1.18-2.004,2.227-4.141,5.808-3.743c0.4-3.085,0.423-6.547,1.033-9.422c-0.339-0.608-0.946-0.948-1.42-1.42
				c-3.972,2.427-9.845,1.111-9.938-3.743c-0.044-2.325,1.075-3.658,2.065-5.292c-3.215-6.528,0.205-14.013,5.292-16.392
				c-3.222-4.048-6.473-9.173-5.937-17.167c0.437-6.52,3.647-12.005,7.744-15.488c4.204-3.575,9.216-5.812,15.876-6.325
				c9.966-0.768,18.32,4.396,22.716,10.455c2.296,3.164,4.014,7.81,4.131,12.649c0.186,7.685-3.526,14.1-8.647,18.07
				c1.582,1.076,3.232,1.819,4.517,3.614c2.344,3.275,2.102,9.519,0,12.907c1.363,3.261,0.396,7.701-2.968,8.132
				c0.332,1.054,1.65,2.214,1.936,3.742c1.41-0.771,2.791-3.411,5.292-3.613c1.421-0.115,2.782,0.322,3.227,1.42
				c1.865,4.607-4.599,6.005-8.776,5.937c-0.723,0.827-1.045,2.053-1.549,3.098c3.752-1.565,9.3,1.665,7.356,5.809
				c-1.498,3.195-7.865,0.883-9.034-1.678c-0.011,0.204,0.062,0.492-0.13,0.516l-0.516-0.387h-0.646
				c-1.532,0.719-3.949,1.909-5.809,0.774c-1.121,2.923-1.997,6.091-2.969,9.164c-2.141,1.262-7.23,1.329-8.776-0.517
				c0.158-3.371,0.427-7.314,0.387-10.454c-0.245-0.487-1.07-0.393-1.807-0.388c0.091,3.144,0.86,7.392,0.387,11.101
				c-2.474,1.61-7.317,1.066-9.809-0.13c-1.214-2.486-2.104-5.296-2.582-8.519c-0.773,0.399-3.392-0.143-3.098,0.517l-0.474,0.344
				L30.609,87.089z M61.716,44.366c0.896,0.065,2.452,0.864,3.613,0.645c0.68-0.128,1.487-1.274,1.937-1.678
				c0.842-0.758,1.617-1.418,1.936-1.807c4.612-5.631,6.627-16.443,2.323-23.749C67.408,10.787,59.059,5.049,48.55,5.774
				c-6.729,0.464-13.127,3.87-16.908,8.519c-3.493,4.295-6.729,11.927-4.389,19.231c1.153,3.598,3.024,6.406,5.421,8.906
				c8.362-2.411,13.514,3.244,16.392,8.389C50.715,46.281,55.766,43.933,61.716,44.366z M37.45,46.818
				c-4.901-1.012-8.88,2.679-9.293,6.712c-0.117,1.14-0.057,2.768,0.903,2.71c1.448-0.086,0.396-3.552,1.291-4.518
				c1.365-1.818,3.463-3.957,6.712-3.227c1.115,0.251,2.161,2.127,3.227,0.774C39.872,47.817,38.561,47.048,37.45,46.818z
				 M41.193,51.465c-0.045,0.957,0.79,1.376,2.065,1.291C45.285,50.943,41.292,49.338,41.193,51.465z M25.446,64.372
				c-0.162,1.715,0.393,3.079,1.678,3.743c3.73,1.927,8.559-2.295,9.422-5.292c1.053-3.657-1.601-5.404-4.776-4.904
				C28.649,58.41,25.783,60.808,25.446,64.372z M60.941,60.887c-0.592,4.339,3.642,8.442,6.97,8.003
				c3.877-0.512,2.67-6.397,0.774-8.519c-1.219-1.364-3.43-2.407-5.034-2.194C61.975,58.399,61.121,59.563,60.941,60.887z
				 M38.483,93.413c1.911,0.76,4.965,1.074,7.228,0.387c0.04-4.127-0.116-8.058-0.903-11.357c0.52-0.169,1.041-0.337,1.807-0.259
				c-2.663-3.748-6.445-7.494-10.067-10.713C34.962,78.785,35.958,87.909,38.483,93.413z M50.099,83.087
				c0.012,3.712-0.216,7.185-0.387,10.713c1.41,0.673,3.956,0.623,5.679,0.259c2.275-6.115,4.521-12.947,4.776-20.651
				C56.732,76.556,53.322,79.728,50.099,83.087z M61.199,79.603c2.348-0.735,5.068-0.012,5.809,1.678
				c0.394-1.326,1.084-2.357,1.549-3.614c-3.279-0.076-4.833-1.879-6.841-3.227C61.737,76.354,61.29,77.8,61.199,79.603z"/>
			<path fill="none" stroke="#000000" stroke-width="0.5" d="M32.804,90.444l0.387-0.517c0.676,0.819,0.994,4.306-0.387,4.002
				c-1.082-0.238-0.188-2.384-0.646-3.485H32.804z"/>
			<path fill="none" stroke="#000000" stroke-width="0.5" d="M56.424,33.266c-0.657-0.668-1.058-2.164-0.774-3.356
				c1.474-0.987,1.259,1.565,1.678,2.452l-0.517,0.387L56.424,33.266z"/>
			<path fill="none" stroke="#000000" stroke-width="0.5" d="M65.459,31.975c2.479-0.407,6.549,0.632,6.582,2.969
				c0.051,3.633-9.497,3.638-9.81,0.129C62.077,33.339,63.437,32.307,65.459,31.975z"/>
			<g>
				<path fill="none" stroke="#000000" stroke-width="0.5" d="M64.555,94.123c0.307-3.092,1.03-6.096,1.808-9.1"/>
				<path fill="none" stroke="#000000" stroke-width="0.5" d="M32.804,90.444c-0.375-1.242-0.897-2.449-1.635-3.528"/>
				<path fill="none" stroke="#000000" stroke-width="0.5" d="M43.474,29.867c-0.389,4.349-7.091,4.132-7.336-0.194"/>
				<path fill="none" stroke="#000000" stroke-width="0.5" d="M61.521,30.534c0.477,2.565-3.249,4.846-4.711,2.215"/>
				<path fill="none" stroke="#000000" stroke-width="0.5" d="M52.745,36.041c0.245,3.902-5.313,3.765-5.278,0"/>
			</g>
		</g>
	</g>
</g>
</svg>
