<?xml version="1.0" encoding="utf-8"?>
<!-- Generator: Adobe Illustrator 14.0.0, SVG Export Plug-In . SVG Version: 6.00 Build 43363)  -->
<!DOCTYPE svg PUBLIC "-//W3C//DTD SVG 1.1//EN" "http://www.w3.org/Graphics/SVG/1.1/DTD/svg11.dtd">
<svg version="1.1" id="Ebene_1" xmlns="http://www.w3.org/2000/svg" xmlns:xlink="http://www.w3.org/1999/xlink" x="0px" y="0px"
	 width="100px" height="100px" viewBox="0 0 100 100" enable-background="new 0 0 100 100" xml:space="preserve">
<circle fill="#B2B2B2" cx="50" cy="50" r="50"/>
<g>
	<g>
		<path fill-rule="evenodd" clip-rule="evenodd" d="M45.711,10.237c-0.089-0.415,0.19-0.46,0.488-0.488c1.952,0,3.903,0,5.854,0
			c8.104,1.328,14.736,4.126,20.488,7.805c3.05,2.967,5.778,6.255,8.781,9.269c4.987,8.071,7.812,19.053,6.342,32.196
			c-2.595,8.3-6.576,15.214-11.708,20.977c-3.794,3.198-8.486,5.497-12.684,8.293c-14.773,5.644-31.142-0.385-39.513-8.293
			c-6.588-7.56-11.817-16.477-12.196-30.245c0.257-8.849,3.078-15.134,5.854-21.464C23.956,19.378,32.254,12.228,45.711,10.237z
			 M49.126,16.579c-1.331-0.355-0.982,0.969-1.951,0.976c-0.961-1.019-0.373-3.239,0-4.391c-0.651,0-1.301,0-1.952,0
			c-0.908,1.272,1.105,3.747,0,5.366c1.837-0.439,4.408-0.146,5.854-0.976c-1.208-0.772-0.199-3.413,0-4.391
			c-0.65,0-1.301,0-1.951,0C49.767,14.678,48.994,14.557,49.126,16.579z M52.541,18.53c1.487,0.024,2.483-0.443,2.927-1.463
			c-1.379-0.403-1.264,0.688-2.439,0.488c-0.665-0.658-0.93-3.406,0.488-3.415c1.282-0.145,0.384,1.893,1.951,1.464
			C55.008,9.46,47.895,16.573,52.541,18.53z M38.394,15.604c-0.395-0.093-0.486-0.49-0.976-0.488
			c-0.079,0.571-0.889,0.411-1.463,0.488c0,0.325,0,0.65,0,0.976c-1.736-0.11-2.923,0.329-3.415,1.463
			c1.477,0.637,1.94,2.288,1.951,4.391c0.875,0.062,1.029-0.597,1.951-0.488c0.363-1.502-1.339-0.938-0.976-2.439
			c1.567,0.429,0.668-1.608,1.951-1.463c-0.403,1.379,0.688,1.264,0.488,2.439c0.813,0,1.626,0,2.439,0
			c1.309-1.551-0.535-4.364,0.488-5.366c0.598,0.925,1.209,3.124,0.488,3.902c1.296-0.005,2.786,0.185,3.415-0.488
			c0.383-2.009-0.749-2.503-0.488-4.391C41.798,14.129,39.178,13.949,38.394,15.604z M60.834,19.506c0,0.488,0,0.976,0,1.463
			c0.772-0.041,1.86,0.235,1.951-0.488c-1.04-0.159,0.078-2.128,0.487-2.439c-0.107,1.571,0.863,2.064,0.488,3.903
			c1.161,0.016,2.327,2.499,3.415,0.976c-0.699-0.574,1.344-2.53,1.951-3.415c0.292,2.406-1.269,2.96-0.976,5.366
			c2.207-0.069,2.382-2.171,4.878-1.951c-0.811,0.978-1.31,2.267-2.927,2.439c1.255,1.632,2.656,5.305,4.391,4.878
			c-0.486,2.438,1.515,2.388,1.463,4.39c0.813,0,1.626,0,2.439,0c-0.079,0.572-0.89,0.412-1.464,0.488
			c-0.062,0.875,0.598,1.029,0.488,1.951c1.627,0.001,1.665-1.587,3.414-1.463c-0.603,1.579,1.579,0.373,0.976,1.951
			c-1.303,0.323-3.048,0.205-3.902,0.976c0.662,0.151,0.405,1.221,0.488,1.951c1.861-0.252,2.865-1.362,4.391-1.951
			c-0.434,1.423-0.623,1.683,0.487,2.439c-1.168,0.621-1.796,1.781-3.902,1.463c0,0.65,0,1.301,0,1.951
			c1.837-0.969,3.946-0.315,5.366,0.488c0.413-2.711-1.321-0.996-1.951-1.951c3.349-1.162-0.363-4.632,0-7.317
			c-0.651,0-1.302,0-1.952,0c0.014-0.474,0.598-0.378,0.976-0.488c-0.066-0.909-0.32-1.63-0.976-1.951
			c-0.337,0.963-1.301,1.3-2.438,1.463c0.962-0.338-0.12-2.722,0.976-2.927c-0.166,0.979,0.1,1.526,0.976,1.463
			c1.162-1.306-0.389-2.856-2.439-2.439c-1.109,0.354,0.449,3.376-1.463,2.927c-0.467-0.909,1.461-1.63,0-1.951
			c-0.121,0.613-0.971,0.492-0.976,0c0.139-1.487,1.855-1.396,2.438-2.439c0.56-2.022-1.026-1.9-0.976-3.415
			c-1.584,0.367-2.045,1.858-3.415,2.439c0.47-1.77-2.191-0.41-1.951-1.951c1.104-1.265,1.068,1.533,2.439,0
			c0.269-1.082-0.932-0.694-0.976-1.463c0.395-0.093,0.486-0.489,0.976-0.488c1.324-0.349-0.349,2.3,0.976,1.951
			c1.613-2.351-1.859-3.163-2.439-4.878c-1.43-0.561-1.812,2.34-2.438,0.976c2.237-1.893-0.735-4.02-2.927-4.391
			c0-0.163,0-0.325,0-0.488c-0.393-0.258-0.792-0.509-1.464-0.488c-0.728,0.146,0.527,2.052-0.976,2.439
			c0.402-3.167-1.184-4.345-3.902-4.39c-0.001,1.788,0.189,3.767-1.952,3.415c0.389-1.401,0.988-2.59,1.464-3.902
			c-0.875,0.062-1.029-0.597-1.951-0.488c0.132,2.655-1.663,3.643,0,5.366C59.208,19.506,60.021,19.506,60.834,19.506z
			 M26.198,25.848c-0.875,0.062-1.029-0.597-1.951-0.488c-0.722,0.254-1.229,0.722-1.952,0.976
			c-0.213,1.677,0.193,2.734,0.488,3.903c-1.567,0.429-0.668-1.608-1.951-1.464c-1.343,1.401,0.277,2.59,0.488,3.903
			c-1.131,0.156-1.873-0.079-2.439-0.488c0.062,0.875-0.597,1.029-0.488,1.951c1.112-0.136,1.833,0.118,1.951,0.976
			c-4.547-1.156-3.919,4.639-1.463,5.366c-0.629,0.672-2.119,0.483-3.415,0.488c0.813,2.115,3.041,2.813,4.878,3.902
			c0-0.325,0-0.65,0-0.976c0.426-2.104-2.13,0.929-1.463-1.951c0.875-0.062,1.029,0.597,1.951,0.488
			c-0.486-2.762,1.632-2.921,0.976-5.854c1.287,0.148,1.258-1.018,1.464-1.951c0.474-0.013,0.378-0.597,0.488-0.976
			c1.332-1.92,3.368-3.136,3.415-6.342c0.722,0.565,1.229,0.565,1.951,0c0.269-1.082-0.932-0.694-0.976-1.463
			c1.02-0.207,1.292,0.334,1.951,0.488c0.412-1.54,2.515-1.388,2.927-2.927c-2.231-0.208-2.236-2.642-3.415-3.903
			c0.429,1.567-1.608,0.668-1.463,1.951c1.905,0.046,1.931,1.972,2.927,2.927c-0.395,0.093-0.486,0.489-0.976,0.488
			c-1.302-0.324-1.786-1.466-2.439-2.439c-1.475,0.313-2.815,0.762-2.927,2.439C25.569,24.851,25.998,25.234,26.198,25.848z
			 M60.834,37.067c-0.488,0-0.976,0-1.464,0c-2.94,0.014-5.022-0.832-8.293-0.488c-2.418,1.159-7.406-0.251-7.805,2.927
			c0.436,2.705,3.156,0.682,5.366,0.976c2.439,0,4.878,0,7.317,0c8.676,1.081,14.769,4.744,21.465,7.805
			c-0.132-7.511-8.697-6.588-12.684-10.245c4.439,0.764,7.298,3.109,11.22,4.391c-0.889-2.851-0.878-6.603-3.902-7.317
			c1.505-1.563-1.146-1.72-0.976-3.415c-1.502-0.363-0.938,1.339-2.439,0.976c0.144-0.995,1.32-0.957,1.464-1.951
			c-1.002-0.136-0.974-1.303-1.464-1.952c-2.61,0.316-2.777,3.077-4.878,3.903c-5.792-1.961-15.208-1.956-20.977,0
			c-1.745-2.809-2.898-6.208-5.366-8.293c-0.321,0.655-1.042,0.909-1.951,0.976c1.817,4.524,5.279,7.404,6.83,12.195
			C47.169,36.041,55.573,35.274,60.834,37.067z M61.321,48.288c0-0.163,0-0.325,0-0.488c-0.692,0.042-1.381,0.081-1.463-0.488
			c-2.959,0.781-3.818,3.662-6.342,4.878c-3.13,3.7-5.672,7.986-8.293,12.195c-1.054,2.361-1.618,5.211-2.927,7.317
			c-0.104,2.088-3.235,6.137,0.488,6.342c2.066-1.35,1.253-5.577,2.927-7.317c0.711-2.541,1.406-5.099,2.927-6.83
			c-1.087,4.804-4.529,9.731-3.415,15.123c0.976,0,1.952,0,2.927,0c0.827-2.101,0.224-5.63,1.463-7.317
			c-0.175,2.939,1.151,4.378,0.976,7.317c1.139,0,2.277,0,3.415,0c-0.454-5.074-2.003-9.055-1.463-15.123
			c3.731-6.513,8.949-11.538,15.122-15.61c2.89,1.989,6.142,3.615,9.269,5.366c1.699-2.92-0.995-4.132-1.951-5.854
			c-5.454-2.514-10.699-5.236-17.562-6.342c-2.439,0-4.878,0-7.317,0c-2.207,0.233-5.75-0.872-5.366,1.951
			c1.155,1.122,4.379,0.175,6.342,0.488c-2.224,1.842-3.918,4.212-6.342,5.854c-0.614-5.239-2.251-9.456-4.39-13.171
			c-0.494-2.433-2.008-3.846-2.927-5.854c-1.11-1.33-1.996-4.934-3.902-3.903c-0.411,4.368,4.275,7.717,4.878,12.684
			c1.578,3.955,4.08,9.575,3.415,14.146c-1.278-5.389-3.175-10.159-4.391-15.61c-2.392-2.649-2.715-7.367-5.854-9.269
			c-1.456,1.635-3.159,3.021-3.903,5.366c5.063,6.645,8.634,14.781,11.22,23.903c-2.657,4.336-5.036,8.949-6.342,14.635
			c1.264,0.524,1.813,1.764,3.415,1.951c4.138-12.285,9.659-23.188,19.025-30.245c2.72,1.184,6.877,0.929,8.781,2.927
			C62.259,46.949,62.823,48.651,61.321,48.288z M53.028,46.824c-0.117,0.696-0.803,0.823-0.976,1.463
			c-3.658,3.822-6.968,7.992-9.756,12.683c-0.983,2.757-2.308,5.173-3.415,7.806c0.056,2.929-3.505,7.473,0.976,7.805
			c2.459-9.086,6.255-16.835,11.22-23.415c2-2.065,4.744-3.386,5.854-6.342C55.63,46.824,54.329,46.824,53.028,46.824z
			 M16.93,47.312c-1.206,1.396-2.829,2.375-2.439,5.366c0.968,1.471,1.969,2.909,3.903,3.415
			C19.935,53.162,20.36,48.628,16.93,47.312z M82.786,56.58c3.819-2.114,2.266-7.697-0.977-9.268
			C80.035,49.798,79.521,55.396,82.786,56.58z M16.93,64.386c2.122-0.008,4.389-0.161,5.854,0.487
			c0.109-0.922-0.55-1.076-0.488-1.951c-1.276,0.512-1.66,1.333-2.927,0c0.862-0.428,1.424-1.546,2.439-0.487
			c-0.217-1.246-0.684-2.243-1.463-2.927C19.841,61.769,17.373,62.064,16.93,64.386z M79.371,59.995
			c0.27,0.869,0.25,2.026,0.976,2.439c0.449-1.33,1.525,0.682,2.927,0c0.665-0.621,0.754-2.39-0.487-2.439
			c-0.572,2.794-1.385-0.72-2.439-0.487C80.373,60.42,79.971,60.54,79.371,59.995z M78.883,63.897
			c0.156,1.633,2.786,0.792,2.927,2.439c0.112-0.758,1.876-2.276,0.488-2.927c-0.412,1.149-2.14-0.405-2.927-0.488
			C79.45,63.489,79.263,63.79,78.883,63.897c0-0.487,0-0.976,0-1.463C77.46,61.717,77.46,64.615,78.883,63.897z M22.295,66.337
			c-1.045-1.053-2.726-0.25-3.415,0.488c-0.368,1.858,1.048,4.442,2.439,2.927c0.788,0.138,0.84-0.461,1.463-0.488
			c0,0.488,0,0.976,0,1.464c-1.331-0.044-0.982,0.813-1.951,0c-0.127,1.59,0.579,2.348,1.951,2.438
			c-0.166-0.979,0.1-1.525,0.976-1.463c0.499,0.477,0.987,0.964,1.463,1.463c-0.118,0.858-0.839,1.112-1.951,0.977
			c0.033,1.43,1.115,1.812,1.951,2.438c-0.513-2.14,1.65-1.603,1.463-3.415c0.325,0,0.65,0,0.976,0c0-0.487,0-0.976,0-1.463
			c-0.325,0-0.65,0-0.976,0c0,0.487,0,0.976,0,1.463c-1.473-1.128-2.148-3.055-3.903-3.902c0-0.813,0-1.626,0-2.438
			c0.393,0.258,0.792,0.509,1.464,0.487c-0.06-1.241-0.71-1.892-1.952-1.951C22.295,65.687,22.295,66.012,22.295,66.337z
			 M75.469,66.337c-0.385,3.148,3.003,2.525,4.39,3.902c0.195-1.268,1.456-1.471,1.464-2.927c-0.254-0.722-0.722-1.229-0.976-1.951
			C77.39,64.98,78.112,67.525,75.469,66.337z M74.98,70.239c0.062,0.875-0.597,1.029-0.487,1.951
			c0.854,0.924,1.694-0.851,1.463,1.464c2.135,0.184,2.346-1.558,2.927-2.927C77.162,70.468,76.702,69.297,74.98,70.239
			c0.093-0.395,0.489-0.486,0.488-0.976c-0.837-0.881-1.919,0.149-1.952,1.464C74.305,70.865,74.356,70.267,74.98,70.239z
			 M71.565,75.605c-2.325-0.374-2.239,1.663-2.927,2.927c-1.454-0.7-2.973,1.713-2.927-0.487c-1.498,0.615-3.488,0.739-3.902,2.438
			c0.487,0,0.976,0,1.463,0c-0.172,0.642-0.858,0.768-0.976,1.464c1.451-0.104,1.721,1.739,0.976,2.439
			c1.379,0.403,1.264-0.688,2.439-0.488c-0.708-1.243-1.303-2.601-2.439-3.415c0.213-0.6,0.625-1.001,1.464-0.976
			c0.743,1.208,1.001,2.901,2.439,3.415c0.73-1.058,2.44-1.137,2.438-2.927c0.65,0,1.301,0,1.951,0
			c0.223-0.689,2.964-2.618,0.488-2.927C72.191,76.281,71.593,76.229,71.565,75.605c1.572-1.428,1.698,1.547,2.439,2.439
			c-0.488-1.511,2.596-1.895,0.976-2.927c-0.988,1.274-1.134-1.592-0.487-2.439C72.916,73.053,71.94,74.028,71.565,75.605z
			 M31.564,77.069c2.116,0.129,0.207-1.894-0.488-1.951c-0.585,0.641-0.19,0.767,0,1.463c-0.488,0-0.976,0-1.463,0
			c-0.053-1.213-0.914-1.51,0-2.438c-1.501,0.341-0.938,0.341-2.439,0c-0.703,1.421-2.63,5.372,0.488,3.902
			c-1.322-0.441,0.411-1.796,0.976-1.951c0.498,0.641,0.479,1.798,0.976,2.438c-1.112-0.136-1.833,0.118-1.951,0.976
			c1.264,0.525,1.813,1.764,3.415,1.952c-0.521-1.823,1.211-1.391,0.976-2.928C31.794,78.141,31.543,77.74,31.564,77.069z
			 M32.54,80.972c-0.395-0.093-0.486-0.489-0.976-0.488c0,0.65,0,1.302,0,1.952c1.213-0.076,1.51,0.766,2.439,0.976
			c0.501-1.125,1.679-1.573,1.463-3.415c-1.501,0.363-0.938-1.339-2.439-0.976C32.649,79.454,32.503,80.122,32.54,80.972z
			 M58.882,81.46c1.486,0.269,1.959,3.163,1.464,3.902c1.21,0.071,2.367,0.091,2.439-0.976c-1.377-0.575-1.484-2.419-1.951-3.903
			C59.722,80.348,59,80.602,58.882,81.46z M50.102,85.85c-0.062,0.875,0.597,1.029,0.487,1.951c0.813,0,1.627,0,2.439,0
			c0.669-2.141,0.281-2.613,0-4.39c-1.938-0.313-2.633,0.619-3.415,1.463c-1.021-1.191-0.697-1.039-0.487-2.927
			c-1.21-0.071-2.368-0.091-2.439,0.976c0.692-0.042,1.382-0.08,1.464,0.488c-1.423-0.123-1.683,0.918-2.439,1.463
			c0.22,1.569,1.061,2.517,2.439,2.927C48.901,87.251,49.351,86.399,50.102,85.85z M42.784,86.338
			c1.577-0.374,2.553-1.351,2.927-2.927c-1.909-0.771-1.01,1.267-1.951,1.463c-0.813-0.969,0.044-0.62,0-1.951
			c-0.709,0.267-2.521-0.57-2.439,0.488C42.1,84.095,42.567,85.092,42.784,86.338z"/>
		<path fill-rule="evenodd" clip-rule="evenodd" d="M42.296,15.116C42.861,13.188,42.861,17.043,42.296,15.116L42.296,15.116z"/>
		<path fill-rule="evenodd" clip-rule="evenodd" d="M38.394,15.604c1.51-0.333,2.032,2.795,0.976,3.415
			C38.634,18.229,37.384,16.671,38.394,15.604z"/>
		<path fill-rule="evenodd" clip-rule="evenodd" d="M60.834,19.506c0.962-0.827,0.183-3.395,1.951-3.415
			C62.592,17.687,62.361,19.245,60.834,19.506z"/>
		<path fill-rule="evenodd" clip-rule="evenodd" d="M35.955,16.579c0.298,0.027,0.578,0.073,0.488,0.488
			C36.145,17.039,35.865,16.994,35.955,16.579z"/>
		<path fill-rule="evenodd" clip-rule="evenodd" d="M42.784,16.579c0.6,0.213,1.002,0.624,0.976,1.463
			C43.16,17.83,42.758,17.418,42.784,16.579z"/>
		<path fill-rule="evenodd" clip-rule="evenodd" d="M49.126,16.579c0.271-0.001,0.554,0.395,0,0.488
			C49.126,16.904,49.126,16.742,49.126,16.579z"/>
		<path fill-rule="evenodd" clip-rule="evenodd" d="M36.442,17.067C37.032,17.017,36.743,17.776,36.442,17.067L36.442,17.067z"/>
		<path fill-rule="evenodd" clip-rule="evenodd" d="M34.979,18.042C34.39,18.092,34.679,17.333,34.979,18.042L34.979,18.042z"/>
		<path fill-rule="evenodd" clip-rule="evenodd" d="M34.979,18.042C36.44,18.141,34.513,20.068,34.979,18.042L34.979,18.042z"/>
		<path fill-rule="evenodd" clip-rule="evenodd" d="M67.176,18.042c-0.125,1.827-0.767,3.137-1.952,3.903
			C65.691,20.461,65.799,18.617,67.176,18.042z"/>
		<path fill-rule="evenodd" clip-rule="evenodd" d="M27.174,24.384C26.584,24.434,26.874,23.675,27.174,24.384L27.174,24.384z"/>
		<path fill-rule="evenodd" clip-rule="evenodd" d="M27.174,24.384C27.763,24.334,27.474,25.093,27.174,24.384L27.174,24.384z"/>
		<path fill-rule="evenodd" clip-rule="evenodd" d="M28.149,25.848c-0.271,0.001-0.554-0.395,0-0.488
			C28.149,25.522,28.149,25.685,28.149,25.848z"/>
		<path fill-rule="evenodd" clip-rule="evenodd" d="M26.198,25.848c0.297,0.028,0.578,0.073,0.488,0.488
			C26.389,26.308,26.108,26.263,26.198,25.848z"/>
		<path fill-rule="evenodd" clip-rule="evenodd" d="M26.686,26.335C27.275,26.286,26.986,27.044,26.686,26.335L26.686,26.335z"/>
		<path fill-rule="evenodd" clip-rule="evenodd" d="M23.271,26.823c1.99-0.201,3.077,0.5,2.927,2.439
			C24.208,29.463,23.121,28.763,23.271,26.823z"/>
		<path fill-rule="evenodd" clip-rule="evenodd" d="M76.444,27.311c0.868,0.357,0.07,0.887,0,1.463
			C75.575,28.417,76.374,27.888,76.444,27.311z"/>
		<path fill-rule="evenodd" clip-rule="evenodd" d="M74.493,30.238c0.108-0.379,0.013-0.962,0.487-0.976
			C74.871,29.641,74.967,30.225,74.493,30.238z"/>
		<path fill-rule="evenodd" clip-rule="evenodd" d="M22.783,30.238c0.298,0.027,0.578,0.073,0.488,0.488
			C22.974,30.698,22.694,30.653,22.783,30.238z"/>
		<path fill-rule="evenodd" clip-rule="evenodd" d="M23.271,30.726c0.378,0.109,0.962,0.013,0.976,0.488
			C23.868,31.104,23.285,31.2,23.271,30.726z"/>
		<path fill-rule="evenodd" clip-rule="evenodd" d="M23.759,33.653c-0.434-0.144-2.136-1.32-0.976-1.463
			C23.396,32.389,23.78,32.818,23.759,33.653z"/>
		<path fill-rule="evenodd" clip-rule="evenodd" d="M68.151,33.165c0.027-0.298,0.072-0.578,0.487-0.488
			C68.611,32.975,68.565,33.255,68.151,33.165z"/>
		<path fill-rule="evenodd" clip-rule="evenodd" d="M68.151,33.165C68.2,33.754,67.441,33.465,68.151,33.165L68.151,33.165z"/>
		<path fill-rule="evenodd" clip-rule="evenodd" d="M23.271,34.628c-0.73-0.083-1.801,0.174-1.952-0.488
			C22.05,34.224,23.12,33.966,23.271,34.628z"/>
		<path fill-rule="evenodd" clip-rule="evenodd" d="M21.32,35.604C20.73,35.654,21.02,34.895,21.32,35.604L21.32,35.604z"/>
		<path fill-rule="evenodd" clip-rule="evenodd" d="M21.32,35.604C21.91,35.555,21.62,36.313,21.32,35.604L21.32,35.604z"/>
		<path fill-rule="evenodd" clip-rule="evenodd" d="M21.32,37.555c-0.43,1.854-3.793,0.911-3.415-0.976
			C19.506,35.757,20.056,36.839,21.32,37.555z"/>
		<path fill-rule="evenodd" clip-rule="evenodd" d="M60.834,37.067c0.729,0.083,1.8-0.174,1.951,0.488
			C62.055,37.472,60.984,37.729,60.834,37.067z"/>
		<path fill-rule="evenodd" clip-rule="evenodd" d="M62.785,37.555c0.729,0.083,1.8-0.174,1.951,0.488
			C64.006,37.96,62.936,38.217,62.785,37.555z"/>
		<path fill-rule="evenodd" clip-rule="evenodd" d="M18.881,40.482c0.378,0.109,0.962,0.013,0.976,0.488
			C19.478,40.861,18.894,40.957,18.881,40.482z"/>
		<path fill-rule="evenodd" clip-rule="evenodd" d="M17.417,42.434c-0.252-0.252,0.353-0.623,0.488-0.488
			C18.157,42.198,17.552,42.569,17.417,42.434z"/>
		<path fill-rule="evenodd" clip-rule="evenodd" d="M61.321,48.288c-0.109,0.378-0.014,0.962-0.487,0.975
			C60.943,48.885,60.847,48.301,61.321,48.288z"/>
		<path fill-rule="evenodd" clip-rule="evenodd" d="M60.346,49.751c0.027-0.297,0.073-0.578,0.488-0.488
			C60.806,49.561,60.761,49.841,60.346,49.751z"/>
		<path fill-rule="evenodd" clip-rule="evenodd" d="M60.346,49.751c-0.2,0.613-0.629,0.997-1.464,0.976
			C59.082,50.114,59.512,49.729,60.346,49.751z"/>
		<path fill-rule="evenodd" clip-rule="evenodd" d="M58.395,51.215c0.027-0.298,0.073-0.578,0.487-0.488
			C58.854,51.024,58.81,51.304,58.395,51.215z"/>
		<path fill-rule="evenodd" clip-rule="evenodd" d="M57.906,51.702c0.028-0.298,0.073-0.577,0.488-0.487
			C58.367,51.512,58.321,51.792,57.906,51.702z"/>
		<path fill-rule="evenodd" clip-rule="evenodd" d="M57.419,52.19c0.027-0.298,0.073-0.578,0.487-0.488
			C57.879,52,57.834,52.28,57.419,52.19z"/>
		<path fill-rule="evenodd" clip-rule="evenodd" d="M56.931,52.678c0.028-0.298,0.073-0.577,0.488-0.487
			C57.392,52.487,57.346,52.768,56.931,52.678z"/>
		<path fill-rule="evenodd" clip-rule="evenodd" d="M56.931,52.678c-0.272,0.703-0.761,1.19-1.463,1.464
			C55.379,53.077,55.867,52.59,56.931,52.678z"/>
		<path fill-rule="evenodd" clip-rule="evenodd" d="M54.979,54.629c0.028-0.297,0.073-0.577,0.488-0.487
			C55.44,54.438,55.395,54.719,54.979,54.629z"/>
		<path fill-rule="evenodd" clip-rule="evenodd" d="M54.492,55.117c0.027-0.298,0.072-0.578,0.487-0.488
			C54.952,54.927,54.907,55.207,54.492,55.117z"/>
		<path fill-rule="evenodd" clip-rule="evenodd" d="M54.004,55.604c0.027-0.297,0.073-0.577,0.488-0.487
			C54.464,55.415,54.419,55.694,54.004,55.604z"/>
		<path fill-rule="evenodd" clip-rule="evenodd" d="M53.517,56.093c0.027-0.298,0.072-0.577,0.487-0.488
			C53.977,55.902,53.931,56.183,53.517,56.093z"/>
		<path fill-rule="evenodd" clip-rule="evenodd" d="M53.517,56.093c0.082,1.221-0.75,1.527-1.464,1.951
			C51.97,56.823,52.802,56.517,53.517,56.093z"/>
		<path fill-rule="evenodd" clip-rule="evenodd" d="M52.053,58.044c-0.109,0.379-0.014,0.962-0.487,0.976
			C51.674,58.641,51.578,58.058,52.053,58.044z"/>
		<path fill-rule="evenodd" clip-rule="evenodd" d="M51.565,59.02c-0.109,0.379-0.014,0.962-0.488,0.976
			C51.187,59.616,51.091,59.033,51.565,59.02z"/>
		<path fill-rule="evenodd" clip-rule="evenodd" d="M51.077,59.995c0.026,0.84-0.376,1.251-0.976,1.464
			C50.075,60.619,50.478,60.208,51.077,59.995z"/>
		<path fill-rule="evenodd" clip-rule="evenodd" d="M50.102,61.459c-0.163,1.138-0.5,2.102-1.463,2.438
			C48.801,62.76,49.138,61.796,50.102,61.459z"/>
		<path fill-rule="evenodd" clip-rule="evenodd" d="M22.295,66.337c0.298,0.027,0.578,0.073,0.488,0.488
			C22.486,66.797,22.206,66.752,22.295,66.337z"/>
		<path fill-rule="evenodd" clip-rule="evenodd" d="M21.32,67.313C22.275,65.452,21.471,70.278,21.32,67.313L21.32,67.313z"/>
		<path fill-rule="evenodd" clip-rule="evenodd" d="M78.396,66.825c1.275-0.138,2.098,0.178,1.951,1.463
			C79.672,69.008,78.026,68.541,78.396,66.825z"/>
		<path fill-rule="evenodd" clip-rule="evenodd" d="M21.32,69.752c-0.956,0.235-1.571-2.236-0.488-2.439
			C20.429,68.691,21.52,68.576,21.32,69.752z"/>
		<path fill-rule="evenodd" clip-rule="evenodd" d="M75.956,71.703c-0.252-0.252,0.353-0.623,0.488-0.488
			C76.696,71.468,76.091,71.838,75.956,71.703z"/>
		<path fill-rule="evenodd" clip-rule="evenodd" d="M76.932,72.19c-0.252-0.252,0.353-0.622,0.488-0.487
			C77.672,71.955,77.066,72.326,76.932,72.19z"/>
		<path fill-rule="evenodd" clip-rule="evenodd" d="M31.076,76.581c0.298,0.027,0.578,0.073,0.488,0.488
			C31.267,77.041,30.987,76.996,31.076,76.581z"/>
		<path fill-rule="evenodd" clip-rule="evenodd" d="M70.103,77.069c-0.253-0.253,0.353-0.623,0.487-0.488
			C70.843,76.834,70.237,77.204,70.103,77.069z"/>
		<path fill-rule="evenodd" clip-rule="evenodd" d="M72.054,77.069c0.517,1.236-1.027,2.78-1.464,1.463
			C71.066,78.033,71.555,77.546,72.054,77.069z"/>
		<path fill-rule="evenodd" clip-rule="evenodd" d="M30.101,78.532c0.014-0.474,0.597-0.378,0.976-0.487
			C31.063,78.52,30.479,78.423,30.101,78.532z"/>
		<path fill-rule="evenodd" clip-rule="evenodd" d="M68.639,78.532C69.229,78.483,68.938,79.241,68.639,78.532L68.639,78.532z"/>
		<path fill-rule="evenodd" clip-rule="evenodd" d="M29.613,79.996c-0.252-0.252,0.353-0.623,0.488-0.488
			C30.353,79.761,29.748,80.131,29.613,79.996z"/>
		<path fill-rule="evenodd" clip-rule="evenodd" d="M66.688,79.508c1.285-0.146,1.601,0.676,1.464,1.952
			C66.864,81.608,66.893,80.441,66.688,79.508z"/>
		<path fill-rule="evenodd" clip-rule="evenodd" d="M69.614,79.996C69.025,80.046,69.314,79.287,69.614,79.996L69.614,79.996z"/>
		<path fill-rule="evenodd" clip-rule="evenodd" d="M34.003,80.483C33.414,80.533,33.703,79.774,34.003,80.483L34.003,80.483z"/>
		<path fill-rule="evenodd" clip-rule="evenodd" d="M34.003,80.483C34.593,80.435,34.303,81.193,34.003,80.483L34.003,80.483z"/>
		<path fill-rule="evenodd" clip-rule="evenodd" d="M32.54,80.972c0.492,0.006,0.613,0.855,0,0.976
			C32.54,81.622,32.54,81.297,32.54,80.972z"/>
		<path fill-rule="evenodd" clip-rule="evenodd" d="M47.663,84.387c1.415,0.088,1.176,2.318-0.488,1.951
			C46.968,85.318,47.509,85.046,47.663,84.387z"/>
		<path fill-rule="evenodd" clip-rule="evenodd" d="M51.565,84.874c0.013-0.475,0.597-0.378,0.976-0.487
			C52.527,84.86,51.943,84.765,51.565,84.874z"/>
		<path fill-rule="evenodd" clip-rule="evenodd" d="M50.102,85.85c-0.002-0.271,0.396-0.554,0.487,0
			C50.427,85.85,50.264,85.85,50.102,85.85z"/>
		<path fill-rule="evenodd" clip-rule="evenodd" d="M51.077,86.338c0.014-0.475,0.597-0.379,0.976-0.488
			C52.039,86.324,51.456,86.229,51.077,86.338z"/>
		<g>
		</g>
	</g>
</g>
</svg>
