<?xml version="1.0" encoding="utf-8"?>
<!-- Generator: Adobe Illustrator 14.0.0, SVG Export Plug-In . SVG Version: 6.00 Build 43363)  -->
<!DOCTYPE svg PUBLIC "-//W3C//DTD SVG 1.1//EN" "http://www.w3.org/Graphics/SVG/1.1/DTD/svg11.dtd">
<svg version="1.1" id="Ebene_1" xmlns="http://www.w3.org/2000/svg" xmlns:xlink="http://www.w3.org/1999/xlink" x="0px" y="0px"
	 width="100px" height="100px" viewBox="0 0 100 100" enable-background="new 0 0 100 100" xml:space="preserve">
<circle fill="#B2B2B2" cx="50" cy="50" r="50"/>
<g>
	<g>
		<path fill-rule="evenodd" clip-rule="evenodd" d="M22.522,53.601c0.004-0.141,0.178-0.112,0.291-0.146
			c0.231-0.755-0.263-1.939-0.146-3.055c8.907-0.55,17.84-1.075,26.918-1.455c-0.292-3.698-0.7-8.012-0.436-11.786
			c2.761-1.216,6.491-1.463,10.33-1.601c0.015-2.418-0.307-6.022,0.291-8.585c2.282-0.536,5.785-0.681,7.857,0.146
			c0.209,2.739,0.254,6.03-0.146,8.585c0.716,0.303,1.938,0.098,2.328,0.728c0.325,3.484,0.509,7.632,0.291,11.204
			c1.589,0.266,3.658-0.212,5.529-0.146c0.346,0.528-0.128,1.874,0.437,2.183l0.28,0.634l0.447,0.53
			c-1.054,0.223-1.182,2.87-0.582,3.782l-0.073,0.704l0.364,0.605c-1.33,1.58-0.762,5.059-1.601,7.13
			c3.689,0.283,8.058,0.337,11.932,0.582c1.535,0.098,3.452-0.226,4.365,0.873c-0.52,1.541-2.675,0.813-3.929,0.728
			c-16.007-1.092-33.845-1.181-50.781-0.437C27.5,65.2,18.135,65.878,9.136,66.405c-0.665,0.039-1.954,0.662-2.328-0.437
			c0.197-1.539,2.619-1.054,4.074-1.164c4.693-0.356,10.341-0.834,15.132-1.019c-0.497-1.395-1.134-2.649-1.455-4.22
			c-0.256-0.083-0.855,0.176-0.873-0.146l0.437-0.582v-0.728c-0.242-1.116-0.699-2.017-0.873-3.201c-0.146,0-0.291,0-0.437,0
			l0.073-0.703L22.522,53.601z M50.604,38.178c0.014,3.721,0.18,7.289,0.582,10.622c5.787-0.372,11.768-0.551,17.46-1.019
			c0.037-3.577-0.043-7.038-0.291-10.331C62.574,36.662,55.681,36.998,50.604,38.178z M24.414,51.855
			c0.728,4.413,1.564,8.718,3.638,11.785c14.472-0.717,30.022-0.938,45.106-0.582c0.804-4.039,1.952-9.415,0.873-13.968
			C57.55,50.071,40.877,50.858,24.414,51.855z"/>
		<g>
			<path fill-rule="evenodd" clip-rule="evenodd" fill="none" stroke="#000000" stroke-width="1.374" stroke-linecap="round" d="
				M76.348,50.307c2.712-1.052,4.497,2.83,7.422,2.125c0.483-0.117,0.893-0.532,1.643-0.972c3.656-2.147,3.914,0.896,6.733,1.777"/>
			<path fill-rule="evenodd" clip-rule="evenodd" fill="none" stroke="#000000" stroke-width="1.3407" stroke-linecap="round" d="
				M93.261,57.506c-0.799,0.848-2.751,1.949-4.347,1.105c-1.919-1.015-2.511-3.087-5.204-2.087
				c-1.626,0.604-1.851,1.634-3.056,1.585c-1.74-0.07-2.19-2.08-2.988-2.755c-0.444-0.132-0.924-0.081-1.38-0.058
				c-0.049,0.009-0.098,0.018-0.146,0.026"/>
			<path fill-rule="evenodd" clip-rule="evenodd" fill="none" stroke="#000000" stroke-width="1.3671" stroke-linecap="round" d="
				M10.417,59.685c2.465-3.809,7.13,2.86,8.857-1.86c1.805-1.194,3.108,0.963,4.849,1.015"/>
			<path fill-rule="evenodd" clip-rule="evenodd" fill="none" stroke="#000000" stroke-width="1.3292" stroke-linecap="round" d="
				M12.434,54.135c3.262-3.073,6.885,0.799,10.452,0.072"/>
		</g>
	</g>
</g>
</svg>
