<?xml version="1.0" encoding="utf-8"?>
<!-- Generator: Adobe Illustrator 14.0.0, SVG Export Plug-In . SVG Version: 6.00 Build 43363)  -->
<!DOCTYPE svg PUBLIC "-//W3C//DTD SVG 1.1//EN" "http://www.w3.org/Graphics/SVG/1.1/DTD/svg11.dtd">
<svg version="1.1" id="Ebene_1" xmlns="http://www.w3.org/2000/svg" xmlns:xlink="http://www.w3.org/1999/xlink" x="0px" y="0px"
	 width="100px" height="100px" viewBox="0 0 100 100" enable-background="new 0 0 100 100" xml:space="preserve">
<circle fill="#B2B2B2" cx="50" cy="50" r="50"/>
<g>
	<g>
		<g>
			<path fill-rule="evenodd" clip-rule="evenodd" d="M54.271,41.499c-0.377,0.356-0.942,0.536-1.484,0.738
				c0.708,4.424,0.137,9.692-1.683,12.642c0.976,4.288,1.92,8.606,2.276,13.472c1.367-0.448,3.004-1.442,4.75-1.846
				c0.069-3.509-0.166-6.734-0.099-10.241c-1.231-0.035-2.841,0.048-3.761,0c0-2.123,0-4.245,0-6.368c1.221,0,2.44,0,3.661,0
				c0.262-1.487-0.247-3.506,0.1-5.074c1.983,0.057,4.216-0.118,6.036,0.092c0.217,1.489,0.043,3.343,0.099,4.982
				c1.705-0.014,3.543-0.001,4.85,0.092c0,2.061,0,4.122,0,6.183c-1.396,0.206-3.193,0.037-4.75,0.093
				c-0.231,3.075-0.033,6.551-0.1,9.78c3.303,0.671,6.449,1.531,9.006,3.045c2.413,1.429,5.074,3.809,7.025,5.813
				c2.077,2.133,4.25,4.789,4.354,8.028c-1.24,0.881-2.957,1.178-4.651,1.477c-8.663,1.528-19.996,0.662-28.995-0.092
				c-3.75-0.315-7.508-0.456-9.995-2.123c0.394-1.141,1.173-1.921,1.781-2.86c-1.598,0.014-3.177,0.01-4.651-0.093l-0.297-0.368
				l-0.396-0.277c0.372-0.36,0.624-0.833,0.99-1.199l0.297,0.369l0.396,0.276c0.006,0.244-0.189,0.203,0.099,0.276
				c1,0.257,3.132-0.189,4.354,0c2.133-2.389,3.995-4.832,6.531-7.196c0.625-0.583,2.21-1.566,2.375-2.123
				c0.255-0.859-0.268-2.655-0.396-3.598c-0.473-3.485-1.13-6.736-1.781-9.966c-0.303-0.066-0.291,0.159-0.594,0.092v-0.461
				l-0.297-0.37c0.295-0.247,0.738-0.356,1.089-0.553c1.418-2.888,1.832-7.114,1.484-11.35c-0.267-0.245-0.666-0.363-0.891-0.646
				l0.396-0.277l0.297-0.369c0.842-0.015,1.184-0.496,1.88-0.646l0.297,0.37L54.271,41.499z M59.219,45.744
				c-0.125,0.038-0.203,0.119-0.198,0.277c-0.065,1.569,0.132,3.383-0.099,4.798c-1.09,0.25-2.405-0.014-3.563,0
				c-0.229,1.295-0.036,2.981-0.1,4.43c0.931,0.158,2.854-0.252,3.761,0.185c0.252,3.455-0.035,7.414,0.198,10.888
				c1.128-0.239,2.441-0.307,3.859-0.276c0.065-3.537-0.133-7.32,0.099-10.704c1.395-0.206,3.192-0.037,4.75-0.092
				c0-1.445,0-2.892,0-4.337c-1.586-0.06-3.428,0.12-4.849-0.093c0-1.66,0-3.322,0-4.982C61.796,45.801,60.347,45.922,59.219,45.744
				z"/>
			<path fill-rule="evenodd" clip-rule="evenodd" d="M16.765,72.596l-0.396-0.278c0.444-0.647,1.541-0.482,2.672-0.553
				c2.901-0.182,6.307-0.86,9.203-0.923c1.802-5.116,3.57-10.266,5.245-15.502l0.396-0.276l0.297-0.37
				c0.33,0.309,0.764,0.519,1.088,0.831l-0.396,0.276l-0.297,0.37c-1.128,2.243-2.252,6.112-3.167,8.765
				c-0.765,2.221-1.432,4.256-2.177,6.553c-0.191,0.589-0.248,1.687-1.188,1.753c-0.715-0.209,0.169-1.217-0.297-1.385
				c-3.601,0.312-7.46,0.74-10.688,1.108L16.765,72.596z"/>
			<path fill-rule="evenodd" clip-rule="evenodd" d="M34.449,43.686l-0.663,0.12c-0.253-0.009-0.472-0.052-0.594-0.184l0.297-0.369
				v-0.461c0.576,0.063,1.307,0.306,2.078,0.461c0.687,0.138,1.666,0.068,1.188,1.107c-0.445,0.136-1.222-0.212-1.88-0.184
				L34.449,43.686z"/>
			<path fill-rule="evenodd" clip-rule="evenodd" d="M43.583,52.019l-0.396-0.277c0.479-0.813,0.918-1.665,1.484-2.399l0.297,0.369
				l0.396,0.276c-0.721,0.906-0.117,2.249,0.198,3.231l-0.396,0.276l-0.297,0.369c-0.461-0.37-0.496-1.137-0.792-1.661
				c-0.044,0.082-0.087,0.164-0.198,0.185L43.583,52.019z"/>
			<path fill-rule="evenodd" clip-rule="evenodd" d="M38.437,45.836h0.495c-0.259,0.999-0.949,2.219-1.188,3.414
				c-0.16,0.8,0.211,2.026-0.792,2.307c-0.84-0.778-0.256-2.178,0-3.137c0.281-1.052,0.599-2.178,1.088-2.86L38.437,45.836z"/>
			<path fill-rule="evenodd" clip-rule="evenodd" d="M41.703,70.749h-0.495c0.469-1.346,0.958-2.675,1.583-3.875
				c1.208,0.271,3.697-0.365,3.76,0.554c0.072,1.032-2.15,0.326-3.167,0.461c-0.348,1.122-0.764,2.18-1.287,3.139L41.703,70.749z"/>
			<path fill-rule="evenodd" clip-rule="evenodd" d="M51.4,30.888c-0.988-0.942-0.693-3.175-0.297-4.521
				c0.207-0.053,0.282-0.229,0.594-0.185c0.875,0.773-0.478,2.931,0.396,4.06l-0.396,0.277L51.4,30.888z"/>
			<path fill-rule="evenodd" clip-rule="evenodd" d="M55.359,30.334l-0.396-0.276c0.747-0.842,0.431-2.675,1.386-3.322
				c1.243,0.685-0.208,3.422-0.692,3.968L55.359,30.334z"/>
			<path fill-rule="evenodd" clip-rule="evenodd" d="M34.578,29.504c-0.359-0.711-1.082-3.156-0.099-3.229
				c1.032-0.078,0.48,2.28,0.99,2.953h-0.495L34.578,29.504z"/>
			<path fill-rule="evenodd" clip-rule="evenodd" d="M40.614,29.965l-0.396-0.277c0.667-0.592-0.074-3.277,0.989-3.229
				c1.117,0.05,0.223,3.682-0.297,3.875L40.614,29.965z"/>
			<path fill-rule="evenodd" clip-rule="evenodd" d="M28.343,29.78c2.342-0.245,6.149,0.402,6.136,2.86
				c-0.021,3.805-9.727,3.892-10.193,0.277C24.025,30.895,26.034,30.022,28.343,29.78z"/>
			<path fill-rule="evenodd" clip-rule="evenodd" d="M47.64,33.194c-0.022,0.872-0.074,1.716-0.693,2.03
				c-0.383,0.08-0.352-0.226-0.594-0.277C46.416,34.072,46.618,32.589,47.64,33.194z"/>
			<g>
				<path fill-rule="evenodd" clip-rule="evenodd" fill="none" stroke="#000000" stroke-width="0.9509" stroke-linecap="round" d="
					M37.744,78.87c-2.479,1.571-5.424,0.976-9.331,1.061c-2.488,0.054-4.988,0.054-7.198,0.005
					c-1.729-0.036-3.985,0.479-5.222-0.681c-1.146-1.075-0.751-3.008-0.544-4.067c0.118-0.604,0.206-1.662,1.315-2.592"/>
				<path fill-rule="evenodd" clip-rule="evenodd" fill="none" stroke="#000000" stroke-width="0.9339" stroke-linecap="round" d="
					M33.885,55.063c-2.739-3.39-0.634-7.809,0.564-11.377"/>
				<path fill-rule="evenodd" clip-rule="evenodd" fill="none" stroke="#000000" stroke-width="0.9072" stroke-linecap="round" d="
					M33.489,43.252C23.361,40.55,16.048,32.308,17.428,22.777c1.31-9.041,9.94-15.68,20.23-16.856
					c2.39-0.273,4.644-0.228,6.729,0.014c11.525,1.333,21.793,10.192,20.204,21.253c-0.776,5.406-4.41,10.724-10.717,14.035"/>
				<path fill-rule="evenodd" clip-rule="evenodd" fill="none" stroke="#000000" stroke-width="0.9123" stroke-linecap="round" d="
					M38.437,45.836c0.61-1.333,1.307-2.649,2.189-3.843c1.925-1.118,4.495-1.036,6.295,0.274"/>
				<path fill-rule="evenodd" clip-rule="evenodd" fill="none" stroke="#000000" stroke-width="0.9392" stroke-linecap="round" d="
					M46.921,42.267c1.32-0.718,3.074-1.204,4.479-0.399"/>
				<path fill-rule="evenodd" clip-rule="evenodd" fill="none" stroke="#000000" stroke-width="0.9231" stroke-linecap="round" d="
					M46.921,42.267c-0.195,2.55-0.543,5.194-1.953,7.444"/>
				<path fill-rule="evenodd" clip-rule="evenodd" fill="none" stroke="#000000" stroke-width="0.9071" stroke-linecap="round" d="
					M43.583,52.019c-1.68,2.655-5.244,6.013-8.708,3.782"/>
				<path fill-rule="evenodd" clip-rule="evenodd" fill="none" stroke="#000000" stroke-width="0.9045" stroke-linecap="round" d="
					M38.635,77.763c1.164-2.263,2.045-4.679,3.068-7.014"/>
				<path fill-rule="evenodd" clip-rule="evenodd" fill="none" stroke="#000000" stroke-width="0.9223" stroke-linecap="round" d="
					M49.619,55.063c-1.635,0.632-3.647-0.118-4.453-1.568"/>
				<path fill-rule="evenodd" clip-rule="evenodd" fill="none" stroke="#000000" stroke-width="0.931" stroke-linecap="round" d="
					M51.697,30.519c0.858,1.176,2.867,0.953,3.662-0.185"/>
				<path fill-rule="evenodd" clip-rule="evenodd" fill="none" stroke="#000000" stroke-width="0.9375" stroke-linecap="round" d="
					M40.614,29.965c-1.198,2.039-5.066,1.551-5.641-0.738"/>
			</g>
		</g>
	</g>
	<g>
		<g>
			<path fill="none" stroke="#000000" stroke-width="0.75" d="M54.271,41.499c-0.377,0.356-0.942,0.536-1.484,0.738
				c0.708,4.424,0.137,9.692-1.683,12.642c0.976,4.288,1.92,8.606,2.276,13.472c1.367-0.448,3.004-1.442,4.75-1.846
				c0.069-3.509-0.166-6.734-0.099-10.241c-1.231-0.035-2.841,0.048-3.761,0c0-2.123,0-4.245,0-6.368c1.221,0,2.44,0,3.661,0
				c0.262-1.487-0.247-3.506,0.1-5.074c1.983,0.057,4.216-0.118,6.036,0.092c0.217,1.489,0.043,3.343,0.099,4.982
				c1.705-0.014,3.543-0.001,4.85,0.092c0,2.061,0,4.122,0,6.183c-1.396,0.206-3.193,0.037-4.75,0.093
				c-0.231,3.075-0.033,6.551-0.1,9.78c3.303,0.671,6.449,1.531,9.006,3.045c2.413,1.429,5.074,3.809,7.025,5.813
				c2.077,2.133,4.25,4.789,4.354,8.028c-1.24,0.881-2.957,1.178-4.651,1.477c-8.663,1.528-19.996,0.662-28.995-0.092
				c-3.75-0.315-7.508-0.456-9.995-2.123c0.394-1.141,1.173-1.921,1.781-2.86c-1.598,0.014-3.177,0.01-4.651-0.093l-0.297-0.368
				l-0.396-0.277c0.372-0.36,0.624-0.833,0.99-1.199l0.297,0.369l0.396,0.276c0.006,0.244-0.189,0.203,0.099,0.276
				c1,0.257,3.132-0.189,4.354,0c2.133-2.389,3.995-4.832,6.531-7.196c0.625-0.583,2.21-1.566,2.375-2.123
				c0.255-0.859-0.268-2.655-0.396-3.598c-0.473-3.485-1.13-6.736-1.781-9.966c-0.303-0.066-0.291,0.159-0.594,0.092v-0.461
				l-0.297-0.37c0.295-0.247,0.738-0.356,1.089-0.553c1.418-2.888,1.832-7.114,1.484-11.35c-0.267-0.245-0.666-0.363-0.891-0.646
				l0.396-0.277l0.297-0.369c0.842-0.015,1.184-0.496,1.88-0.646l0.297,0.37L54.271,41.499z M59.219,45.744
				c-0.125,0.038-0.203,0.119-0.198,0.277c-0.065,1.569,0.132,3.383-0.099,4.798c-1.09,0.25-2.405-0.014-3.563,0
				c-0.229,1.295-0.036,2.981-0.1,4.43c0.931,0.158,2.854-0.252,3.761,0.185c0.252,3.455-0.035,7.414,0.198,10.888
				c1.128-0.239,2.441-0.307,3.859-0.276c0.065-3.537-0.133-7.32,0.099-10.704c1.395-0.206,3.192-0.037,4.75-0.092
				c0-1.445,0-2.892,0-4.337c-1.586-0.06-3.428,0.12-4.849-0.093c0-1.66,0-3.322,0-4.982C61.796,45.801,60.347,45.922,59.219,45.744
				z"/>
			<path fill="none" stroke="#000000" stroke-width="0.75" d="M16.765,72.596l-0.396-0.278c0.444-0.647,1.541-0.482,2.672-0.553
				c2.901-0.182,6.307-0.86,9.203-0.923c1.802-5.116,3.57-10.266,5.245-15.502l0.396-0.276l0.297-0.37
				c0.33,0.309,0.764,0.519,1.088,0.831l-0.396,0.276l-0.297,0.37c-1.128,2.243-2.252,6.112-3.167,8.765
				c-0.765,2.221-1.432,4.256-2.177,6.553c-0.191,0.589-0.248,1.687-1.188,1.753c-0.715-0.209,0.169-1.217-0.297-1.385
				c-3.601,0.312-7.46,0.74-10.688,1.108L16.765,72.596z"/>
			<path fill="none" stroke="#000000" stroke-width="0.75" d="M34.449,43.686l-0.663,0.12c-0.253-0.009-0.472-0.052-0.594-0.184
				l0.297-0.369v-0.461c0.576,0.063,1.307,0.306,2.078,0.461c0.687,0.138,1.666,0.068,1.188,1.107
				c-0.445,0.136-1.222-0.212-1.88-0.184L34.449,43.686z"/>
			<path fill="none" stroke="#000000" stroke-width="0.75" d="M43.583,52.019l-0.396-0.277c0.479-0.813,0.918-1.665,1.484-2.399
				l0.297,0.369l0.396,0.276c-0.721,0.906-0.117,2.249,0.198,3.231l-0.396,0.276l-0.297,0.369c-0.461-0.37-0.496-1.137-0.792-1.661
				c-0.044,0.082-0.087,0.164-0.198,0.185L43.583,52.019z"/>
			<path fill="none" stroke="#000000" stroke-width="0.75" d="M38.437,45.836h0.495c-0.259,0.999-0.949,2.219-1.188,3.414
				c-0.16,0.8,0.211,2.026-0.792,2.307c-0.84-0.778-0.256-2.178,0-3.137c0.281-1.052,0.599-2.178,1.088-2.86L38.437,45.836z"/>
			<path fill="none" stroke="#000000" stroke-width="0.75" d="M41.703,70.749h-0.495c0.469-1.346,0.958-2.675,1.583-3.875
				c1.208,0.271,3.697-0.365,3.76,0.554c0.072,1.032-2.15,0.326-3.167,0.461c-0.348,1.122-0.764,2.18-1.287,3.139L41.703,70.749z"/>
			<path fill="none" stroke="#000000" stroke-width="0.75" d="M51.4,30.888c-0.988-0.942-0.693-3.175-0.297-4.521
				c0.207-0.053,0.282-0.229,0.594-0.185c0.875,0.773-0.478,2.931,0.396,4.06l-0.396,0.277L51.4,30.888z"/>
			<path fill="none" stroke="#000000" stroke-width="0.75" d="M55.359,30.334l-0.396-0.276c0.747-0.842,0.431-2.675,1.386-3.322
				c1.243,0.685-0.208,3.422-0.692,3.968L55.359,30.334z"/>
			<path fill="none" stroke="#000000" stroke-width="0.75" d="M34.578,29.504c-0.359-0.711-1.082-3.156-0.099-3.229
				c1.032-0.078,0.48,2.28,0.99,2.953h-0.495L34.578,29.504z"/>
			<path fill="none" stroke="#000000" stroke-width="0.75" d="M40.614,29.965l-0.396-0.277c0.667-0.592-0.074-3.277,0.989-3.229
				c1.117,0.05,0.223,3.682-0.297,3.875L40.614,29.965z"/>
			<path fill="none" stroke="#000000" stroke-width="0.75" d="M28.343,29.78c2.342-0.245,6.149,0.402,6.136,2.86
				c-0.021,3.805-9.727,3.892-10.193,0.277C24.025,30.895,26.034,30.022,28.343,29.78z"/>
			<path fill="none" stroke="#000000" stroke-width="0.75" d="M47.64,33.194c-0.022,0.872-0.074,1.716-0.693,2.03
				c-0.383,0.08-0.352-0.226-0.594-0.277C46.416,34.072,46.618,32.589,47.64,33.194z"/>
			<g>
				<path fill="none" stroke="#000000" stroke-width="0.75" d="M37.744,78.87c-2.479,1.571-5.424,0.976-9.331,1.061
					c-2.488,0.054-4.988,0.054-7.198,0.005c-1.729-0.036-3.985,0.479-5.222-0.681c-1.146-1.075-0.751-3.008-0.544-4.067
					c0.118-0.604,0.206-1.662,1.315-2.592"/>
				<path fill="none" stroke="#000000" stroke-width="0.75" d="M33.885,55.063c-2.739-3.39-0.634-7.809,0.564-11.377"/>
				<path fill="none" stroke="#000000" stroke-width="0.75" d="M33.489,43.252C23.361,40.55,16.048,32.308,17.428,22.777
					c1.31-9.041,9.94-15.68,20.23-16.856c2.39-0.273,4.644-0.228,6.729,0.014c11.525,1.333,21.793,10.192,20.204,21.253
					c-0.776,5.406-4.41,10.724-10.717,14.035"/>
				<path fill="none" stroke="#000000" stroke-width="0.75" d="M38.437,45.836c0.61-1.333,1.307-2.649,2.189-3.843
					c1.925-1.118,4.495-1.036,6.295,0.274"/>
				<path fill="none" stroke="#000000" stroke-width="0.75" d="M46.921,42.267c1.32-0.718,3.074-1.204,4.479-0.399"/>
				<path fill="none" stroke="#000000" stroke-width="0.75" d="M46.921,42.267c-0.195,2.55-0.543,5.194-1.953,7.444"/>
				<path fill="none" stroke="#000000" stroke-width="0.75" d="M43.583,52.019c-1.68,2.655-5.244,6.013-8.708,3.782"/>
				<path fill="none" stroke="#000000" stroke-width="0.75" d="M38.635,77.763c1.164-2.263,2.045-4.679,3.068-7.014"/>
				<path fill="none" stroke="#000000" stroke-width="0.75" d="M49.619,55.063c-1.635,0.632-3.647-0.118-4.453-1.568"/>
				<path fill="none" stroke="#000000" stroke-width="0.75" d="M51.697,30.519c0.858,1.176,2.867,0.953,3.662-0.185"/>
				<path fill="none" stroke="#000000" stroke-width="0.75" d="M40.614,29.965c-1.198,2.039-5.066,1.551-5.641-0.738"/>
			</g>
		</g>
	</g>
</g>
</svg>
