<?xml version="1.0" encoding="utf-8"?>
<!-- Generator: Adobe Illustrator 14.0.0, SVG Export Plug-In . SVG Version: 6.00 Build 43363)  -->
<!DOCTYPE svg PUBLIC "-//W3C//DTD SVG 1.1//EN" "http://www.w3.org/Graphics/SVG/1.1/DTD/svg11.dtd">
<svg version="1.1" id="Ebene_1" xmlns="http://www.w3.org/2000/svg" xmlns:xlink="http://www.w3.org/1999/xlink" x="0px" y="0px"
	 width="100px" height="100px" viewBox="0 0 100 100" enable-background="new 0 0 100 100" xml:space="preserve">
<circle fill="#B2B2B2" cx="50" cy="50" r="50"/>
<g>
	<g>
		<path fill-rule="evenodd" clip-rule="evenodd" d="M59.81,15.664c0.397,0.263,0.547,0.771,0.709,1.268
			c0.114,0.027,0.141,0.142,0.283,0.141l0.425,0.563l0.566,0.422c-0.128,0.249-0.316,0.437-0.566,0.564
			c0.307,0.855,0.579,1.935-0.283,2.112c-1.271,0.261-1.366-3.378-2.126-4.084l0.567-0.422L59.81,15.664z"/>
		<path fill-rule="evenodd" clip-rule="evenodd" d="M74.407,18.058l0.426-0.563c0.739,0.768,1.071,1.939,1.275,3.239
			c2.791-0.524,6.624-0.389,8.504,0.846l-0.426,0.563v0.704c-1.984-0.843-5.045-1.053-7.795-0.704
			c-0.463,0.385-0.283,1.408-1.275,1.268c-1.098-0.975-0.2-3.933-1.275-4.929L74.407,18.058z"/>
		<path fill-rule="evenodd" clip-rule="evenodd" d="M86.029,50.732l0.566,0.422c-0.088,0.43-0.762,0.275-0.85,0.705
			c0.052,3.055-0.132,5.877-1.418,7.604L83.903,58.9l-0.567-0.422c1.026-1.885,0.707-5.561,0.992-7.746
			c0.307-0.307,0.828-0.399,1.276-0.564L86.029,50.732z"/>
		<path fill-rule="evenodd" clip-rule="evenodd" d="M80.502,61.998l0.426,0.564c-1.794,0.898-4.909,0.875-6.661,0l0.017-0.928
			l-0.868-0.34c-0.427-0.797-0.457-1.986-1.134-2.535c-1.561-0.227-1.843,0.541-2.834,1.127l-0.425-0.564L68.454,58.9
			c-0.002-0.207,0.599-0.447,0-0.422c-2.147-0.543-3.348-2.025-4.251-3.803c-0.234,2.498-0.6,5.809,0.283,7.887l0.426,0.563
			l0.566,0.422c-0.528,0.51-0.784,1.287-1.843,1.27c-1.772-2.701-1.006-7.76-0.992-11.268l-0.425-0.564l-0.566-0.422
			c0.853-0.814,1.483-1.707,2.126-2.817c0.526-0.909,0.783-2.555,2.125-2.675c1.089,1.452-0.722,2.549-0.85,3.943
			c-0.456,4.949,4.789,7.873,9.354,5.492l0.426,0.564l0.567,0.422c-0.292,0.463-0.971,0.537-1.418,0.844
			c0.049,3.18,3.103,4.057,6.52,2.959V61.998z"/>
		<path fill-rule="evenodd" clip-rule="evenodd" d="M69.163,88.334l0.426-0.563c0.792,1.092,1.443,2.32,1.701,3.943
			c-1.177,0.809-2.724,0.387-4.11,0.281c-4.255-0.32-8.34-1.191-11.338-2.676c-0.489,0.172-0.363,0.955-0.851,1.127l-0.426-0.563
			l-0.567-0.424c0.338-1.711,2.046-4.012,2.552-1.408c3.626,1.373,7.981,2.771,12.897,2.395c-0.364-0.484-0.646-1.049-0.851-1.689
			L69.163,88.334z"/>
		<path fill-rule="evenodd" clip-rule="evenodd" d="M49.18,95.518l0.567,0.422c-0.253,0.453-0.699,0.715-1.276,0.846
			c-0.298-0.313-0.838-0.389-0.992-0.846l0.567-0.422l0.425-0.563c0.095,0,0.189,0,0.283,0L49.18,95.518z"/>
		<path fill-rule="evenodd" clip-rule="evenodd" d="M42.944,89.744l-0.425,0.563c-0.383-0.041-0.254-0.592-0.567-0.705
			c-2.737,1.342-8.495,2.297-13.323,1.408c-2.33-0.428-5.342-1.26-2.692-3.098l0.425,0.563l0.567,0.424
			c0.004,0.137,0.173,0.109,0.284,0.141c3.988,1.375,8.759,0.92,12.331-0.281c1.552-0.523,3.029-1.564,4.393-1.127
			c0.346,0.639-0.339,0.932-0.567,1.408c0.138,0.004,0.11,0.172,0.142,0.281L42.944,89.744z"/>
		<path fill-rule="evenodd" clip-rule="evenodd" d="M30.755,82.842l-0.567-0.422c2.217-4.369,3.534-9.633,4.11-15.633
			c-2.364,1.52-7.815,1.275-9.78-0.422l0.567-0.424l0.425-0.563c2.02,1.047,8.075,1.813,8.929-0.986
			c0.552-1.809-0.405-4.074,0-6.479c-1.91,0.014-3.666-0.344-5.102-0.984c-0.741-0.332-1.953-0.779-1.701-1.832
			c1.988-0.492,3.727,1.619,6.803,1.268c0.923-0.105,1.491-0.541,2.41-0.846l0.425,0.564l0.567,0.422
			c-0.447,0.494-1.16,0.727-1.842,0.986c0.189,10.422-0.91,19.563-4.819,25.914L30.755,82.842z"/>
		<path fill-rule="evenodd" clip-rule="evenodd" d="M21.826,61.998l-0.567,0.424c-0.533-0.832-0.776-1.951-0.85-3.24
			c-3.33,1.15-9.189,1.104-11.622-1.268l0.567-0.422l0.425-0.563c2.754,1.734,6.727,1.943,9.921,0.703
			c0.896-0.348,2.058-1.48,2.834-0.422c0.056,0.766-0.606,0.826-0.708,1.549c-0.147,1.043,0.608,2.199,0.708,3.238H21.826z"/>
		<path fill-rule="evenodd" clip-rule="evenodd" d="M31.464,20.03l0.425-0.563c0.095,0,0.189,0,0.284,0l0.174,0.94l0.96,0.046
			c0.305,0.638,1.555,1.35,0.708,2.253c-1.698-0.097-1.983-1.597-3.118-2.253L31.464,20.03z"/>
		<path fill-rule="evenodd" clip-rule="evenodd" d="M40.959,52l-0.566-0.422c1.608-1.368-0.352-6.01,2.125-6.761
			c1.072,1.117-0.722,5.048,0.85,6.761L42.802,52l-0.425,0.563c-0.364-0.014-0.203-0.549-0.567-0.563
			c-0.142,0.188-0.134,0.523-0.425,0.563L40.959,52z"/>
		<path fill-rule="evenodd" clip-rule="evenodd" d="M40.251,61.012c3.073-0.551,4.569,1.736,3.685,4.227
			c-1.264,3.557-7.245,1.873-6.094-2.254C38.088,62.1,38.719,61.287,40.251,61.012z"/>
		<path fill-rule="evenodd" clip-rule="evenodd" d="M55.982,61.436c4.493-0.904,4.54,5.471,0.851,5.633
			C53.254,67.227,52.482,62.141,55.982,61.436z"/>
		<path fill-rule="evenodd" clip-rule="evenodd" d="M52.015,66.646c1.011,3.406-1.819,6.695-4.819,4.787
			c-0.906-0.574-2.651-5.094-0.708-4.787c1.423,0.225,0.183,4.383,2.976,3.662C51.128,69.877,49.626,66.34,52.015,66.646z"/>
		<g>
			<path fill-rule="evenodd" clip-rule="evenodd" fill="none" stroke="#000000" stroke-width="1.3741" stroke-linecap="round" d="
				M61.227,17.636c3.522-3.449,10.023-3.493,13.181,0.422"/>
			<path fill-rule="evenodd" clip-rule="evenodd" fill="none" stroke="#000000" stroke-width="1.3775" stroke-linecap="round" d="
				M84.187,22.143c10.335,5.002,11.539,22.288,1.843,28.59"/>
			<path fill-rule="evenodd" clip-rule="evenodd" fill="none" stroke="#000000" stroke-width="1.3542" stroke-linecap="round" d="
				M26.361,88.475c1.784-1.621,3.173-3.574,4.394-5.633"/>
			<path fill-rule="evenodd" clip-rule="evenodd" fill="none" stroke="#000000" stroke-width="1.3593" stroke-linecap="round" d="
				M25.086,65.941c-1.5-0.895-2.693-2.291-3.26-3.943"/>
			<path fill-rule="evenodd" clip-rule="evenodd" fill="none" stroke="#000000" stroke-width="1.3913" stroke-linecap="round" d="
				M9.354,57.492c-8.892-5.035-7.15-18.297-0.871-25.388c3.179-3.589,7.936-4.37,12.58-4.908c-1.435-5.638,5.592-11.722,10.4-7.167"
				/>
			<path fill-rule="evenodd" clip-rule="evenodd" fill="none" stroke="#000000" stroke-width="1.3806" stroke-linecap="round" d="
				M32.346,20.407c1.346-1.882,2.263-3.734,3.962-5.404c6.273-6.162,18.286-6.13,23.076,1.225"/>
			<path fill-rule="evenodd" clip-rule="evenodd" fill="none" stroke="#000000" stroke-width="1.3557" stroke-linecap="round" d="
				M37.274,56.084C38.85,55.082,40,53.574,40.959,52"/>
			<path fill-rule="evenodd" clip-rule="evenodd" fill="none" stroke="#000000" stroke-width="1.3795" stroke-linecap="round" d="
				M42.802,52c4.45,6.125,14.123,5.773,19.417,0.984"/>
			<path fill-rule="evenodd" clip-rule="evenodd" fill="none" stroke="#000000" stroke-width="1.3548" stroke-linecap="round" d="
				M74.833,57.07c0.949-0.707,1.793-1.564,2.433-2.561"/>
			<path fill-rule="evenodd" clip-rule="evenodd" fill="none" stroke="#000000" stroke-width="1.3533" stroke-linecap="round" d="
				M80.502,61.998c1.488-0.549,2.642-1.736,3.401-3.098"/>
			<path fill-rule="evenodd" clip-rule="evenodd" fill="none" stroke="#000000" stroke-width="1.3698" stroke-linecap="round" d="
				M42.944,89.744c1.327,2.207,3.073,4.174,5.102,5.773"/>
			<path fill-rule="evenodd" clip-rule="evenodd" fill="none" stroke="#000000" stroke-width="1.3621" stroke-linecap="round" d="
				M49.18,95.518c2.113-1.531,4.035-3.393,5.386-5.633"/>
			<path fill-rule="evenodd" clip-rule="evenodd" fill="none" stroke="#000000" stroke-width="1.3808" stroke-linecap="round" d="
				M69.163,88.334c-1.789-3.1-3.991-4.514-4.551-7.934c-0.589-3.611-1.242-7.26-1.106-11.436c4.267-1.334,7.492-4.506,10.777-7.33"
				/>
			<path fill-rule="evenodd" clip-rule="evenodd" fill="none" stroke="#000000" stroke-width="1.3628" stroke-linecap="round" d="
				M64.912,63.125c1.318-1.332,2.779-2.488,4.11-3.803"/>
		</g>
	</g>
</g>
</svg>
