<?xml version="1.0" encoding="utf-8"?>
<!-- Generator: Adobe Illustrator 14.0.0, SVG Export Plug-In . SVG Version: 6.00 Build 43363)  -->
<!DOCTYPE svg PUBLIC "-//W3C//DTD SVG 1.1//EN" "http://www.w3.org/Graphics/SVG/1.1/DTD/svg11.dtd">
<svg version="1.1" id="Ebene_1" xmlns="http://www.w3.org/2000/svg" xmlns:xlink="http://www.w3.org/1999/xlink" x="0px" y="0px"
	 width="100px" height="100px" viewBox="0 0 100 100" enable-background="new 0 0 100 100" xml:space="preserve">
<circle fill="#B2B2B2" cx="50" cy="50" r="50"/>
<g>
	<g>
		<path fill-rule="evenodd" clip-rule="evenodd" d="M46.961,65.93c-1.026,0.563-1.825,1.551-2.94,2.219
			c-3.192,1.915-8.421,2.804-12.815,1.189c-4.798-1.764-8.965-5.958-9.348-11.966c-0.218-3.411,0.903-5.605,1.96-7.845
			c-3.562-2.825-6.732-6.363-7.086-12.362c-0.384-6.508,2.461-11.36,6.333-14.264c3.643-2.733,10.249-4.476,15.529-1.823
			c-0.238-6.35,2.082-11.323,5.503-14.422c3.044-2.758,8.188-4.645,13.343-3.09c4.15,1.251,7.479,4.496,9.272,8.479
			c1.758,3.905,2.481,10.503,0.151,14.897c6.636,0.708,12.166,3.527,14.398,8.955c0.592,1.44,0.961,3.078,0.829,5.151
			c-0.412,6.458-5.683,10.243-11.006,11.807c1.275,2.189,2.586,4.029,2.337,7.687c-0.354,5.177-4.479,8.802-8.972,10.144
			c-5.65,1.688-11.271-0.206-14.398-3.17c0.578,5.627,1.289,11.113,2.036,16.562c3.398-8.74,10.221-13.343,21.635-14.025
			c1.459-0.087,3.934-0.356,4.297,0.555c0.377,0.943-0.973,3.944-1.281,4.754C72.82,85.671,65.367,92.988,51.107,91.763
			c-3.104,1.141-6.528,1.936-10.554,1.744c-8.973-0.429-14.869-6.31-19.072-12.045c-0.349-0.476-0.881-1.094-1.357-1.823
			c-0.492-0.753-1.105-1.411-1.056-2.06c0.092-1.196,2.492-1.771,3.468-2.14c1.492-0.563,2.774-0.975,4.222-1.269
			c10.713-2.173,18.038,4.295,22.314,10.223c0.064-0.015,0.071,0.031,0.075,0.079C48.382,78.647,47.495,72.264,46.961,65.93z
			 M64.45,27.022c1.398-2.799,2.1-6.342,1.584-9.826C65.075,10.723,60.15,5.207,53.369,5.23c-3.896,0.014-7.134,2.049-9.197,4.596
			c-2.12,2.617-3.712,6.349-3.392,10.777c0.125,1.722,0.534,3.186,0.678,4.992c-1.911-1.57-4.169-2.999-7.011-3.407
			c-6.695-0.962-11.77,2.749-14.021,7.211c-1.805,3.577-1.992,8.262-0.452,11.966c1.425,3.428,3.836,5.854,7.162,7.291
			c-1.417,2.337-2.881,3.932-3.091,7.29c-0.396,6.35,4.385,10.413,9.197,11.569c4.336,1.043,8.467-0.293,11.082-2.456
			c0.584-0.483,2.152-1.51,2.337-2.536c0.201-1.115-0.428-2.312-0.301-3.565c-4.626-0.478-7.978-2.383-10.479-5.23
			c-2.464-2.807-4.373-6.618-4.373-11.648c0-5.176,1.857-8.784,4.373-11.649c2.408-2.743,5.902-4.963,10.479-5.23
			c5.076-0.295,9.021,1.743,11.76,4.358c2.698,2.575,4.844,6.552,5.126,11.332c0.344,5.817-1.73,9.849-4.372,12.837
			c-2.333,2.64-5.459,4.548-9.499,5.071c0.174,1.659-0.033,3.125,0.377,4.438c0.579,1.855,2.493,3.301,4.071,4.2
			c6.182,3.523,14.434,0.91,16.811-4.675c1.401-3.292,0.205-6.907-1.658-8.876c-0.802-0.847-1.985-1.295-2.639-2.298
			c0.953-0.018,1.622-0.663,2.337-0.713c0.297-0.021,0.533,0.115,0.829,0.079c1.238-0.151,2.553-0.768,3.694-1.268
			c3.199-1.401,6.356-4.498,6.709-8.479c0.291-3.284-1.089-5.77-2.563-7.369c-2.361-2.563-7.296-5.036-11.836-4.438
			c-0.926,0.122-1.539-0.316-2.412-0.158C63.508,28.279,64.065,27.794,64.45,27.022z M41.911,28.686
			c-3.61,1.643-6.121,4.738-7.388,8.32c-1.063,3.005-1.062,6.3-0.302,9.113c2.079,7.692,10.368,13.403,19.073,9.113
			c4.119-2.03,7.864-6.664,7.84-13.234c-0.019-4.831-2.13-8.269-4.372-10.539c-2.391-2.42-5.879-4.299-10.705-3.883
			C44.459,27.714,43.13,28.131,41.911,28.686z M53.067,89.703c13.229,0.224,19.166-7.22,22.465-17.434
			C62.609,72.367,54.794,77.835,53.067,89.703z M42.212,80.272c-3.243-2.619-7.135-4.685-12.74-4.278
			c-2.912,0.211-5.204,1.163-7.614,2.06c2.463,4.194,6.151,8.224,10.705,10.777c4.482,2.515,11.946,3.431,17.414,0.951
			C48.068,86.269,45.446,82.885,42.212,80.272z"/>
		<g>
		</g>
	</g>
</g>
</svg>
