<?xml version="1.0" encoding="utf-8"?>
<!-- Generator: Adobe Illustrator 14.0.0, SVG Export Plug-In . SVG Version: 6.00 Build 43363)  -->
<!DOCTYPE svg PUBLIC "-//W3C//DTD SVG 1.1//EN" "http://www.w3.org/Graphics/SVG/1.1/DTD/svg11.dtd">
<svg version="1.1" id="Ebene_1" xmlns="http://www.w3.org/2000/svg" xmlns:xlink="http://www.w3.org/1999/xlink" x="0px" y="0px"
	 width="100px" height="100px" viewBox="0 0 100 100" enable-background="new 0 0 100 100" xml:space="preserve">
<circle fill="#B2B2B2" cx="50" cy="50" r="50"/>
<g>
	<g>
		<path fill-rule="evenodd" clip-rule="evenodd" d="M62.508,20.509c2.208,3.375,2.842,8.324,3.48,13.268l-0.436,0.326l-0.326,0.435
			c-8.854-0.128-18.387-0.493-26.208-1.849c-7.987-1.385-14.617-3.221-21.315-5.873c-0.75,0.483-2.996,0.411-4.241,0.761v-0.544
			l-0.326-0.435c0.831-0.473,2.085-0.525,3.371-0.543c0.886-2.413,1.818-4.779,3.262-6.634l0.327,0.435l0.435,0.326
			c0.031,0.176-0.103,0.187-0.108,0.326c12.464,5.009,26.755,8.189,43.718,8.7c-0.336-3.108-1.361-5.527-2.393-7.939l0.435-0.326
			L62.508,20.509z"/>
		<path fill-rule="evenodd" clip-rule="evenodd" d="M67.837,38.126l0.435,0.326c-1.093,1.007-3.131,1.023-5.111,0.87l-0.598-0.45
			l-0.599,0.45c-0.544,0.073-0.842-0.101-1.305-0.108c0,0.181,0,0.362,0,0.543h-0.544l-0.435,0.327
			c-0.228-0.498-0.461-0.989-0.652-1.523l0.525-0.126l0.345-0.417c2.509,0.022,5.739,0.598,7.612-0.326L67.837,38.126z"/>
		<path fill-rule="evenodd" clip-rule="evenodd" d="M58.267,51.938l0.436,0.326c0,0.036,0,0.072,0,0.108
			c5.409,2.521,8.643,7.169,11.527,12.615c0.633,1.195,1.754,4.96,2.936,5.111c0.797,0.103,1.426-1.014,2.176-1.414
			c1.862-0.993,3.825-0.323,4.894,1.088c1.957,2.586,2.385,7.418,3.479,10.875c-4.126,2.41-10.162,2.284-16.095,2.284
			c-5.913,0-12.082-0.54-17.4-0.87c-1.117-0.069-2.76-0.212-3.697,0c-0.534,0.12-1.371,0.936-1.957,1.196
			c-3.768,1.676-9.599,2.022-12.724-0.326l0.435-0.326l0.326-0.436c0.887,0.238,1.751,1.075,2.719,0.87
			c-1.405-4.353-0.118-10.572,0.326-14.682c-0.498,0.771-0.664,1.874-1.522,2.284c-0.588-0.064-0.659-0.646-1.087-0.87
			c-1.104,3.319-2.541,6.304-2.393,10.875l-0.435,0.326l-0.326,0.436c-0.293-0.033-0.195-0.458-0.435-0.544l-0.327-0.436
			l-0.435-0.326c1.313-1.007,0.774-3.865,1.522-5.438c-1.938-0.453-4.303-0.481-6.742-0.435c-1.187-0.958-2.845,0.367-4.133,0.87
			c-0.999,0.39-1.903,0.786-2.61,1.087l-0.326-0.435l-0.435-0.326c0.999-0.886,2.64-1.13,3.806-1.849l0.327-0.436V72.6
			c1.27,0.432,2.794,0.117,3.588-0.543l0.327,0.435l0.326,0.435c2.029,0.255,4.598-0.03,6.09,0.762
			c0.899-2.255,1.398-4.909,2.719-6.742l0.326,0.435l0.435,0.326c-0.191,0.488-0.559,1.074,0.109,1.306
			c0.34-1.044,1.553-2.353,1.414-3.154l-0.326-0.435l-0.435-0.326c1.354-1.707,4.773-2.815,7.178-1.306
			c0.398-0.942,0.858-1.823,1.087-2.936c-3.257,0.466-7.289,0.213-9.896-0.653l0.326-0.435v-0.544
			c1.6-0.574,3.865-2.777,5.111-4.023c4.335-4.336,7.958-9.781,9.461-16.639c-10.727-0.801-20.609-2.446-29.689-4.894
			c-1.434,3.383-1.415,9.244,0,12.615h-0.543l-0.435,0.326c-1.62,0.192-3.01,0.615-4.567,0.87c0.863,2.339,3.467,4.344,6.525,3.154
			c0-0.073,0-0.146,0-0.218l0.435-0.326l0.326-0.435c0.809,1.003,1.511,2.114,2.393,3.045l-0.435,0.326l-0.326,0.435
			c-0.578,0.147-0.905,0.546-1.414,0.762c0.77,3.58,1.402,7.298,2.066,10.983c0.278,0.012,0.519,0.062,0.652,0.218l-0.326,0.435
			v0.544c-2.13-0.525-3.451,0.575-4.35,1.631l-0.344-0.417l-0.525-0.127c0.909-0.897,0.5-2.275,0.217-4.132
			c-0.415-2.722-0.959-6.061-1.196-8.809c-4.92-0.735-7.429-3.882-8.047-8.918c1.981-1.39,4.671-2.071,7.938-2.175
			c-0.746-3.367-0.046-7.307,0.761-10.114c-0.771-0.57-2.198-0.485-2.827-1.196l0.435-0.326l0.326-0.435
			c10.738,3.544,23.194,5.371,36.54,6.308c0.374-0.133,0.277-0.737,0.652-0.87l0.326,0.435l0.435,0.326
			c-0.56,1.087-0.632,2.627-0.217,3.915h-0.544l-0.435,0.326c-0.118-0.027-0.074-0.216-0.218-0.217
			c-2.566,6.951-7.068,12.471-11.745,17.509c-0.212,0.229-0.791,0.44-0.544,0.87c8.901-0.162,14.453-3.673,18.705-8.482
			L58.267,51.938z M18.138,59.224c0.44,2.062,0.677,4.325,1.087,6.416c0.585-0.212,1.162-0.433,1.849-0.543
			c-0.361-2.031-0.756-4.03-1.087-6.091C19.257,58.966,18.842,59.239,18.138,59.224z M38.8,69.338
			c1.677-0.498,2.948-1.403,4.459-2.066c-0.978-1.633-2.088-3.133-4.785-3.045C38.419,66.094,38.502,67.824,38.8,69.338z
			 M36.625,83.366c3.238,0.063,6.235-0.275,8.265-1.631c4.041-2.699,0.205-10.088-0.979-13.485c-1.823,0.823-3.403,1.89-5.438,2.501
			c-0.99-0.713-1.051-2.356-1.305-3.806C36.363,71.716,34.987,78.493,36.625,83.366z"/>
		<path fill-rule="evenodd" clip-rule="evenodd" d="M24.119,38.018c1.395-0.529,0.817,1.999,0.761,3.045
			c-0.055,1.037,0.241,3.379-0.87,3.371c-1.171-0.008-0.595-2.095-0.544-3.045C23.543,39.96,23.126,38.394,24.119,38.018z"/>
		<path fill-rule="evenodd" clip-rule="evenodd" d="M34.668,39.214c0.508,1.299,0.547,4.581,0,5.873c-0.254,0-0.507,0-0.761,0
			c-0.5-1.398-0.579-4.21-0.217-5.764C33.947,39.124,34.318,39.039,34.668,39.214z"/>
		<path fill-rule="evenodd" clip-rule="evenodd" d="M28.469,45.63c0.341,0.636,0.908,2.172,0.217,2.828
			c-0.437,0.075-0.621-0.104-0.979-0.109C27.25,47.501,26.618,45.001,28.469,45.63z"/>
		<path fill-rule="evenodd" clip-rule="evenodd" d="M37.822,76.515c-1.115-0.743-1.204-3.333-0.652-4.784
			c1.859-0.563,4.907-0.617,6.633,0.108c0.277,1.481,0.013,3.341-0.761,4.133l-0.327-0.436L42.28,75.21
			c0.277-0.702,0.512-1.445,0.435-2.501c-1.275-0.325-3.032-0.228-4.458-0.109c-0.276,1.042-0.085,2.448,0.326,3.154l-0.435,0.326
			L37.822,76.515z"/>
		<g>
			<path fill-rule="evenodd" clip-rule="evenodd" fill="none" stroke="#000000" stroke-width="1.0773" stroke-linecap="round" d="
				M32.275,82.605c-0.748-0.476-1.431-1.021-2.066-1.632"/>
			<path fill-rule="evenodd" clip-rule="evenodd" fill="none" stroke="#000000" stroke-width="1.0884" stroke-linecap="round" d="
				M29.122,80.43c-1.35,1.229-2.907,2.257-4.54,3.074c-1.587-0.311-5.235-2.665-7.343-4.146c-1.502-1.056-2.901-2.493-0.841-3.604"
				/>
			<path fill-rule="evenodd" clip-rule="evenodd" fill="none" stroke="#000000" stroke-width="1.0945" stroke-linecap="round" d="
				M20.096,73.144c-2.233-0.672-3.537-3.507-2.193-5.528"/>
			<path fill-rule="evenodd" clip-rule="evenodd" fill="none" stroke="#000000" stroke-width="1.0888" stroke-linecap="round" d="
				M14.658,31.819c-1.432-0.946-4.063-3.886-1.196-4.785"/>
			<path fill-rule="evenodd" clip-rule="evenodd" fill="none" stroke="#000000" stroke-width="1.0993" stroke-linecap="round" d="
				M20.096,19.856c9.405-13.29,33.809-13.571,42.086,1.087"/>
			<path fill-rule="evenodd" clip-rule="evenodd" fill="none" stroke="#000000" stroke-width="1.078" stroke-linecap="round" d="
				M52.503,37.256c1.733-2.738,5.877-1.415,7.051,1.178"/>
			<path fill-rule="evenodd" clip-rule="evenodd" fill="none" stroke="#000000" stroke-width="1.1001" stroke-linecap="round" d="
				M67.837,38.126c1.435-1.596-1.126-3.146-2.284-4.024"/>
			<path fill-rule="evenodd" clip-rule="evenodd" fill="none" stroke="#000000" stroke-width="1.088" stroke-linecap="round" d="
				M60.115,39.757c1.831,6.109-5.941,7.859-7.938,1.74"/>
			<path fill-rule="evenodd" clip-rule="evenodd" fill="none" stroke="#000000" stroke-width="1.1082" stroke-linecap="round" d="
				M58.267,51.938c2.871-3.682,4.604-8.37,4.296-13.065"/>
			<path fill-rule="evenodd" clip-rule="evenodd" fill="none" stroke="#000000" stroke-width="1.1054" stroke-linecap="round" d="
				M19.661,50.089c-0.76-1.213-1.399-2.49-1.958-3.806"/>
			<path fill-rule="evenodd" clip-rule="evenodd" fill="none" stroke="#000000" stroke-width="1.0741" stroke-linecap="round" d="
				M22.597,65.857c2.942,0.631,3.871,4.861,1.414,6.634"/>
			<path fill-rule="evenodd" clip-rule="evenodd" fill="none" stroke="#000000" stroke-width="1.0794" stroke-linecap="round" d="
				M33.472,67.38c0.499-0.688,0.99-1.385,1.631-1.957"/>
			<path fill-rule="evenodd" clip-rule="evenodd" fill="none" stroke="#000000" stroke-width="1.0716" stroke-linecap="round" d="
				M33.363,59.768c-4.299-1.199-8.481-3.322-11.418-6.742"/>
			<path fill-rule="evenodd" clip-rule="evenodd" fill="none" stroke="#000000" stroke-width="1.0983" stroke-linecap="round" d="
				M42.715,75.536c-0.931,1.517-3.485,2.473-4.567,0.544"/>
		</g>
	</g>
</g>
</svg>
