<?xml version="1.0" encoding="utf-8"?>
<!-- Generator: Adobe Illustrator 14.0.0, SVG Export Plug-In . SVG Version: 6.00 Build 43363)  -->
<!DOCTYPE svg PUBLIC "-//W3C//DTD SVG 1.1//EN" "http://www.w3.org/Graphics/SVG/1.1/DTD/svg11.dtd">
<svg version="1.1" id="Ebene_1" xmlns="http://www.w3.org/2000/svg" xmlns:xlink="http://www.w3.org/1999/xlink" x="0px" y="0px"
	 width="100px" height="100px" viewBox="0 0 100 100" enable-background="new 0 0 100 100" xml:space="preserve">
<circle fill="#B2B2B2" cx="50" cy="50" r="50"/>
<g>
	<g>
		<path fill-rule="evenodd" clip-rule="evenodd" d="M70.827,15.655c0.598,0,1.195,0,1.793,0c0.538,1.347,1.393,2.377,1.931,3.724
			c1.069-1,1.713-2.426,2.483-3.724c0.552,0,1.104,0,1.655,0c-0.504,1.657-1.6,2.723-2.345,4.138
			c0.326,0.317,1.237,0.049,1.793,0.138c0,0.276,0,0.552,0,0.828c-0.624,0.295-1.774,0.065-2.621,0.138c0,0.23,0,0.46,0,0.69
			c0.571,0.394,2.044-0.113,2.621,0.276c0,0.275,0,0.551,0,0.827c-0.828,0-1.655,0-2.483,0c-0.255,0.296-0.093,1.011-0.138,1.518
			c-0.552,0-1.104,0-1.655,0c0-0.46,0-0.92,0-1.379c-0.551-0.369-1.932,0.093-2.482-0.276c0-0.23,0-0.46,0-0.689
			c0.58-0.293,1.68-0.067,2.482-0.138c0-0.23,0-0.46,0-0.689c-0.526-0.393-1.949,0.11-2.482-0.276c0-0.276,0-0.552,0-0.828
			c0.598,0,1.195,0,1.793,0C72.548,18.349,71.339,17.351,70.827,15.655z"/>
		<path fill-rule="evenodd" clip-rule="evenodd" d="M27.655,52.759c-0.32,0.093-0.369,0.458-0.69,0.552
			c-0.904-0.521-1.357-1.493-2.069-2.207C25.705,49.223,27.028,51.938,27.655,52.759z"/>
		<path fill-rule="evenodd" clip-rule="evenodd" d="M24.207,51.241c0.916,0.693,1.461,1.758,2.345,2.483
			c-0.151,0.492-0.473,0.813-0.965,0.965c-0.594-0.924-1.391-1.644-2.069-2.482C23.594,51.732,23.918,51.505,24.207,51.241z"/>
		<path fill-rule="evenodd" clip-rule="evenodd" d="M25.172,55.104c-0.32,0.094-0.369,0.458-0.689,0.552
			c-0.776-0.604-1.425-1.334-1.931-2.207C23.564,52.187,24.577,54.271,25.172,55.104z"/>
		<path fill-rule="evenodd" clip-rule="evenodd" d="M25.448,63.518c-0.044,0.323-0.427,0.309-0.552,0.552
			c-1.07-0.794-1.014-2.087-2.207-2.896c-0.767,0.321-1.015-0.249-1.379-0.69c0.498-0.974,1.511-1.431,2.207-2.207
			c-0.038-0.283-0.368-0.274-0.552-0.413c0.799-1.531-1.086-2.036-1.655-3.035C21.358,54.37,21.723,54.229,22,54
			c0.714,0.702,2.253,1.611,1.793,2.621c0.668,0.435,1.684,0.522,2.621,0.689c-0.299-0.62-0.747-1.092-1.241-1.518
			c0.151-0.492,0.473-0.814,0.966-0.966c0.387,0.722,1.046,1.659,1.655,0.69c-0.094-0.504-0.522-0.673-0.689-1.104
			c0.303-1.219,1.165-0.637,1.655,0c0.488,0.074,0.339-0.488,0.828-0.414c0.151,0.4,0.44,0.663,0.689,0.966
			c0.024,0.484-0.466,0.453-0.552,0.827c0.554,0.457,0.576,1.447,1.655,1.38c0.137,0.368,0.284,0.727,0.276,1.241
			c-0.61,0.263-1.492,0.255-2.207,0.413c0.064,0.442,0.525,0.486,0.552,0.966c-0.043,0.463-0.461,0.55-0.828,0.689
			c-0.71-0.622-0.875-1.791-2.207-1.793c-0.003,0.604,1.153,1.236,1.379,2.069c-0.32,0.093-0.369,0.458-0.689,0.552l-0.414-0.552
			l-0.552-0.414c-0.611-0.584-0.925-1.465-1.793-1.793c-0.049,0.181-0.243,0.217-0.276,0.414l-0.769,0.058l-0.059,0.77
			c-0.046,0-0.092,0-0.138,0c-0.669,0.868,0.761,1.613,1.241,2.207l0.023,0.851L25.448,63.518z M28.207,57.448
			c0.368,0,0.735,0,1.104,0C29.354,56.258,27.908,56.747,28.207,57.448z"/>
		<path fill-rule="evenodd" clip-rule="evenodd" d="M34.827,62.552c0.117-0.025,0.13,0.054,0.138,0.138
			c0.524-0.027,0.523-0.58,1.104-0.552c0.738,0.574,1.059,1.329,0.138,1.932l-0.382,0.382l-0.308,0.445
			c-0.117,0.025-0.13-0.054-0.138-0.138c-0.443,0.108-0.603,0.501-0.966,0.689c0.633,0.931,1.689,1.438,2.207,2.482
			c-0.78,1.216-3.419,0.653-4.689,0.69l-0.636-0.069l-0.605,0.207c-0.278-0.596-0.613-1.134-1.241-1.38l0.41-0.475l0.003-0.629
			c-0.018-0.982-0.02-1.95,0.138-2.758c0.695-0.006,0.901,0.478,1.379,0.689c-0.244,0.725-0.169,2.019,0,2.759
			c0.769,0.426,1.936,0.455,3.172,0.413c-0.364-0.923-1.321-1.253-1.793-2.068l0.482-0.448l-0.069-0.655
			c0.504-0.002,0.62-0.393,0.966-0.552c0-0.092,0-0.184,0-0.276l0.382-0.382L34.827,62.552z"/>
		<path fill-rule="evenodd" clip-rule="evenodd" d="M38.965,71.655c-0.319-0.278-0.737-0.458-0.827-0.966
			c1.235-0.557,2.926-3.416,4-1.241c-0.728,0.514-1.484,0.999-2.069,1.655h-0.689L38.965,71.655z"/>
		<path fill-rule="evenodd" clip-rule="evenodd" d="M41.241,73.104l0.069-0.896c0.046,0,0.092,0,0.138,0l0.069,0.896l0.896,0.069
			c0,0.046,0,0.092,0,0.138l-0.482,0.345l-0.345,0.482c-0.111-0.073-0.224-0.144-0.414-0.138l-0.451-0.451l-0.515-0.376
			c-0.025-0.118,0.054-0.131,0.138-0.139L41.241,73.104z"/>
		<path fill-rule="evenodd" clip-rule="evenodd" d="M37.753,75.777l0.798,0.153c0,0.046,0,0.093,0,0.139h-0.69l-0.414,0.552
			c-0.243-0.125-0.427-0.309-0.552-0.552l0.552-0.414v-0.689c0.092,0,0.184,0,0.276,0L37.753,75.777z"/>
		<path fill-rule="evenodd" clip-rule="evenodd" d="M35.354,73.431l-0.113,0.845c-0.719,0.605-0.973-0.235-1.517-0.551
			c0.937-1.087,2.232-1.814,3.311-2.759c0.363,0.326,0.831,0.548,0.965,1.104c-0.655,0.402-1.304,0.811-1.793,1.379L35.354,73.431z"
			/>
		<path fill-rule="evenodd" clip-rule="evenodd" d="M61.724,24.069c0.602,0.105,0.756-0.693,1.241-0.276
			c0.662,1.913,1.926,3.224,3.173,4.552l-0.552,0.414l-0.414,0.552c-0.676-0.608-1.226-0.57-1.931,0l-0.414-0.552l-0.552-0.414
			c0.32-0.732-0.137-1.762-0.689-2.069c-2.412,2.094-4.814,4.197-7.448,6.069l-0.414-0.552l-0.552-0.414
			c0.049-0.181,0.243-0.217,0.276-0.414c-0.55,0.09-0.396-0.524-0.414-0.965c0.598,0,1.195,0,1.793,0
			c-0.273-1.391-1.958-2.541-2.345-4.276c0.644,0,1.287,0,1.931,0c0.534,1.122,1.078,2.233,1.793,3.172
			c1.246-0.685,1.782-2.08,2.621-3.172c1.041,0.138,2.138-0.305,1.931-0.965l0.483-0.345L61.724,24.069z"/>
		<path fill-rule="evenodd" clip-rule="evenodd" d="M71.654,35.379l0.552-0.414c0.046,0,0.093,0,0.139,0l0.034,0.931l0.931,0.035
			c0,0.092,0,0.184,0,0.276l-0.552,0.414l-0.413,0.552c-0.483-0.39-0.974-0.773-1.242-1.379L71.654,35.379z"/>
		<path fill-rule="evenodd" clip-rule="evenodd" d="M76.2,43.381l-0.132,0.963c-0.274,0.139-0.589,0.239-0.689,0.552l-0.963,0.131
			L74.413,46c-0.247-0.018-0.291,0.169-0.552,0.138l-0.413-0.551l-0.552-0.414c1.051-1.248,2.331-2.267,3.586-3.31
			c0.024-0.484-0.466-0.454-0.552-0.828l0.552-0.414l0.414-0.552c0.505,0,1.011,0,1.517,0c0-0.23,0-0.459,0-0.689
			c-0.111-0.026-0.138-0.139-0.275-0.138l0.068-0.552l-0.482-0.276c0-0.092,0-0.184,0-0.276l0.601-0.266l0.503-0.424
			c0.266,0.056,0.109,0.535,0.552,0.414l0.574,0.345l0.667-0.069c0.006,0.685,1.433-0.053,1.655,0.414c0,0.23,0,0.46,0,0.689
			c-0.803,0.163-2.367-0.436-2.345,0.552c0.247,0.719,2.098-0.167,2.345,0.552c0,0.23,0,0.46,0,0.69c-0.735,0-1.472,0-2.207,0
			c-0.343,0.208,0.085,1.188-0.275,1.379c-0.623-0.021-1.461,0.173-1.518-0.414c-0.266,0.562-0.951,0.704-1.104,1.379L76.2,43.381z"
			/>
		<path fill-rule="evenodd" clip-rule="evenodd" d="M67.51,51.795l-0.131,0.964c-0.883,0.45-1.416,1.251-2.069,1.931
			c0.351,1.424,1.175,2.997,0.69,4.552c-0.222,0.71-0.868,0.674-1.518,1.241c-0.969,0.847-1.889,2.453-2.759,2.759l-0.414-0.552
			l-0.552-0.414c-2.83,0.153-5.815-0.579-7.586-1.931l0.552-0.414l0.414-0.552c0.997,0.244,1.746,0.737,2.62,1.104
			c0.581-0.063,0.636-0.652,1.104-0.827l0.414,0.552l0.552,0.414c3.146,0.513,7.171-1.648,4.966-4.828
			c-0.586,0.701-1.23,1.345-1.932,1.932l-0.413-0.552l-0.552-0.414c-4.801-4.809-9.49-9.729-14.621-14.207l-0.529-0.437
			l-0.437-0.528c0.866-0.269,1.051-1.629,0.414-2.345l-0.414-0.552l-0.552-0.414c0.445-0.474,0.92-0.918,1.517-1.241l0.414,0.552
			l0.414,0.551c0.268,0.468,0.121,1.35,0.552,1.655l0.414,0.552l0.552,0.414c-0.177,0.375-0.707,0.397-0.828,0.828
			c4.686,4.647,9.512,9.154,14.069,13.931c1.959-1.627,3.798-3.375,5.655-5.104l0.414,0.552l0.552,0.413c0,0.139,0,0.276,0,0.414
			L67.51,51.795z"/>
		<path fill-rule="evenodd" clip-rule="evenodd" d="M54.827,68.759l0.552,0.414c-0.512,0.684-1.342,1.049-1.931,1.654l-0.414-0.552
			l-0.552-0.413c0-0.092,0-0.185,0-0.276l0.966-0.138l0.138-0.966c0.092,0,0.184,0,0.275,0c0.091-0.185,0.295-0.257,0.552-0.275
			L54.827,68.759z"/>
		<path fill-rule="evenodd" clip-rule="evenodd" d="M42.138,80.621l0.551,0.413c-0.448,0.563-0.954,1.069-1.517,1.518L40.758,82
			l-0.552-0.414c-3.893-0.797-7.858-1.521-10.621-3.448l0.552-0.413l0.414-0.552c3.234,1.455,6.682,2.697,11.172,2.896
			L42.138,80.621z"/>
		<path fill-rule="evenodd" clip-rule="evenodd" d="M14.689,58.552l-0.551-0.414c0.404-0.837,1.159-1.323,1.793-1.931l0.414,0.552
			l0.552,0.414c0.192,1.923,1.036,3.193,1.379,4.965h-0.689l-0.552,0.414c-0.717-1.076-0.796-2.791-1.518-3.862
			c-0.077,0.199-0.215,0.337-0.414,0.414L14.689,58.552z"/>
		<path fill-rule="evenodd" clip-rule="evenodd" d="M28.068,44.621l-0.552-0.414c0.521-0.491,0.809-1.214,1.518-1.518l0.414,0.552
			l0.414,0.552c0,0.092,0,0.184,0,0.276l-0.965,0.138l-0.138,0.965c-0.092,0-0.184,0-0.276,0L28.068,44.621z"/>
		<path fill-rule="evenodd" clip-rule="evenodd" d="M38.965,33.724l-0.552-0.414c1.176-2.842,6.745-3.157,9.104-1.104l-0.552,0.414
			l-0.414,0.552c-1.328-0.51-3.105-1.154-4.965-0.689c-0.823,2.187-1.448,6.07-0.552,8.689c0.003-0.134,0.168-0.107,0.276-0.138
			l0.414,0.552L42.275,42c-0.816,0.395-1.3,1.482-0.414,2.207l0.414,0.552l0.552,0.414c-0.093,0.32-0.458,0.369-0.552,0.69
			c0.32,0.415,0.489,0.982,0.689,1.517l-0.552,0.414L42,48.345c-2.273-3.265-3.372-9.047-2.621-14.069L38.965,33.724z"/>
		<path fill-rule="evenodd" clip-rule="evenodd" d="M49.693,34.782l0.168-0.92c0.092,0,0.184,0,0.276,0l0.413,0.551l0.552,0.414
			c-0.375,0.452-0.845,0.81-1.379,1.104l-0.414-0.552l-0.552-0.414c0-0.046,0-0.092,0-0.138L49.693,34.782z"/>
		<path fill-rule="evenodd" clip-rule="evenodd" d="M70.413,48.621l-0.552-0.414c0.356-0.472,0.77-0.886,1.241-1.242l0.414,0.552
			l0.552,0.414c0,0.046,0,0.092,0,0.138l-0.92,0.169l-0.046,0.935c-0.092,0-0.184,0-0.275,0L70.413,48.621z"/>
		<path fill-rule="evenodd" clip-rule="evenodd" d="M73.083,51.113l0.503-0.424c0.266,0.057,0.108,0.535,0.552,0.414l0.574,0.345
			l0.667-0.069c0.046,0.69,1.528-0.057,1.793,0.414c0,0.23,0,0.46,0,0.689c-0.835,0.177-2.48-0.457-2.482,0.552
			c0.284,0.728,2.198-0.175,2.482,0.552c0,0.23,0,0.46,0,0.689c-0.781,0-1.563,0-2.345,0c-0.343,0.209,0.085,1.188-0.276,1.38
			c-0.459,0-0.919,0-1.379,0c-0.037-0.469,0.106-1.118-0.138-1.38c-0.709-0.164-2.139,0.392-2.207-0.413c0-0.092,0-0.185,0-0.276
			c0.221-0.744,2.136,0.205,2.345-0.552c0.133-1.145-1.86-0.162-2.345-0.689c0-0.229,0-0.46,0-0.689c0.552,0,1.104,0,1.655,0
			c0-0.092,0-0.184,0-0.276L73.083,51.113z"/>
		<g>
			<path fill-rule="evenodd" clip-rule="evenodd" fill="none" stroke="#000000" stroke-width="1.2449" stroke-linecap="round" d="
				M68.285,20.502c1.003,3.784,3.497,5.364,6.476,5.36c9.068-0.013,8.13-12.977-0.143-12.828
				C70.926,13.101,67.619,16.512,68.285,20.502"/>
			<path fill-rule="evenodd" clip-rule="evenodd" fill="none" stroke="#000000" stroke-width="1.4237" stroke-linecap="round" d="
				M26.256,61.566c-0.285,0.553-0.766,1.03-1.337,1.284"/>
			<path fill-rule="evenodd" clip-rule="evenodd" fill="none" stroke="#000000" stroke-width="1.3889" stroke-linecap="round" d="
				M26.256,61.566c0.405-0.161,0.676-0.519,0.985-0.808"/>
			<path fill-rule="evenodd" clip-rule="evenodd" fill="none" stroke="#000000" stroke-width="0.9416" stroke-linecap="round" d="
				M26.256,61.566c-0.919-0.735-1.587-1.706-2.405-2.543"/>
			<path fill-rule="evenodd" clip-rule="evenodd" fill="none" stroke="#000000" stroke-width="1.0693" stroke-linecap="round" d="
				M20.51,58.386c0.127,0.059,0.173,0.071,0.246,0.093c0.51-0.213,0.982-0.666,1.22-1.163c-0.229-0.519-0.74-0.937-1.222-1.225
				c-0.58,0.15-1.013,0.651-1.229,1.193C19.746,57.723,20.123,58.085,20.51,58.386"/>
			<path fill-rule="evenodd" clip-rule="evenodd" fill="none" stroke="#000000" stroke-width="1.0811" stroke-linecap="round" d="
				M38.382,66.859c-0.864-0.79-1.75-1.55-2.558-2.408"/>
			<path fill-rule="evenodd" clip-rule="evenodd" fill="none" stroke="#000000" stroke-width="1.1619" stroke-linecap="round" d="
				M32.698,71.396c-0.599-0.854-1.18-1.815-1.403-2.845"/>
			<path fill-rule="evenodd" clip-rule="evenodd" fill="none" stroke="#000000" stroke-width="1.0963" stroke-linecap="round" d="
				M29.858,66.904c-1.104-0.422-2.091-1.149-2.979-1.904"/>
			<path fill-rule="evenodd" clip-rule="evenodd" fill="none" stroke="#000000" stroke-width="0.9996" stroke-linecap="round" d="
				M33.241,64.862c-0.988-0.508-1.538-1.521-2.276-2.311"/>
			<path fill-rule="evenodd" clip-rule="evenodd" fill="none" stroke="#000000" stroke-width="1.0982" stroke-linecap="round" d="
				M34.52,62.997c-0.852-0.867-1.619-1.778-2.42-2.684"/>
			<path fill-rule="evenodd" clip-rule="evenodd" fill="none" stroke="#000000" stroke-width="1.2865" stroke-linecap="round" d="
				M41.517,73.104c0.975-0.851,2.094-1.52,3.172-2.207"/>
			<path fill-rule="evenodd" clip-rule="evenodd" fill="none" stroke="#000000" stroke-width="1.12" stroke-linecap="round" d="
				M46.049,73.616c-0.907,0.363-1.591,1.271-2.573,1.417c-0.623-0.317-1.032-0.92-1.545-1.378"/>
			<path fill-rule="evenodd" clip-rule="evenodd" fill="none" stroke="#000000" stroke-width="1.1655" stroke-linecap="round" d="
				M39.577,78.166c-0.429-0.813-1.237-1.327-1.715-2.097"/>
			<path fill-rule="evenodd" clip-rule="evenodd" fill="none" stroke="#000000" stroke-width="1.1038" stroke-linecap="round" d="
				M37.448,75.655c-0.766-0.655-1.535-1.372-2.094-2.225"/>
			<path fill-rule="evenodd" clip-rule="evenodd" fill="none" stroke="#000000" stroke-width="1.2201" stroke-linecap="round" d="
				M37.753,75.777c0.966-0.775,2.007-1.451,2.968-2.229"/>
			<path fill-rule="evenodd" clip-rule="evenodd" fill="none" stroke="#000000" stroke-width="1.1831" stroke-linecap="round" d="
				M41.241,73.104c-0.458-0.828-1.386-1.208-1.862-2"/>
			<path fill-rule="evenodd" clip-rule="evenodd" fill="none" stroke="#000000" stroke-width="1.2418" stroke-linecap="round" d="
				M72.379,35.896c2.371-5.784,12.408-6.036,13.37,1.393c0.544,4.198-4.546,9.191-9.549,6.092"/>
			<path fill-rule="evenodd" clip-rule="evenodd" fill="none" stroke="#000000" stroke-width="1.2452" stroke-linecap="round" d="
				M74.416,45.028c3.439,0.879,6.359,3.193,5.979,6.955c-0.623,6.165-10.62,8.138-12.481,0.321c-0.101-0.146-0.256-0.33-0.404-0.509
				"/>
			<path fill-rule="evenodd" clip-rule="evenodd" fill="none" stroke="#000000" stroke-width="1.3893" stroke-linecap="round" d="
				M40.758,82c-1.81,1.635-3.315,3.601-5.158,5.16c-12.666-0.436-25.222-9.485-26.375-22.712c1.631-2.119,3.65-3.912,5.463-5.896"/>
			<path fill-rule="evenodd" clip-rule="evenodd" fill="none" stroke="#000000" stroke-width="1.392" stroke-linecap="round" d="
				M16.344,56.759c3.757-4.188,7.903-8.005,11.724-12.138"/>
			<path fill-rule="evenodd" clip-rule="evenodd" fill="none" stroke="#000000" stroke-width="1.3948" stroke-linecap="round" d="
				M29.448,43.241c3.198-3.153,6.34-6.338,9.517-9.517"/>
			<path fill-rule="evenodd" clip-rule="evenodd" fill="none" stroke="#000000" stroke-width="1.2506" stroke-linecap="round" d="
				M51.439,33.37c-5.941-5.992,4.279-14.875,9.802-8.956"/>
			<path fill-rule="evenodd" clip-rule="evenodd" fill="none" stroke="#000000" stroke-width="1.3981" stroke-linecap="round" d="
				M51.439,33.37c0.925-0.248,1.509-1.076,2.284-1.577"/>
			<path fill-rule="evenodd" clip-rule="evenodd" fill="none" stroke="#000000" stroke-width="1.4597" stroke-linecap="round" d="
				M51.439,33.37c-0.134,0.467-0.592,0.694-0.889,1.044"/>
			<path fill-rule="evenodd" clip-rule="evenodd" fill="none" stroke="#000000" stroke-width="1.3731" stroke-linecap="round" d="
				M48.068,40.345c4.845-3.952,9.95-7.583,14.759-11.586"/>
			<path fill-rule="evenodd" clip-rule="evenodd" fill="none" stroke="#000000" stroke-width="1.3957" stroke-linecap="round" d="
				M67.931,50.966c0.788-0.827,1.633-1.589,2.482-2.345"/>
			<path fill-rule="evenodd" clip-rule="evenodd" fill="none" stroke="#000000" stroke-width="1.3721" stroke-linecap="round" d="
				M71.517,47.517c0.644-0.644,1.287-1.287,1.932-1.931"/>
			<path fill-rule="evenodd" clip-rule="evenodd" fill="none" stroke="#000000" stroke-width="1.3881" stroke-linecap="round" d="
				M75.641,39.669c-1.081-0.888-1.941-2.018-2.883-3.048"/>
			<path fill-rule="evenodd" clip-rule="evenodd" fill="none" stroke="#000000" stroke-width="1.3782" stroke-linecap="round" d="
				M71.654,35.379c-2.073-2.16-4.018-4.436-6.068-6.621"/>
			<path fill-rule="evenodd" clip-rule="evenodd" fill="none" stroke="#000000" stroke-width="0.7897" stroke-linecap="round" d="
				M75.641,39.669c0.545-1.059,1.642-0.728,2.565-0.979"/>
			<path fill-rule="evenodd" clip-rule="evenodd" fill="none" stroke="#000000" stroke-width="1.2551" stroke-linecap="round" d="
				M75.965,34.828c1.316,0.386,1.498,2.103,2.359,3.044"/>
			<path fill-rule="evenodd" clip-rule="evenodd" fill="none" stroke="#000000" stroke-width="1.2495" stroke-linecap="round" d="
				M79.953,38.207c0.727-1.099,1.122-2.64,2.253-3.366"/>
			<path fill-rule="evenodd" clip-rule="evenodd" fill="none" stroke="#000000" stroke-width="1.3851" stroke-linecap="round" d="
				M41.724,41.586c1.112-1.08,2.45-1.845,3.586-2.897"/>
			<path fill-rule="evenodd" clip-rule="evenodd" fill="none" stroke="#000000" stroke-width="1.3696" stroke-linecap="round" d="
				M46.689,37.586c0.857-0.762,1.78-1.43,2.621-2.207"/>
			<path fill-rule="evenodd" clip-rule="evenodd" fill="none" stroke="#000000" stroke-width="1.3721" stroke-linecap="round" d="
				M49.693,34.782c-0.683-0.974-1.774-1.512-2.728-2.162"/>
			<path fill-rule="evenodd" clip-rule="evenodd" fill="none" stroke="#000000" stroke-width="1.3783" stroke-linecap="round" d="
				M54.827,68.759c2.11-2.083,4.325-4.042,6.482-6.069"/>
			<path fill-rule="evenodd" clip-rule="evenodd" fill="none" stroke="#000000" stroke-width="1.3835" stroke-linecap="round" d="
				M53.724,59.931c-4.729-2.994-8.35-7.462-11.311-12.138"/>
			<path fill-rule="evenodd" clip-rule="evenodd" fill="none" stroke="#000000" stroke-width="1.384" stroke-linecap="round" d="
				M42.275,44.759c1.149-0.889,2.388-1.67,3.471-2.644"/>
			<path fill-rule="evenodd" clip-rule="evenodd" fill="none" stroke="#000000" stroke-width="1.467" stroke-linecap="round" d="
				M75.641,39.669c0.263,0.337,0.494,0.694,0.842,0.952"/>
			<path fill-rule="evenodd" clip-rule="evenodd" fill="none" stroke="#000000" stroke-width="1.3903" stroke-linecap="round" d="
				M58.275,60.207c1.009-1.067,2.171-1.959,3.173-3.034"/>
			<path fill-rule="evenodd" clip-rule="evenodd" fill="none" stroke="#000000" stroke-width="1.3894" stroke-linecap="round" d="
				M42.138,80.621c3.644-3.435,7.225-6.941,10.896-10.346"/>
			<path fill-rule="evenodd" clip-rule="evenodd" fill="none" stroke="#000000" stroke-width="1.3858" stroke-linecap="round" d="
				M53.448,69.448c-2.864-1.028-6.733-2.041-9.892-3.901c-7.203-4.244-10.831-11.908-13.97-20.149
				c-0.181-0.475-0.229-0.725-0.69-1.191"/>
			<path fill-rule="evenodd" clip-rule="evenodd" fill="none" stroke="#000000" stroke-width="1.3015" stroke-linecap="round" d="
				M74.712,51.448c0.757-1.111,1.228-2.631,2.391-3.365"/>
			<path fill-rule="evenodd" clip-rule="evenodd" fill="none" stroke="#000000" stroke-width="1.3289" stroke-linecap="round" d="
				M73.083,51.113c-0.686-0.934-1.07-2.079-1.935-2.875"/>
			<path fill-rule="evenodd" clip-rule="evenodd" fill="none" stroke="#000000" stroke-width="1.3803" stroke-linecap="round" d="
				M30.138,77.725c-5.952-3.379-10.311-9.161-12.552-15.587"/>
		</g>
	</g>
</g>
</svg>
