<?xml version="1.0" encoding="utf-8"?>
<!-- Generator: Adobe Illustrator 14.0.0, SVG Export Plug-In . SVG Version: 6.00 Build 43363)  -->
<!DOCTYPE svg PUBLIC "-//W3C//DTD SVG 1.1//EN" "http://www.w3.org/Graphics/SVG/1.1/DTD/svg11.dtd">
<svg version="1.1" id="Ebene_1" xmlns="http://www.w3.org/2000/svg" xmlns:xlink="http://www.w3.org/1999/xlink" x="0px" y="0px"
	 width="100px" height="100px" viewBox="0 0 100 100" enable-background="new 0 0 100 100" xml:space="preserve">
<circle fill="#B2B2B2" cx="50" cy="50" r="50"/>
<g>
	<g>
		<path fill-rule="evenodd" clip-rule="evenodd" d="M51.623,26.298c0.372,0.065,0.669,0.204,0.873,0.436
			c6.127-0.211,13.605-2.063,20.356-1.163c0.467,0.062,1.183,0.199,1.6,0.582c0.041,1.156-0.677,1.554-1.163,2.181l-0.437-0.582
			l-0.582-0.436c-4.03-0.411-9.384-0.138-13.813,0.291c-3.599,0.348-6.114,1.395-7.852-0.291l0.582-0.437L51.623,26.298z"/>
		<path fill-rule="evenodd" clip-rule="evenodd" d="M69.362,34.004h0.728c-0.077,1.483-1.372,1.321-2.617,1.018
			c-0.12,0.656,1.429,0.895,1.454,1.891c-2.398,3.176-4.637,6.511-6.544,10.178c-0.495,0.135-0.853,0.407-1.599,0.291
			c0.484,0.442,1.128,2.036-0.146,2.617l-0.437-0.582l-0.582-0.436c-0.042-1.073-1.192-1.038-1.163-2.182
			c0.435-0.874,1.763-0.855,2.908-1.018c0.142-0.634,0.504-1.047,0.728-1.6c-0.21-0.081-0.355-0.227-0.437-0.436l0.582-0.436
			l0.436-0.582c0.098,0,0.194,0,0.291,0c0.438-0.726,1.052-1.275,1.309-2.181l0.932-0.21l-0.06-0.953
			c0.611-0.794,1.262-1.549,1.745-2.472c-0.808-1.422-2.688-1.771-2.908-3.781c1.391-0.719,3.121,0.498,4.799,0.437L69.362,34.004z"
			/>
		<path fill-rule="evenodd" clip-rule="evenodd" d="M58.021,53.488h0.727c-0.231,1.077-0.455,2.163-0.727,3.199
			c2.77,0.72,5.479,1.5,7.852,2.617c0.299,0.542-0.013,0.952-0.291,1.309c2.966,0.572,6.139,0.938,7.997,2.617
			c-0.135,1.513-1.232,2.063-1.744,3.199c1.313,3.193,2.695,6.319,2.908,10.614c-1.486,0.986-3.545,1.399-5.962,1.454
			c-0.258,0.276-0.136,0.932-0.437,1.164c-6.02,2.577-17.456,3.974-22.538-0.437l0.46-0.558l0.557-0.46
			c0.235,0.041,0.25-0.138,0.436-0.146c0.294-1.285,0.64-2.878,1.019-4.362c0.309-1.213,0.324-3.304,2.035-3.199
			c0.246,2.535-1.38,5.556-1.6,8.579c2.077,1.025,4.594,1.61,7.707,1.6c0.178-1.457,0.499-3.368,0.581-5.234
			c0.053-1.195-0.43-3.543,0.582-3.781c1.637-0.385,0.931,3.212,0.872,4.071c-0.143,2.091-0.134,3.3-0.436,4.799
			c3.334-0.35,6.246-1.12,8.869-2.181c-0.333-6.598-2.481-11.381-5.234-15.559c0.571-1.028,1.562-1.638,2.181-2.617
			c-3.043-1.368-7.202-2.395-11.341-2.182c0.473,1.175,0.901,2.395,1.163,3.78c-1.242,1.036-3.129,1.428-4.653,2.182l-0.437-0.582
			l-0.581-0.436c1.057-0.883,2.598-1.279,3.926-1.891c-0.41-1.383-1.009-2.578-1.163-4.217c1.124-1.139,3.727-0.238,5.525-0.291
			c0.274-0.237-0.587-0.568-0.582-1.018l0.582-0.437l0.437-0.581c0.622-0.104,0.205-1.249,0.727-1.454L58.021,53.488z
			 M64.419,62.067c-0.2,0.381-0.663,0.501-0.727,1.019c2.561,3.642,3.934,8.474,4.798,13.813c1.81,0.064,3.29-0.2,4.508-0.728
			c-0.086-4.18-1.813-6.717-3.054-9.742c0.403-1.002,1.152-1.658,1.6-2.617C69.665,62.734,67.005,62.438,64.419,62.067z"/>
		<path fill-rule="evenodd" clip-rule="evenodd" d="M39.991,71.519l-0.436,0.582c-1.02-0.29-1.092-1.909,0-2.181l0.436,0.581
			l0.582,0.437c0,0.048,0,0.097,0,0.146L39.991,71.519z"/>
		<path fill-rule="evenodd" clip-rule="evenodd" d="M52.496,47.963l-0.582,0.437c-0.76-1.567-1.274-3.378-1.745-5.234
			c-1.426,0.271-2.284,1.108-3.635,1.454l-0.437-0.582l-0.582-0.436c1.643-0.941,3.62-2.273,5.816-2.181
			c0.375,1.998,1.296,4.323,1.891,6.543H52.496z"/>
		<path fill-rule="evenodd" clip-rule="evenodd" d="M36.646,54.361l0.582,0.436c-2.892,6.075-4.101,13.833-4.798,22.103
			c-5.184,1.724-12.61,0.627-15.995-2.036l0.582-0.437l0.437-0.581c3.186,1.898,8.694,2.982,13.522,1.89
			c0.697-8.366,1.975-16.152,5.235-21.956L36.646,54.361z"/>
		<path fill-rule="evenodd" clip-rule="evenodd" d="M8.729,64.104l-0.582,0.436C4.26,58.15,4.845,44.393,8.729,38.512l0.582,0.437
			h0.727c-3.428,6.577-3.99,18.111-0.582,25.155H8.729z"/>
		<path fill-rule="evenodd" clip-rule="evenodd" d="M59.62,41.274l-0.436,0.582c-0.825-0.581-2.434-0.377-2.617-1.6
			c0.816-1.286,2.936-0.054,3.635,0.582L59.62,41.274z"/>
		<path fill-rule="evenodd" clip-rule="evenodd" d="M60.784,36.913l-0.437,0.582c-0.831-1.065-5.038-0.69-4.944-2.181
			c0.105-1.658,5.575,0.447,5.962,1.163L60.784,36.913z"/>
		<path fill-rule="evenodd" clip-rule="evenodd" d="M72.562,52.762c-0.365,1.038-1.381,1.629-2.035,2.472
			c-0.571,0.735-0.846,2.227-2.182,2.182c-0.919-0.998-0.104-2.369,0.146-3.49c0.79-3.546,1.842-7.346,3.78-9.742l0.437,0.582
			l0.582,0.437c-0.997,2.493-2.663,5.092-2.908,7.852c0.358-0.466,0.581-1.067,1.163-1.309l0.437,0.581L72.562,52.762z"/>
		<path fill-rule="evenodd" clip-rule="evenodd" d="M33.884,46.509c0.073-0.605,0.509-0.849,0.582-1.454
			c-0.323-0.453-0.92-0.631-1.599-0.727c-0.506,0.948-0.176,2.732-1.018,3.344c-0.291,0-0.582,0-0.873,0
			c-0.698-0.986,0.035-2.673,0.146-3.78c-0.484-0.388-1.516-0.229-2.181-0.437c-0.14,1.399,0.898,3.456-0.146,4.363
			c-2.235,0.103-0.207-4.059-2.181-4.217c-0.132,1.381,0.503,3.049,0.873,4.653c0.353,1.533,1.236,3.409,0.146,4.508
			c-1.482-0.822-1.473-3.149-1.89-4.943c-0.424-1.824-1.059-3.783-1.018-5.38c4.036-1.177,9.37-0.164,11.778,2.036
			c-0.403,1.147-0.933,2.169-1.599,3.054l-0.437-0.582L33.884,46.509z"/>
		<path fill-rule="evenodd" clip-rule="evenodd" d="M31.848,51.453l0.582,0.437c-0.458,0.656-0.605,1.624-1.89,1.454
			c-0.87-0.771,0.145-2.015,0.873-2.473L31.848,51.453z"/>
		<path fill-rule="evenodd" clip-rule="evenodd" d="M79.104,58.869c-2.028,0.642-3.948,2.15-6.252,2.035
			c-0.391-1.618,1.119-2.553,1.745-3.635l0.436,0.581l0.582,0.437c0.644,0.519,1.928-0.766,3.054-0.727v0.727L79.104,58.869z"/>
		<path fill-rule="evenodd" clip-rule="evenodd" d="M25.16,64.685c4.487-0.937,4.879,5.472,1.599,6.253
			C22.526,71.945,20.545,65.648,25.16,64.685z"/>
		<g>
			<path fill-rule="evenodd" clip-rule="evenodd" fill="none" stroke="#000000" stroke-width="1.4411" stroke-linecap="round" d="
				M46.268,78.668c-2.687-1.786-4.681-4.386-6.277-7.149"/>
			<path fill-rule="evenodd" clip-rule="evenodd" fill="none" stroke="#000000" stroke-width="1.4484" stroke-linecap="round" d="
				M39.991,70.501c2.158-3.099,5.219-5.45,8.579-7.125"/>
			<path fill-rule="evenodd" clip-rule="evenodd" fill="none" stroke="#000000" stroke-width="1.4761" stroke-linecap="round" d="
				M56.276,55.088c-1.773-2.032-2.854-4.602-3.78-7.125"/>
			<path fill-rule="evenodd" clip-rule="evenodd" fill="none" stroke="#000000" stroke-width="1.4467" stroke-linecap="round" d="
				M17.017,74.427c-3.876-2.316-6.604-6.164-8.288-10.323"/>
			<path fill-rule="evenodd" clip-rule="evenodd" fill="none" stroke="#000000" stroke-width="1.4844" stroke-linecap="round" d="
				M9.31,38.948c8.354-13.717,27.442-21.166,41.877-12.069"/>
			<path fill-rule="evenodd" clip-rule="evenodd" fill="none" stroke="#000000" stroke-width="1.4577" stroke-linecap="round" d="
				M36.646,54.361c2.178-4.205,5.381-7.884,9.451-10.324"/>
			<path fill-rule="evenodd" clip-rule="evenodd" fill="none" stroke="#000000" stroke-width="1.4422" stroke-linecap="round" d="
				M58.021,53.488c0.523-1.449,1.172-2.903,2.181-4.071"/>
			<path fill-rule="evenodd" clip-rule="evenodd" fill="none" stroke="#000000" stroke-width="1.44" stroke-linecap="round" d="
				M62.238,43.311c-0.833-0.719-1.72-1.396-2.618-2.036"/>
			<path fill-rule="evenodd" clip-rule="evenodd" fill="none" stroke="#000000" stroke-width="1.4675" stroke-linecap="round" d="
				M65.205,40.337c-1.391-1.259-2.813-2.46-4.421-3.425"/>
			<path fill-rule="evenodd" clip-rule="evenodd" fill="none" stroke="#000000" stroke-width="1.4836" stroke-linecap="round" d="
				M69.362,34.004c0.855-2.241,2.126-4.298,3.49-6.252"/>
			<path fill-rule="evenodd" clip-rule="evenodd" fill="none" stroke="#000000" stroke-width="1.4805" stroke-linecap="round" d="
				M71.98,52.325c0.765-0.818,1.44-1.701,2.18-2.541c2.578-0.784,18.97-4.807,12.782-9.909c-4.244-3.5-11.821-0.056-14.235,4.889"/>
			<path fill-rule="evenodd" clip-rule="evenodd" fill="none" stroke="#000000" stroke-width="1.4376" stroke-linecap="round" d="
				M31.848,51.453c0.967-1.442,1.735-3.02,2.617-4.508"/>
			<path fill-rule="evenodd" clip-rule="evenodd" fill="none" stroke="#000000" stroke-width="1.4826" stroke-linecap="round" d="
				M75.033,57.851c3.265-4.654,7.845-7.321,12.928-6.731c3.541,0.411,6.728,4.203,4.518,6.941c-1.232,1.525-4.828,1.758-6.796,1.474
				c-1.871-0.271-2.954-0.801-5.109-1.731c-0.651,0.092-1.268,0.329-1.904,0.484"/>
		</g>
	</g>
</g>
</svg>
