<?xml version="1.0" encoding="utf-8"?>
<!-- Generator: Adobe Illustrator 14.0.0, SVG Export Plug-In . SVG Version: 6.00 Build 43363)  -->
<!DOCTYPE svg PUBLIC "-//W3C//DTD SVG 1.1//EN" "http://www.w3.org/Graphics/SVG/1.1/DTD/svg11.dtd">
<svg version="1.1" id="Ebene_1" xmlns="http://www.w3.org/2000/svg" xmlns:xlink="http://www.w3.org/1999/xlink" x="0px" y="0px"
	 width="100px" height="100px" viewBox="0 0 100 100" enable-background="new 0 0 100 100" xml:space="preserve">
<circle fill="#B2B2B2" cx="50" cy="50" r="50"/>
<g>
	<g>
		<path fill-rule="evenodd" clip-rule="evenodd" d="M26.563,76.525c-4.176,1.196-8.142,2.603-12.365,3.752
			c-1.498-7.768-3.086-15.717-4.552-23.745C9.45,55.456,8.955,54,9.092,53.088c0.083-0.547,1.007-1.45,1.477-1.969
			c1.184-1.305,2.043-2.272,3.26-3.629c0.5-0.557,1.409-1.236,1.6-1.845c0.163-0.519,0.127-1.206,0.185-1.784
			c0.864-8.676,4.516-15.026,9.473-19.808c5.192-5.008,11.665-9.325,21.469-9.781c6.23-0.29,11.638,1.576,15.81,3.568
			c12.018,5.739,15.613,19.563,16.362,36.602c0.069,1.563-0.277,3.278,0,4.798c0.179,0.978,1.495,2.679,2.153,3.199
			c1.223,0.965,3.296,0.788,4.553,0.062c1.843-1.067,3.852-3.48,3.813-6.521c-0.03-2.445-0.974-4.127-1.846-5.906
			c-0.232-0.476-0.439-1.456,0.246-1.661c0.869-0.26,1.339,0.952,1.846,1.784c1.443,2.368,2.647,4.942,3.015,8.058
			c0.592,5.033-1.19,8.785-2.953,11.565c-2.849,4.492-6.942,7.713-11.318,10.888c-1.046,0.759-2.202,1.475-3.384,2.153
			c-0.392,0.225-0.755,0.569-1.107,0.738c-0.786,0.377-1.959,0.649-2.953,0.923c-6.537,1.797-15.453,3.755-23.745,2.337
			c-4.52-0.772-8.282-1.97-11.688-3.752C31.99,81.344,29.271,78.986,26.563,76.525z M89.001,61.454
			c-0.823,1.038-2.387,2.414-3.321,2.829c-2.352,1.044-4.902,0.438-6.337-1.045c-0.741-0.767-1.974-2.543-2.152-3.691
			c-0.225-1.438-0.008-3.049-0.062-4.49c-0.406-10.848-1.811-19.925-5.968-26.883c-2.403-4.023-5.35-6.843-9.78-8.981
			c-4.213-2.033-9.399-3.552-15.563-3.26c-4.553,0.215-8.669,1.801-12.119,3.691c-3.405,1.865-6.334,4.242-8.735,6.89
			c-5.017,5.532-8.454,12.711-7.874,23.068c2.624-1.051,5.824-2.213,8.674-3.383c2.107-0.866,4.406-1.489,6.644-2.399
			c0.652-0.265,1.594-0.902,2.276-0.738c0.733,0.176,0.724,1.695,0.861,2.584c0.477,3.099,1.001,6.033,1.415,8.981
			c3.834-0.787,8.495-0.058,11.564,1.23c0.935,0.392,1.798,0.918,2.83,1.414c0.747,0.359,2.519,0.985,2.215,2.092
			c-0.332,1.208-1.897-0.088-2.522-0.431c-4.113-2.254-10.982-4.35-16.424-1.907c2.347,6.795,7.626,10.758,15.194,12.365
			c0.806,0.171,1.747,0.106,1.723,0.984c-0.011,0.387-0.271,0.509-0.492,0.8c-4.545-0.481-8.662-2.146-11.503-4.43
			c-0.251-0.202-0.433-0.592-0.799-0.554c0.285,2.094,0.664,4.094,0.922,6.213c-3.682,1.219-7.472,2.33-11.196,3.507
			c3.625,3.826,8.643,6.733,14.702,8.489c4.71,1.364,10.388,1.491,15.687,0.923c5.095-0.547,9.991-1.925,14.087-3.199
			c0.501-0.155,1.199-0.697,1.784-1.046c0.535-0.318,1.161-0.706,1.661-1.046c3.241-2.201,6.4-4.634,8.92-7.32
			c3.285-3.503,6.785-8.574,5.413-15.44C90.521,58.731,89.943,60.268,89.001,61.454z M33.207,55.733
			c-1.42,0.589-3.229,0.789-4.737,1.291c-0.13,0.772-0.294,1.511-0.431,2.276c1.215-0.323,2.207-0.868,3.445-1.169
			c-0.14-0.434-0.548-0.6-0.676-1.046c0.297-0.297,0.642-0.547,1.045-0.738c0.533,0.616,1.015,1.282,1.538,1.907
			c-0.168-0.692-0.625-1.222-0.492-1.907c0.193-0.991,1.701-0.932,2.522-1.353c-0.496-3.359-1.013-6.697-1.538-10.027
			c-7.72,2.922-15.451,5.834-23.13,8.797c1.51,8.188,3.074,16.324,4.614,24.483c7.479-2.404,15.128-4.639,22.576-7.074
			c-0.311-1.796-0.585-3.538-0.861-5.229c-0.101-0.618-0.069-1.618-0.308-1.969c-0.967-1.419-2.342-2.956-2.891-4.613
			c-0.382,0.11-0.472,0.513-0.923,0.554c-0.343-0.17-0.34-0.685-0.738-0.8c-2.226,0.85-4.421,1.73-6.89,2.338
			c-0.106-0.387-0.259-0.725-0.308-1.169c0.447-0.188,0.951-0.32,1.477-0.431c0.129-0.854,0.373-1.596,0.492-2.461
			c-0.984,0.144-1.761,0.495-2.707,0.677c-0.191-0.321-0.224-0.802-0.308-1.23c2.996-0.736,5.913-1.551,8.981-2.214
			C33.082,54.955,33.178,55.311,33.207,55.733z M15.306,48.29c-0.807,0.998-1.748,1.862-2.522,2.891
			c0.95-0.281,1.711-0.749,2.707-0.984C15.301,49.688,15.605,48.687,15.306,48.29z"/>
		<path fill-rule="evenodd" clip-rule="evenodd" d="M30.5,30.573c3.398-0.363,5.859,2.245,6.09,5.29
			c0.284,3.749-2.55,6.423-5.721,6.336c-3.168-0.087-5.65-2.903-5.414-6.275c0.132-1.877,0.864-3.058,1.784-3.937
			C28.068,31.196,29.119,30.721,30.5,30.573z M27.485,34.756c-1.042,2.615,0.837,5.281,3.199,5.536
			c2.925,0.316,4.928-2.896,3.875-5.536c-0.597-1.497-2.208-2.511-4.06-2.276C29.029,32.667,27.896,33.726,27.485,34.756z"/>
		<path fill-rule="evenodd" clip-rule="evenodd" d="M43.787,36.048c2.226-0.165,5.145,0.319,6.705,1.292
			c1.178,0.734,2.728,2.641,1.723,4.614c-0.381,0.747-1.276,1.528-2.092,1.968c-3.644,1.968-11.076,1.428-12.856-1.845
			c-0.641-1.179-0.243-2.971,0.431-3.752C38.843,36.995,41.412,36.224,43.787,36.048z"/>
		<path fill-rule="evenodd" clip-rule="evenodd" d="M22.811,43.553c1.414-0.523,2.043,2.03,0.738,2.03
			C22.761,45.583,21.854,44.134,22.811,43.553z"/>
		<path fill-rule="evenodd" clip-rule="evenodd" d="M33.022,52.35c-0.002,0.53-0.171,0.895-0.246,1.354
			c-0.69-0.027-1.062-0.374-1.661-0.492c-0.105,0.128,0.18,0.65,0.062,0.8c-1.916,0.524-3.877,1.003-5.844,1.477
			c-0.118-0.19-0.164-0.452-0.185-0.738c-0.496,0.324-0.818,0.821-1.292,1.169c-0.37-0.205-0.557-0.592-0.8-0.923
			c1.149-1.455,2.512-2.697,3.445-4.368c0.633,0.042,1.111-0.416,1.661-0.369c0.363,0.031,1,0.521,1.415,0.738
			C30.633,51.549,31.717,52.009,33.022,52.35z M25.702,54.134c1.555-0.413,3.176-0.761,4.675-1.23
			c-1.043-0.393-1.961-0.909-2.83-1.477C27.04,52.396,26.16,53.32,25.702,54.134z"/>
		<path fill-rule="evenodd" clip-rule="evenodd" d="M19.735,52.411c0.332,0.59,0.403,1.442,0.553,2.215
			c0.551-0.146,1.161-0.233,1.661-0.431c0.325,0.208,0.258,0.808,0.369,1.23c-0.52,0.198-1.152,0.283-1.723,0.431
			c0.365,1.686,0.711,3.39,1.107,5.044c0.695-0.063,1.2-0.317,1.907-0.369c0.095,0.397,0.2,0.784,0.246,1.23
			c-1.895,0.525-3.897,0.942-5.783,1.477c-0.142-0.392-0.217-0.85-0.308-1.292c0.779-0.287,1.771-0.362,2.522-0.677
			c-0.375-1.654-0.696-3.363-1.107-4.982c-0.702,0.041-1.404,0.394-1.969,0.368c-0.125-0.346-0.202-0.741-0.246-1.168
			c0.665-0.177,1.328-0.354,1.969-0.554c-0.17-0.691-0.379-1.344-0.431-2.153C18.897,52.64,19.464,52.674,19.735,52.411z"/>
		<path fill-rule="evenodd" clip-rule="evenodd" d="M15.121,55.241c0.417,0.098,0.858-0.282,1.353-0.308
			c0.466,0.892,0.271,2.182-0.062,3.075c0.55,0.619,1.355,0.982,1.969,1.538c-0.119,0.476-0.418,0.771-0.677,1.107
			c-0.507-0.416-1.096-0.749-1.599-1.169c0.121,1.355,0.605,2.88,0.861,4.306c-0.41,0.164-0.751,0.397-1.353,0.369
			c-0.251-1.122-0.484-2.264-0.738-3.383c-0.432,0.286-0.534,0.901-1.107,1.046c-0.25-0.386-0.417-0.854-0.615-1.292
			c0.939-1.07,1.851-2.169,2.153-3.876c-0.942,0.104-1.617,0.476-2.522,0.615c-0.151-0.382-0.22-0.846-0.308-1.291
			c0.357-0.197,0.879-0.229,1.292-0.369c-0.056-0.58-0.228-1.044-0.308-1.6c0.345-0.177,0.995-0.348,1.354-0.308
			C14.915,54.217,15.064,54.683,15.121,55.241z"/>
		<path fill-rule="evenodd" clip-rule="evenodd" d="M34.929,62.377c-0.542,0.135-1.049,0.304-1.661,0.369
			c0.515,0.715,1.513,0.947,1.968,1.722c-0.175,0.235-0.354,0.466-0.615,0.615c0.329,1.845,0.925,3.422,1.045,5.476
			c-0.534,0.798-1.784,0.881-2.953,1.045c-0.128-0.302-0.207-0.653-0.246-1.045c0.497-0.262,1.331-0.188,1.723-0.554
			c-0.033-0.173-0.09-0.32-0.123-0.492c-1.673,0.336-3.136,0.883-4.86,1.169c-0.003,0.7,0.283,1.111,0.308,1.783
			c-0.422,0.132-0.831,0.277-1.292,0.369c-0.62-1.758-0.882-3.875-1.353-5.782c2.289-0.704,4.74-1.247,7.136-1.846
			c0.005-0.171-0.406-0.454-0.615-0.615c-2.289,0.828-4.631,1.603-7.136,2.215c-0.086-0.365-0.253-0.649-0.246-1.107
			c0.559-0.138,1.105-0.288,1.661-0.431c0.184-0.308,0.247-0.737,0.369-1.107c-0.789-0.009-1.668,0.424-2.583,0.492
			c-0.142-0.309-0.201-0.701-0.246-1.106c1.371-0.29,2.584-0.738,3.999-0.984c-0.027-0.301-0.126-0.53-0.123-0.861
			c0.417-0.137,0.847-0.261,1.354-0.308c0.105,0.201,0.194,0.421,0.185,0.738c1.353-0.288,2.721-0.561,3.937-0.984
			C34.861,61.378,34.846,61.927,34.929,62.377z M29.516,63.73c-0.109,0.342-0.196,0.706-0.308,1.045
			c1.06-0.272,2.063-0.603,3.076-0.922C31.772,62.916,30.434,63.544,29.516,63.73z M28.531,67.729
			c-0.014,0.198,0.109,0.26,0.062,0.492c1.723-0.308,3.204-0.856,4.921-1.169c-0.051-0.194,0.025-0.517-0.185-0.554
			C31.798,66.977,30.108,67.295,28.531,67.729z M28.839,69.205c0.005,0.22,0.096,0.355,0.123,0.554
			c1.656-0.354,3.131-0.889,4.86-1.169c-0.014-0.232,0.063-0.555-0.185-0.554C32.042,68.43,30.509,68.886,28.839,69.205z"/>
		<path fill-rule="evenodd" clip-rule="evenodd" d="M17.274,68.959c-0.728,0.113-1.241,0.44-2.03,0.492
			c-0.083-0.368-0.163-0.74-0.246-1.107c0.424-0.252,1.05-0.303,1.599-0.431c-0.002-0.387-0.118-0.661-0.185-0.984
			c-0.427,0.086-0.778,0.247-1.292,0.246c-0.054-0.356-0.163-0.657-0.185-1.046c0.402-0.11,0.832-0.193,1.23-0.308
			c0.018-0.325-0.159-0.456-0.123-0.8c0.506-0.026,0.731-0.335,1.292-0.308c0.088,0.22,0.106,0.51,0.185,0.738
			c0.381-0.069,0.72-0.183,1.107-0.246c0.131,0.155,0.085,0.489,0.185,0.677c0.209-0.365,0.196-0.952,0.431-1.292
			c0.31,0.101,0.749,0.071,1.045,0.185c0.043,0.753-0.325,1.594-0.553,2.276c0.059,0.152,0.236-0.085,0.43,0
			c0.146,0.121,0.085,0.448,0.185,0.615c0.335-1.084,0.27-2.93,0.369-3.876c0.37-0.06,0.767-0.094,1.169-0.123
			c0.136,0.397,0.026,1.041,0.062,1.538c0.948-0.125,1.828-0.623,2.707-0.615c-0.004,0.476,0.212,0.731,0.185,1.23
			c-0.116,0.068-0.291,0.079-0.431,0.123c0.246,1.511,0.314,3.644-0.185,4.922c0.426,0.641,1.332,0.801,1.969,1.229
			c0.067,0.328-0.13,0.885-0.246,1.23c-0.951-0.177-1.547-0.709-2.276-1.107c-0.591,0.846-1.299,1.572-2.092,2.215
			c-0.384-0.231-0.706-0.524-0.861-0.984c0.771-0.624,1.533-1.256,1.969-2.215c-0.398-0.75-0.917-1.38-1.23-2.214
			c-0.152,0.258-0.196,0.624-0.308,0.923c-0.446-0.025-0.597-0.347-0.923-0.492c0.324,0.785-0.241,1.228-0.492,1.783
			c0.58-0.076,1.12-0.519,1.599-0.491c0.264,0.187,0.239,0.663,0.308,1.045c-0.623,0.26-1.254,0.51-1.968,0.677
			c0.149,0.651,0.441,1.417,0.246,2.215c-0.625,0.42-1.501,0.59-2.46,0.677c-0.07-0.381-0.264-0.639-0.246-1.107
			c0.394-0.18,1.014-0.134,1.354-0.369c0.008-0.378-0.133-0.605-0.185-0.923c-0.698,0.163-1.377,0.346-2.03,0.554
			c-0.321-0.171-0.302-0.683-0.431-1.046c0.651-0.332,1.534-0.435,2.214-0.738c-0.037-0.146-0.088-0.28-0.062-0.492
			c0.5-0.033,0.66-0.405,0.861-0.737c-0.561,0.034-0.96,0.229-1.477,0.308c-0.389,0.349-0.658,0.817-1.168,1.045
			c-0.286-0.246-0.614-0.452-0.738-0.86C16.211,70.397,16.81,69.745,17.274,68.959z M21.826,66.56
			c0.047,0.334-0.098,0.477-0.062,0.8c0.188,0.045,0.181-0.106,0.369-0.062c0.345,0.804,0.612,1.685,1.107,2.338
			c0.223-1.027,0.098-2.377-0.062-3.384C22.703,66.329,22.264,66.444,21.826,66.56z M17.766,66.56
			c0.04,0.391,0.029,0.833,0.308,0.984c0.269-0.306,0.411-0.737,0.554-1.169C18.288,66.385,18.063,66.509,17.766,66.56z
			 M18.566,69.451c0.476-0.16,0.941-0.33,1.476-0.431c0.04-0.288,0.216-0.44,0.185-0.8C19.39,68.307,18.614,68.781,18.566,69.451z"
			/>
		<g>
		</g>
	</g>
</g>
</svg>
