<?xml version="1.0" encoding="utf-8"?>
<!-- Generator: Adobe Illustrator 14.0.0, SVG Export Plug-In . SVG Version: 6.00 Build 43363)  -->
<!DOCTYPE svg PUBLIC "-//W3C//DTD SVG 1.1//EN" "http://www.w3.org/Graphics/SVG/1.1/DTD/svg11.dtd">
<svg version="1.1" id="Ebene_1" xmlns="http://www.w3.org/2000/svg" xmlns:xlink="http://www.w3.org/1999/xlink" x="0px" y="0px"
	 width="100px" height="100px" viewBox="0 0 100 100" enable-background="new 0 0 100 100" xml:space="preserve">
<circle fill="#B2B2B2" cx="50" cy="50" r="50"/>
<g>
	<g>
		<path fill-rule="evenodd" clip-rule="evenodd" d="M79.271,14.915c1.786,1.507,3.614,3.457,4.708,6.119
			c1.936,4.713,1.18,11.333-0.471,16.005c2.205,3.287,4.63,6.354,5.884,10.592c-1.449,0.052-3.421-0.009-4.942-0.235
			c2.954,7.384,4.991,16.87,4.001,27.42c-1.851,1.254-4.036,2.153-6.354,2.942c-2.275,0.774-4.812,1.317-7.414,1.766
			c-0.443,0.185-0.523,0.731-0.941,0.941c-5.352-0.357-10.156,0.501-14.476,1.529c0.228,0.439,0.29,1.045,0.235,1.766
			c-13.653-1.403-29.255-1.264-42.954,0c-2.375-8.747-2.405-19.209-0.942-28.244c1.028-6.35,3.321-12.381,6.12-17.299
			c0.974-1.711,1.775-3.685,2.825-4.943c1.47-1.762,4.323-2.518,7.061-2.824c0.305-0.201-0.5-0.275-0.471-0.588l0.471-0.353
			l0.353-0.471c2.132,1.438,4.233,2.906,6.354,4.354l-0.471,0.353l-0.353,0.471c-1.653-0.7-2.854-1.853-4.354-2.707
			c-2.583,0.174-6.111,0.897-7.532,2.707c-1.042,1.328-1.745,3.125-2.707,4.825c-2.605,4.605-4.882,10.235-5.884,16.476
			c-1.419,8.836-1.456,18.798,0.706,26.949c12.509-1.19,27.796-1.407,40.248,0c-1.4-12.29-1.923-27.873,0.706-39.188
			c-4.87-1.485-9.748-2.962-13.887-5.178l0.471-0.353l0.353-0.471c11.802,5.145,25.602,8.292,41.778,9.062
			c-0.436-1.479-1.315-2.861-2.472-4.708c-0.737-1.177-1.993-3.924-3.413-3.766c-1.244,0.139-1.09,1.658-2.236,2.118l-0.353-0.471
			l-0.471-0.353c1.411-1.766,2.386-3.969,2.707-6.826c-1.958,0.122-3.688,0.47-5.296,0.941c0.059,1.667-0.177,3.04-0.941,3.884
			c-0.086,0.321,0.233,0.237,0.235,0.471l-0.471,0.353l-0.354,0.471c-1.84,0.229-3.47-1.017-5.178-1.177
			c-2.169-0.204-4.861,0.704-6.355,0c-1.004-0.473-1.171-2.167-1.529-3.413c-6.112-2.125-12.316-4.16-17.535-7.179l0.471-0.353
			l0.353-0.471c5.338,2.468,10.767,4.846,16.829,6.59c0.084-0.858,0.508-1.375,0.589-2.236c-4.298-1.391-8.326-3.05-11.886-5.178
			l0.47-0.353l0.354-0.471c3.788,1.782,7.558,3.583,11.769,4.942c0.236-1.432,1.898-3.016,2.942-1.294l-0.471,0.353l-0.354,0.471
			c-1.79,1.118-2.723,5.214-1.295,7.414c1.614,0.125,3.463,0.194,5.061,0c-0.204-1.773,0.313-2.825,0.824-3.883
			c-0.372-0.491-1.092-0.635-1.412-1.177l0.471-0.353l0.353-0.471c1.372,1.55,5.345,0.242,6.943,1.765
			c2.007-0.435,4.299-1.181,6.708-0.824c0.614,0.275-0.124,1.214,0.589,1.294c2.058-6.726-0.764-13.632-4.59-16.711l0.471-0.353
			L79.271,14.915z M70.093,36.098c0.91,0.542,1.993,0.91,3.413,0.941c0.592-1.134,1.143-2.309,1.059-4.119
			C71.952,31.236,69.398,32.661,70.093,36.098z M81.626,36.687c1.063-0.35,1.003-1.821,1.294-2.942c-0.196,0-0.392,0-0.588,0
			C82.161,34.79,81.829,35.674,81.626,36.687z M60.207,43.629c-0.147,0.048-0.24,0.152-0.235,0.353
			c-2.369,10.702-2.051,25.222-0.706,36.835c3.899-1.317,8.775-1.659,13.887-1.765c5.074-8.405,2.422-23.773-0.235-32.834
			C68.52,45.517,64.218,44.719,60.207,43.629z M74.447,46.572c2.204,7.864,4.257,18.78,2.118,28.126
			c1.84-0.036,4.176-0.714,4.59-2.118c0.395-1.341,0.05-3.857,0-5.649c-0.23-8.282-2.648-14.838-5.179-20.359
			C75.383,46.729,74.846,46.219,74.447,46.572z M82.685,72.697c-1.078,2.256-3.345,3.324-6.708,3.295
			c-0.179,0.802-0.377,1.584-0.823,2.119c4.62-0.676,8.414-2.177,12.004-3.884c0.754-10.682-1.298-19.569-4.237-26.95
			c-1.833-0.05-3.513-0.253-5.178-0.471C80.844,53.982,83.027,62.077,82.685,72.697z"/>
		<path fill-rule="evenodd" clip-rule="evenodd" d="M26.197,24.683l-0.353,0.471c-1.152-1.005-2.288-2.027-3.06-3.413
			c3.678-0.482,8.583-0.72,12.475-0.235c2.017-2.258,3.84-4.711,6.355-6.472l0.353,0.471l0.471,0.353
			c-0.357,0.702-1.243,0.875-1.53,1.647c0.475,0.466,1.142,0.741,1.53,1.294l-0.471,0.353l-0.353,0.471
			c-0.816-0.204-1.021-1.018-1.883-1.177c-0.753,0.856-1.561,1.657-2.236,2.589c0.301,0.916,1.405,1.027,1.883,1.766l-0.471,0.353
			l-0.353,0.471c-0.821-0.317-1.366-0.91-2.001-1.413c-0.062,0.095-0.123,0.191-0.118,0.354c-3.169,0.184-7.387-0.306-11.062,0.118
			c0.23,0.75,1.025,0.936,1.294,1.647L26.197,24.683z"/>
		<path fill-rule="evenodd" clip-rule="evenodd" d="M30.08,42.923c0.025,4.219-7.131,4.344-7.179,0.118
			C22.857,39.061,29.682,38.474,30.08,42.923z"/>
		<path fill-rule="evenodd" clip-rule="evenodd" d="M51.146,43.512c-0.349,0.952-0.398,1.674-0.941,2.236
			c-2.399,2.484-7.815,0.149-6.002-3.648C45.474,39.437,51.024,39.926,51.146,43.512z"/>
		<path fill-rule="evenodd" clip-rule="evenodd" d="M42.319,46.925c2.488,9.803-14.273,10.08-11.416,0
			C33.861,45.494,39.39,45.392,42.319,46.925z M39.495,47.396c-2.113,1.536-4.567,2.729-6.002,4.942
			c3.271,2.163,8.589-0.068,7.532-4.707C40.344,47.723,40.176,47.303,39.495,47.396z"/>
		<path fill-rule="evenodd" clip-rule="evenodd" d="M50.793,47.16c2.13-0.317,5.599,0.085,5.766,2.118
			c0.292,3.532-8.847,3.452-8.943,0.235C47.565,47.871,49.256,47.389,50.793,47.16z"/>
		<g>
			<path fill-rule="evenodd" clip-rule="evenodd" fill="none" stroke="#000000" stroke-width="1.235" stroke-linecap="round" d="
				M31.61,29.508c-1.853-1.54-3.72-3.101-5.414-4.825"/>
			<path fill-rule="evenodd" clip-rule="evenodd" fill="none" stroke="#000000" stroke-width="1.2133" stroke-linecap="round" d="
				M41.966,15.503c10.19-9.112,26.496-8.167,36.953-0.118"/>
			<path fill-rule="evenodd" clip-rule="evenodd" fill="none" stroke="#000000" stroke-width="1.2103" stroke-linecap="round" d="
				M50.557,24.683c-2.992-1.643-5.917-3.42-8.59-5.531"/>
			<path fill-rule="evenodd" clip-rule="evenodd" fill="none" stroke="#000000" stroke-width="1.224" stroke-linecap="round" d="
				M78.919,39.511c-0.253,0.224-0.516,0.463-0.862,0.522c-1.244-0.397-2.361-1.228-3.374-2.052"/>
			<path fill-rule="evenodd" clip-rule="evenodd" fill="none" stroke="#000000" stroke-width="1.206" stroke-linecap="round" d="
				M44.202,26.33c-1.799-0.999-3.65-1.949-5.295-3.177"/>
			<path fill-rule="evenodd" clip-rule="evenodd" fill="none" stroke="#000000" stroke-width="1.2219" stroke-linecap="round" d="
				M68.445,30.685c-1.071-0.856-2.247-1.576-3.295-2.472"/>
			<path fill-rule="evenodd" clip-rule="evenodd" fill="none" stroke="#000000" stroke-width="1.197" stroke-linecap="round" d="
				M45.261,37.746c-2.5-1.257-5.069-2.457-7.414-4.001"/>
		</g>
	</g>
</g>
</svg>
