<?xml version="1.0" encoding="utf-8"?>
<!-- Generator: Adobe Illustrator 14.0.0, SVG Export Plug-In . SVG Version: 6.00 Build 43363)  -->
<!DOCTYPE svg PUBLIC "-//W3C//DTD SVG 1.1//EN" "http://www.w3.org/Graphics/SVG/1.1/DTD/svg11.dtd">
<svg version="1.1" id="Ebene_1" xmlns="http://www.w3.org/2000/svg" xmlns:xlink="http://www.w3.org/1999/xlink" x="0px" y="0px"
	 width="100px" height="100px" viewBox="0 0 100 100" enable-background="new 0 0 100 100" xml:space="preserve">
<circle fill="#B2B2B2" cx="50" cy="50" r="50"/>
<g>
	<g>
		<path fill-rule="evenodd" clip-rule="evenodd" d="M79.233,20.36c0.854,0.338,1.643,0.778,2.516,0.547
			c-0.766,8.713-1.411,17.546-1.75,26.687c2.021,0.313,4.791-0.125,6.563,0.438c0.129,1.34-0.422,2.927-0.438,4.484
			c1.449,0.305,3.492-0.278,5.031,0.109c-0.046,5.605-0.336,10.967-0.656,16.297c-3.498,0.07-6.666-0.189-10.172-0.109
			c-0.319,0.117,0.101,0.977-0.219,1.094c-5.325,2.115-11.331,4.457-16.516,7.219c-0.668,0.355-1.647,1.021-2.188,1.094
			c-0.993,0.131-2.507-0.322-3.828-0.438c-9.074-0.799-19.321-0.701-27.891,0.656c-1.153-1.836-1.755-4.223-2.515-6.453
			c-6.267,0.031-12.453-0.016-18.594-0.109c-0.454-3.775-0.469-7.99-0.656-12.031c2.045-0.252,4.335-0.258,6.563-0.328
			c0.255,1.313-0.151,3.287,0.328,4.375c0.255,0,0.51,0,0.766,0c0.43-3.602,0.18-7.85,0.328-11.922
			c2.56-0.247,5.572-0.043,8.313-0.109c-0.405-9.001-0.768-18.628-0.438-28c0.917-0.488,1.857-0.749,2.734-1.203
			c0.872-0.452,1.654-1.023,2.625-1.313l0.328,0.438l0.438,0.328c-0.173,0.373-0.752,0.341-0.984,0.656
			c11.753-2.044,25.179-1.319,35.984,0.875c1.561,0.317,3.42,1.037,4.594,0.984c0.61-0.027,1.594-0.507,2.406-0.766
			c2.282-0.726,4.984-1.636,7.109-2.406c-0.279-0.012-0.383-0.201-0.547-0.328l0.346-0.419L79.233,20.36z M77.265,23.641
			c-0.541,0.918-0.219,3.844-0.219,5.578c0,13.576-0.221,27.957-0.328,40.688c0.778-0.279,1.699-0.416,2.188-0.984
			c-1.02-15.729,0.418-31.889,1.203-46.484C79.098,22.958,77.77,22.784,77.265,23.641z M24.984,24.735
			c0.041,19.245-0.123,38.695,5.468,52.39c9.446-1.324,20.839-1.357,30.516-0.219c4.86-14.863,7.64-31.809,7.984-51.187
			C56.779,22.328,38.089,21.651,24.984,24.735z M70.374,25.61c-0.592,18.841-3.066,35.798-7.766,50.531
			c3.852-1.91,8.64-3.828,12.797-5.797c0.206-8.203,0.132-16.309,0.219-24.609c0.077-7.393,0.313-14.791,0-21.875
			C73.864,24.433,72.058,24.96,70.374,25.61z"/>
		<path fill-rule="evenodd" clip-rule="evenodd" d="M27.718,35.453c0.809-1.988,2.01-3.752,4.484-3.828
			c3.911-0.12,6.034,4.451,4.047,7.656C33.912,43.052,26.656,41.417,27.718,35.453z"/>
		<path fill-rule="evenodd" clip-rule="evenodd" d="M55.062,32.391c3.822-0.549,7.314,2.794,5.359,6.563
			c-2.115,4.078-9.734,2.978-9.734-2.078C50.687,34.22,52.651,32.737,55.062,32.391z"/>
		<path fill-rule="evenodd" clip-rule="evenodd" d="M40.624,44.859c-1.438-0.283-2.357-5.328,0-4.594
			c0.057,1.219-0.187,3.197,0.766,3.828l-0.438,0.328L40.624,44.859z"/>
		<path fill-rule="evenodd" clip-rule="evenodd" d="M45.655,44.422l-0.328-0.438c0.791-0.777,0.306-2.83,0.766-3.938
			c2.1-0.18,0.953,4.493-0.109,4.813L45.655,44.422z"/>
		<path fill-rule="evenodd" clip-rule="evenodd" d="M62.171,40.156c1.616-0.173,5.205,0.16,5.25,2.188
			c0.065,3.004-8.762,3.352-8.859,0.109C58.516,40.942,60.17,40.37,62.171,40.156z"/>
		<g>
			<path fill-rule="evenodd" clip-rule="evenodd" fill="none" stroke="#000000" stroke-width="1.1303" stroke-linecap="round" d="
				M29.468,21.782c3.846-1.768,9.311-5.759,12.702-6.188c12.475-1.578,24.727-0.643,36.644,5.112"/>
			<path fill-rule="evenodd" clip-rule="evenodd" fill="none" stroke="#000000" stroke-width="1.1122" stroke-linecap="round" d="
				M45.655,44.422c-1.287,1.084-3.405,1.023-4.703,0"/>
		</g>
	</g>
</g>
</svg>
