<?xml version="1.0" encoding="utf-8"?>
<!-- Generator: Adobe Illustrator 14.0.0, SVG Export Plug-In . SVG Version: 6.00 Build 43363)  -->
<!DOCTYPE svg PUBLIC "-//W3C//DTD SVG 1.1//EN" "http://www.w3.org/Graphics/SVG/1.1/DTD/svg11.dtd">
<svg version="1.1" id="Ebene_1" xmlns="http://www.w3.org/2000/svg" xmlns:xlink="http://www.w3.org/1999/xlink" x="0px" y="0px"
	 width="100px" height="100px" viewBox="0 0 100 100" enable-background="new 0 0 100 100" xml:space="preserve">
<circle fill="#B2B2B2" cx="50" cy="50" r="50"/>
<g>
	<g>
		<path fill-rule="evenodd" clip-rule="evenodd" d="M39.007,17.636c3.85-1.324,8.577-1.772,13.843-1.681
			c3.032,3.328,5.277,7.444,6.822,12.261c1.182-0.132,2.533-0.493,3.955-0.791c1.971-0.414,4.131-1.335,5.142,0l-0.396,0.296
			l-0.297,0.396c-0.436,0.073-0.405-0.32-0.692-0.396c-2.341,0.592-4.928,0.939-7.218,1.582c0.256,0.931,0.338,2.036,0.791,2.769
			c3.133-0.822,6.42-1.491,9.986-1.878c-0.195-0.398-0.782-0.404-0.988-0.791l0.396-0.297l0.297-0.396
			c1.384,0.66,2.61,1.477,4.054,2.077c1.095-0.455,1.759-1.339,3.263-1.384c0.507,0.68,0.597,1.777,0.791,2.769
			c0.577,0.344,1.452,0.483,2.176,0.198c1.45,5.617,1.64,15.498,0.791,22.445c-0.21,1.712-0.896,5.388-0.791,7.416
			c0.055,1.065,0.734,2.389,0.296,3.56c1.612-0.529,5.4-0.959,6.428,0.691c-0.525,0.926-1.664,1.236-2.571,1.78
			c0.335,0.861,2.338,1.353,2.274,2.274c-0.051,0.738-1.292,0.917-2.274,1.087c0.472,0.857,2.103,1.905,1.681,3.659
			c-1.009,0.489-2.124-0.293-3.263-0.297c-0.249,0.608,0.088,1.801-0.396,2.175c-3.075,0.368-4.938-1.32-5.24-4.054
			c-1.293,1.81-2.743,3.976-5.735,3.758c-0.2-0.448-0.047-1.087,0.1-1.483c-1.02,0.403-3.111,1.021-2.473-0.989
			c-11.21,2.662-23.871,5.216-35.793,7.614c-1.733,0.349-3.501,0.868-5.142,0.988c-0.929,0.068-1.187-0.226-1.878-0.396
			c-1.522-0.373-3.377-0.428-5.142-0.791c-1.715-0.354-3.523-0.723-4.845-1.088c-4.449-1.228-2.946-7.647-3.856-12.854
			c-0.346-6.872-0.601-13.836-1.088-20.566c0.655-0.532,1.31-1.063,2.175-1.384l0.379,0.313l0.313,0.379
			c-0.011,0.187-0.327,0.068-0.297,0.296c1.615-0.295,3.079,0.456,4.647,0.198c1.068-0.176,2.343-1.08,3.46-1.582
			c3.507-1.574,7.165-2.779,10.58-4.449c-0.62-0.896-0.835-2.197-1.582-2.966c-2.799,1.057-5.308,2.405-8.009,3.56l-0.296-0.396
			l-0.396-0.297c0.027-0.203,0.264-0.197,0.396-0.296c-0.587-1.193-1.636-1.924-2.274-3.065l0.396-0.296l0.396-0.297
			c1.09,0.854,1.636,2.253,2.769,3.065c0.631-0.357,1.312-0.666,1.978-0.989c-0.72-1.898-1.599-3.854-2.669-5.735
			c-0.317-0.558-1.06-1.45-0.989-1.978c0.109-0.806,1.736-1.219,2.472-1.582c1.032-0.51,1.771-1.007,2.769-1.286
			c-0.243-1.05-1.015-2.261-0.692-3.263c-0.924,0.527-1.873,1.027-2.868,1.483l-0.296-0.396l-0.396-0.296
			c1.647-1.418,4.319-1.812,5.933-3.263l0.296,0.396l0.396,0.297c-0.649,0.867-1.473,1.56-1.978,2.571
			c1.981,6.192,4.247,12.101,7.119,17.402c0.485-0.028,1.523-0.31,1.978-0.692c-2.169-5.147-4.163-10.471-5.735-16.216
			c2.231-2.178,5.466-3.187,8.701-4.251c3.214-1.058,6.678-2.152,10.185-2.769c3.516,4.625,5.587,10.695,7.316,17.105
			c0.661,0.165,1.499-0.346,2.274-0.396c-0.944-6.2-3.14-12.047-6.031-16.414c-0.539-0.813-1.617-2.663-2.274-2.867
			c-0.567-0.177-1.346,0.074-1.878,0.099c-3.645,0.17-7.836,0.499-10.976,1.483v-0.495L39.007,17.636z M52.059,23.568
			c-0.472-0.837-1.07-2.671-1.78-2.867c-0.583-0.161-1.429,0.352-1.978,0.593c1.384,2.736,2.423,5.816,3.46,8.899
			c1.042-0.178,1.901-0.538,2.967-0.692C54.13,27.543,52.976,25.198,52.059,23.568z M46.917,21.492
			c-0.926,0.293-1.874,0.565-2.868,0.791c1.448,2.902,2.688,6.013,4.054,8.998c0.758-0.297,1.585-0.524,2.472-0.692
			C49.581,27.332,48.604,24.057,46.917,21.492z M42.764,22.679c-1.59,0.681-3.231,0.923-5.241,1.78
			c-0.848,0.361-4.056,1.598-4.251,2.472c-0.104,0.467,0.514,1.432,0.692,1.978c0.751,2.304,1.224,4.295,1.978,6.229
			c3.676-1.104,7.041-2.517,10.876-3.461C45.689,28.455,44.412,25.381,42.764,22.679z M24.274,31.676
			c1.281,2.18,2.494,4.428,3.461,6.921c1.187-0.593,2.587-0.972,3.658-1.681c-1.184-2.277-1.861-5.06-2.966-7.416
			C27.091,30.274,25.45,30.743,24.274,31.676z M36.337,36.324c0.497,0.953,0.897,2.003,1.187,3.164
			c5.97-2.303,12.31-4.236,18.49-6.328c-0.446-0.807-0.356-2.149-1.088-2.67C48.498,32.203,42.108,33.954,36.337,36.324z
			 M71.734,34.346c-0.983,1.35-2.37,3.149-1.779,5.438c1.786-0.598,3.135-2.124,5.043-2.274c0.456,1.191,0.586,2.709,1.187,3.757
			c2.072-2.034,2.264-7.574,0.89-10.58c-1.128,0.652-2.245,1.315-3.362,1.978l-0.296-0.396l-0.396-0.296
			c0.073-0.289,0.533-0.191,0.494-0.593c-0.438-0.177-0.75-0.334-1.187-0.297c-3.337,0.286-7.938,1.226-11.173,1.978
			c0.071,0.983,0.396,1.713,0.396,2.769c2.831-0.367,5.863-1.386,8.997-1.78c0.154-0.143,0.266-0.328,0.495-0.396l0.296,0.396
			L71.734,34.346z M79.052,33.654c0.304,4.259-0.447,8.053-3.56,9.196c-0.721-1.026-0.92-2.574-1.285-3.955
			c-0.809,0.305-1.416,0.636-2.274,1.087c-0.681,0.358-1.553,1.231-2.472,0.989c-1.721-0.453-0.543-4.779,0.197-5.735
			c-16.074,3.306-30.77,7.989-44.692,13.447c0.074,8.1,0.191,16.156,0.791,23.73c0.645,3.113,0.603,6.912,1.878,9.394
			c1.8,0.252,3.609-0.352,5.339-0.692c12.6-2.479,25.121-5.106,37.277-7.91c0.404-0.814,1.101-1.338,1.681-1.978
			c-1.685-0.26-3.472-0.418-4.252-1.582c0.509-0.744,1.615-0.89,2.472-1.285c-0.501-0.916-1.537-1.297-1.878-2.373
			c1.191-1.462,4.999-0.773,6.624-0.494c-0.032-1.743,0.632-4.583,1.483-4.647c0.807-0.061,0.786,0.991,1.385,1.385
			c0.62-0.369,0.744-1.233,1.384-1.582c0.171-0.321,0.816,0.354,0.791-0.1c0.771-8.271,1.844-19.007,0.099-27.092
			C79.818,33.629,79.297,33.503,79.052,33.654z M56.211,34.346c-6.25,1.891-12.458,3.824-18.193,6.229
			c0.256,0.634,0.558,1.222,0.791,1.879c5.952-1.859,11.837-3.785,18.094-5.339C56.74,36.125,56.679,35.032,56.211,34.346z
			 M33.667,42.157c-4.138,1.729-8.357,3.376-12.36,5.241c0.781,0.241,1.718,0.325,2.472,0.593c3.441-1.503,7.193-2.694,10.777-4.054
			C34.325,43.28,34.15,42.564,33.667,42.157z M18.144,48.387c0.035-0.13,0.174-0.156,0.198-0.297
			c-1.613-0.101-3.337-0.09-4.944-0.198c0.022,1.329-0.09,2.793,0.198,3.856c0.105-0.224,0.3-0.359,0.593-0.395l0.297,0.395
			l0.396,0.297c-0.131,0.33-0.579,0.344-0.692,0.692c1.623,0.552,3.057,1.294,4.746,1.779c0.117-1.761-0.243-4.001,0.198-5.438
			c-0.099,0-0.198,0-0.296,0l-0.297-0.396L18.144,48.387z M20.319,48.387c-0.115,0.017-0.107,0.156-0.099,0.296
			c0,1.188,0,2.317,0,3.757c0,1.097,0.226,2.946-0.396,3.362c-0.613,0.409-2.537-0.642-3.164-0.891
			c-1.196-0.474-2.053-0.922-3.065-1.285c0.318,7.987,0.911,15.7,1.384,23.532c0.641,2.65,3.383,2.69,6.328,3.362
			c1.745,0.398,3.505,0.93,4.845,0.791c-2.313-9.223-2.215-20.856-2.373-32.234C22.685,48.789,21.581,48.509,20.319,48.387z
			 M79.052,67.47c0.099,0,0.197,0,0.297,0c0.902-1.162,1.206-4.264,0-5.34c-0.544,0.553-0.757,1.667-1.483,1.682
			c-0.734,0.014-0.63-0.936-1.385-1.187c-0.462,1.518-0.938,4.16,0.594,4.845l-0.18,0.593l0.477,0.396
			c-0.785,1.065,0.604,2.077,1.582,1.385c0.37-0.461,0.285-1.088-0.1-1.483l0.247-0.412L79.052,67.47z M69.955,66.382
			c0.361,0.838,1.826,1.319,1.681,2.176c-0.129,0.757-1.373,0.571-1.879,1.187c1.881,0.668,4.907,0.701,6.328-0.396
			c-0.07-0.499,0.136-0.722,0.198-1.088c-0.551-0.405-1.035-0.877-1.285-1.582C73.5,66.382,71.488,65.762,69.955,66.382z
			 M80.238,69.645c1.373,0.6,3.716,1.491,5.537,0.692c-0.577-0.775-2.217-1.193-2.076-2.175c0.126-0.887,1.674-0.81,2.076-1.682
			C83.24,66.156,79.569,66.445,80.238,69.645z M73.613,71.227c-0.837,1.142-2.347,1.608-2.57,3.362
			c0.768-0.122,1.202-0.577,2.175-0.494c0.594,0.351-0.037,1.206,0.198,1.681c2.053-0.914,3.315-2.616,4.054-4.845
			C76.364,69.735,75.322,71.344,73.613,71.227z M83.204,71.622c-1.696,0.144-2.903-1.435-4.152-0.791
			c-0.333,2.834,0.41,5.281,3.164,5.34c0.041-0.75-0.097-1.679,0.099-2.274c0.977-0.376,2.161,0.29,3.263,0.396
			C85.071,73.118,84.112,72.396,83.204,71.622z"/>
		<path fill-rule="evenodd" clip-rule="evenodd" d="M18.44,33.654l-0.297,0.396c-0.604-0.252-0.81-0.904-1.187-1.384
			c0.605-1.142,1.316-2.178,2.274-2.966l0.296,0.396l0.297,0.396c-0.378,0.842-1.204,1.235-1.483,2.175
			c0.16,0.236,0.355,0.436,0.495,0.692L18.44,33.654z"/>
		<path fill-rule="evenodd" clip-rule="evenodd" d="M83.402,27.919c-1.088,0.89-1.68,2.276-3.164,2.769
			c-2.059-2.224-2.232-8.131-1.187-11.667c2.212-0.388,5.289,1.122,6.724,2.769c1.83,2.101,1.803,5.359,0.791,8.306
			C84.817,30.8,84.354,28.655,83.402,27.919z M80.535,29.105c1.162-0.683,1.685-2.007,2.966-2.571
			c1.03,0.519,1.37,1.728,2.274,2.373c1.382-5.266-1.734-8.26-5.834-8.998C79.616,23.122,79.419,26.526,80.535,29.105z"/>
		<path fill-rule="evenodd" clip-rule="evenodd" d="M64.715,47.398c1.602-0.255,3.521,0.311,4.351,1.187
			c1.218,1.286,1.435,3.748,0.099,5.24c-1.908,2.132-5.987,1.741-7.416-0.395C59.904,50.672,62.043,47.823,64.715,47.398z"/>
		<path fill-rule="evenodd" clip-rule="evenodd" d="M42.072,51.848c2.605-0.4,5.494,1.196,5.537,3.757
			c0.066,3.924-6.117,5.22-8.404,2.373C37.212,55.498,38.966,52.324,42.072,51.848z"/>
		<path fill-rule="evenodd" clip-rule="evenodd" d="M59.178,59.164c0.482-0.935,0.684-2.15,0.593-3.658
			c0.063-0.332,0.475-0.317,0.89-0.297c0.618,1.412,0.175,3.88-0.791,4.647l-0.296-0.396L59.178,59.164z"/>
		<path fill-rule="evenodd" clip-rule="evenodd" d="M53.641,59.856l-0.297,0.396c-0.59-0.214-2.377-3.16-1.285-3.461
			c1.097-0.303,1.192,2.389,1.978,2.769L53.641,59.856z"/>
		<path fill-rule="evenodd" clip-rule="evenodd" d="M35.15,58.373c1.732-0.094,3.922,0.032,4.153,1.384
			c0.44,2.579-5.302,3.725-7.515,3.856c-1.664,0.1-4.114-0.184-4.351-1.483c-0.268-1.469,1.767-2.328,2.868-2.769
			C31.888,58.729,33.391,58.469,35.15,58.373z"/>
		<g>
			<path fill-rule="evenodd" clip-rule="evenodd" fill="none" stroke="#000000" stroke-width="1.0054" stroke-linecap="round" d="
				M14.568,46.228c2.846-1.809,5.815-3.423,8.816-4.96"/>
			<path fill-rule="evenodd" clip-rule="evenodd" fill="none" stroke="#000000" stroke-width="1.036" stroke-linecap="round" d="
				M21.505,37.313c-1-1.24-2.052-2.43-3.065-3.659"/>
			<path fill-rule="evenodd" clip-rule="evenodd" fill="none" stroke="#000000" stroke-width="1.0334" stroke-linecap="round" d="
				M19.528,30.094c1.409-1.495,3.093-2.702,4.845-3.757"/>
			<path fill-rule="evenodd" clip-rule="evenodd" fill="none" stroke="#000000" stroke-width="1.0093" stroke-linecap="round" d="
				M30.207,23.173c2.498-2.5,5.737-4.118,9.097-5.142"/>
			<path fill-rule="evenodd" clip-rule="evenodd" fill="none" stroke="#000000" stroke-width="1.0161" stroke-linecap="round" d="
				M70.351,29.105c-0.655-0.463-1.353-0.872-1.978-1.384"/>
			<path fill-rule="evenodd" clip-rule="evenodd" fill="none" stroke="#000000" stroke-width="1.0252" stroke-linecap="round" d="
				M71.339,34.049c0.677-0.615,1.353-1.232,2.077-1.78"/>
			<path fill-rule="evenodd" clip-rule="evenodd" fill="none" stroke="#000000" stroke-width="1.0251" stroke-linecap="round" d="
				M14.485,51.748c1.327-1.054,2.708-2.038,4.054-3.065"/>
			<path fill-rule="evenodd" clip-rule="evenodd" fill="none" stroke="#000000" stroke-width="0.9501" stroke-linecap="round" d="
				M76.895,68.063c0.705-0.261,1.488-0.433,2.206-0.115"/>
			<path fill-rule="evenodd" clip-rule="evenodd" fill="none" stroke="#000000" stroke-width="1.0178" stroke-linecap="round" d="
				M59.573,59.461c-1.435,1.66-4.375,2.155-5.933,0.396"/>
		</g>
	</g>
</g>
</svg>
